<svg xmlns="http://www.w3.org/2000/svg" viewBox="0 0 500 500"><g id="freepik--Shadow--inject-243"><ellipse id="freepik--path--inject-243" cx="250" cy="412.39" rx="193.89" ry="11.32" style="fill:#f5f5f5"></ellipse></g><g id="freepik--window-2--inject-243"><rect x="292.47" y="131.95" width="71.25" height="220.67" transform="translate(656.19 484.58) rotate(180)" style="fill:#407BFF"></rect><rect x="292.47" y="131.95" width="71.25" height="220.67" transform="translate(656.19 484.58) rotate(180)" style="fill:#fff;opacity:0.6000000000000001"></rect><rect x="367.27" y="131.88" width="71.25" height="226.45" transform="translate(805.79 490.2) rotate(180)" style="fill:#407BFF"></rect><rect x="367.27" y="131.88" width="71.25" height="226.45" transform="translate(805.79 490.2) rotate(180)" style="fill:#fff;opacity:0.6000000000000001"></rect><path d="M359.7,157.48v25.1H316.5c-10.51,0-13.05-14.72-3.12-18.17l.38-.13c-11-9.15,13.11-28.43,39.28-1.73C352.25,159.09,355.28,157.46,359.7,157.48Z" style="fill:#fff"></path><rect x="288.74" y="198.92" width="89.08" height="154.04" style="fill:#fff;opacity:0.5"></rect><rect x="360.71" y="204.63" width="11.4" height="11.41" transform="translate(732.83 420.66) rotate(180)" style="fill:#fff"></rect><rect x="338.62" y="204.63" width="11.4" height="11.41" transform="translate(688.65 420.66) rotate(180)" style="fill:#fff"></rect><rect x="316.53" y="204.63" width="11.4" height="11.41" transform="translate(644.47 420.66) rotate(180)" style="fill:#fff"></rect><rect x="294.44" y="204.63" width="11.41" height="11.41" transform="translate(600.29 420.66) rotate(180)" style="fill:#fff"></rect><rect x="360.71" y="225.35" width="11.4" height="11.41" transform="translate(732.83 462.1) rotate(180)" style="fill:#f0f0f0"></rect><rect x="338.62" y="225.35" width="11.4" height="11.41" transform="translate(688.65 462.1) rotate(180)" style="fill:#f0f0f0"></rect><rect x="316.53" y="225.35" width="11.4" height="11.41" transform="translate(644.47 462.1) rotate(180)" style="fill:#fff"></rect><rect x="294.44" y="225.35" width="11.41" height="11.41" transform="translate(600.29 462.1) rotate(180)" style="fill:#fff"></rect><rect x="360.71" y="246.07" width="11.4" height="11.4" transform="translate(732.83 503.55) rotate(180)" style="fill:#f0f0f0"></rect><rect x="338.62" y="246.07" width="11.4" height="11.4" transform="translate(688.65 503.55) rotate(180)" style="fill:#fff"></rect><rect x="316.53" y="246.07" width="11.4" height="11.4" transform="translate(644.47 503.55) rotate(180)" style="fill:#fff"></rect><rect x="294.44" y="246.07" width="11.41" height="11.4" transform="translate(600.29 503.55) rotate(180)" style="fill:#f0f0f0"></rect><rect x="360.71" y="266.79" width="11.4" height="11.4" transform="translate(732.83 544.99) rotate(180)" style="fill:#fff"></rect><rect x="338.62" y="266.79" width="11.4" height="11.4" transform="translate(688.65 544.99) rotate(180)" style="fill:#f0f0f0"></rect><rect x="316.53" y="266.79" width="11.4" height="11.4" transform="translate(644.47 544.99) rotate(180)" style="fill:#f0f0f0"></rect><rect x="294.44" y="266.79" width="11.41" height="11.4" transform="translate(600.29 544.99) rotate(180)" style="fill:#fff"></rect><rect x="360.71" y="287.52" width="11.4" height="11.41" transform="translate(732.83 586.44) rotate(180)" style="fill:#f0f0f0"></rect><rect x="338.62" y="287.52" width="11.4" height="11.41" transform="translate(688.65 586.44) rotate(180)" style="fill:#fff"></rect><rect x="316.53" y="287.52" width="11.4" height="11.41" transform="translate(644.47 586.44) rotate(180)" style="fill:#fff"></rect><rect x="294.44" y="287.52" width="11.41" height="11.41" transform="translate(600.29 586.44) rotate(180)" style="fill:#f0f0f0"></rect><rect x="360.71" y="308.24" width="11.4" height="11.4" transform="translate(732.83 627.88) rotate(180)" style="fill:#f0f0f0"></rect><rect x="338.62" y="308.24" width="11.4" height="11.4" transform="translate(688.65 627.88) rotate(180)" style="fill:#fff"></rect><rect x="316.53" y="308.24" width="11.4" height="11.4" transform="translate(644.47 627.88) rotate(180)" style="fill:#f0f0f0"></rect><rect x="294.44" y="308.24" width="11.41" height="11.4" transform="translate(600.29 627.88) rotate(180)" style="fill:#fff"></rect><rect x="360.71" y="328.96" width="11.4" height="11.41" transform="translate(732.83 669.33) rotate(180)" style="fill:#fff"></rect><rect x="338.62" y="328.96" width="11.4" height="11.41" transform="translate(688.65 669.33) rotate(180)" style="fill:#fff"></rect><rect x="316.53" y="328.96" width="11.4" height="11.41" transform="translate(644.47 669.33) rotate(180)" style="fill:#f0f0f0"></rect><rect x="294.44" y="328.96" width="11.41" height="11.41" transform="translate(600.29 669.33) rotate(180)" style="fill:#f0f0f0"></rect><rect x="289.96" y="131.21" width="72.45" height="6.13" transform="translate(652.36 268.56) rotate(180)" style="fill:#407BFF"></rect><rect x="289.96" y="131.21" width="72.45" height="6.13" transform="translate(652.36 268.56) rotate(180)" style="opacity:0.5"></rect><rect x="289.96" y="352.96" width="72.45" height="6.13" transform="translate(652.36 712.05) rotate(180)" style="fill:#ebebeb"></rect><path d="M364.86,125.22v239.1h.82V125.22Z" style="fill:#f0f0f0"></path><path d="M287.14,125.22v239.1h77.72V125.22ZM359.7,358.33H293.13V131.21H359.7Z" style="fill:#407BFF"></path><rect x="375.49" y="277.86" width="60.93" height="74.77" style="fill:#fff;opacity:0.7000000000000001"></rect><polygon points="380.79 286.15 394.96 286.15 398.87 286.15 402.76 286.15 402.76 293.95 398.87 293.95 394.96 293.95 380.79 293.95 380.79 286.15" style="fill:#fff"></polygon><polygon points="380.79 301.26 394.96 301.26 398.87 301.26 402.76 301.26 402.76 309.06 398.87 309.06 394.96 309.06 380.79 309.06 380.79 301.26" style="fill:#fff"></polygon><polygon points="380.79 316.37 394.96 316.37 398.87 316.37 402.76 316.37 402.76 324.17 398.87 324.17 394.96 324.17 380.79 324.17 380.79 316.37" style="fill:#fff"></polygon><polygon points="380.79 331.48 394.96 331.48 400.99 331.48 402.76 331.48 402.76 339.28 400.99 339.28 394.96 339.28 380.79 339.28 380.79 331.48" style="fill:#fff"></polygon><polygon points="409.14 286.15 423.31 286.15 427.21 286.15 431.11 286.15 431.11 293.95 427.21 293.95 423.31 293.95 409.14 293.95 409.14 286.15" style="fill:#fff"></polygon><polygon points="409.14 301.26 423.31 301.26 428.81 301.26 431.11 301.26 431.11 309.06 428.81 309.06 423.31 309.06 409.14 309.06 409.14 301.26" style="fill:#fff"></polygon><polygon points="409.14 316.37 423.31 316.37 427.21 316.37 431.11 316.37 431.11 324.17 427.21 324.17 423.31 324.17 409.14 324.17 409.14 316.37" style="fill:#fff"></polygon><polygon points="409.14 331.48 423.31 331.48 427.21 331.48 431.11 331.48 431.11 339.28 427.21 339.28 423.31 339.28 409.14 339.28 409.14 331.48" style="fill:#fff"></polygon><rect x="366.67" y="131.21" width="72.45" height="6.13" transform="translate(805.79 268.56) rotate(180)" style="fill:#407BFF"></rect><rect x="366.67" y="131.21" width="72.45" height="6.13" transform="translate(805.79 268.56) rotate(180)" style="opacity:0.5"></rect><rect x="366.67" y="352.96" width="72.45" height="6.13" transform="translate(805.79 712.05) rotate(180)" style="fill:#ebebeb"></rect><path d="M364.68,364.32H442.4V125.22H364.68m71.73,233.11H369.85V131.21h66.56Z" style="fill:#407BFF"></path><path d="M408,195.89A10.09,10.09,0,1,0,418.12,206,10.11,10.11,0,0,0,408,195.89Z" style="fill:#fff"></path><path d="M408,182.09a10.71,10.71,0,0,0,.21,8.54A12.54,12.54,0,0,0,408,182.09Z" style="fill:#f5f5f5"></path><path d="M408.35,193l-.93-2a11.6,11.6,0,0,1-.23-9.24l.84-2,.77,2a13.4,13.4,0,0,1,.22,9.11Z" style="fill:#fff"></path><path d="M408,221.33a10.71,10.71,0,0,0,.21,8.54A12.54,12.54,0,0,0,408,221.33Z" style="fill:#f5f5f5"></path><path d="M408.35,232.2l-.93-2a11.6,11.6,0,0,1-.23-9.24l.84-2,.77,2.05a13.4,13.4,0,0,1,.22,9.11Z" style="fill:#fff"></path><path d="M391.1,189.11a10.7,10.7,0,0,0,6.2,5.89A12.56,12.56,0,0,0,391.1,189.11Z" style="fill:#f5f5f5"></path><path d="M399.05,196.54l-2-.72a11.61,11.61,0,0,1-6.7-6.37l-.84-2,2,.91a13.42,13.42,0,0,1,6.61,6.28Z" style="fill:#fff"></path><path d="M418.85,216.86a10.7,10.7,0,0,0,6.2,5.89A12.56,12.56,0,0,0,418.85,216.86Z" style="fill:#f5f5f5"></path><path d="M426.8,224.29l-2-.73a11.52,11.52,0,0,1-6.7-6.37l-.84-2,2,.91a13.42,13.42,0,0,1,6.61,6.28Z" style="fill:#fff"></path><path d="M384.13,206a10.69,10.69,0,0,0,8.55-.22A12.56,12.56,0,0,0,384.13,206Z" style="fill:#f5f5f5"></path><path d="M388.15,207.67a11.39,11.39,0,0,1-4.35-.85l-2-.84,2.05-.77A13.49,13.49,0,0,1,393,205l2.06.68-2,.92A11.49,11.49,0,0,1,388.15,207.67Z" style="fill:#fff"></path><path d="M423.38,206a10.66,10.66,0,0,0,8.54-.22A12.53,12.53,0,0,0,423.38,206Z" style="fill:#f5f5f5"></path><path d="M427.39,207.67a11.34,11.34,0,0,1-4.34-.85l-2-.84,2.05-.77a13.49,13.49,0,0,1,9.12-.23l2.06.68-2,.92A11.49,11.49,0,0,1,427.39,207.67Z" style="fill:#fff"></path><path d="M391.16,222.9a10.69,10.69,0,0,0,5.89-6.19A12.53,12.53,0,0,0,391.16,222.9Z" style="fill:#f5f5f5"></path><path d="M389.47,224.54l.9-2a13.44,13.44,0,0,1,6.29-6.61l1.93-1-.73,2a11.58,11.58,0,0,1-6.37,6.7Z" style="fill:#fff"></path><path d="M418.91,195.15A10.69,10.69,0,0,0,424.8,189,12.53,12.53,0,0,0,418.91,195.15Z" style="fill:#f5f5f5"></path><path d="M417.22,196.79l.9-2a13.44,13.44,0,0,1,6.29-6.61l1.93-1-.73,2a11.61,11.61,0,0,1-6.37,6.7Z" style="fill:#fff"></path><path d="M370.85,182.58V160.16A20.74,20.74,0,0,1,380.3,169c6.45-3.89,16.55,6.17,12.42,13.57Z" style="fill:#fff"></path></g><g id="freepik--character-2--inject-243"><path d="M320.61,401.62l-.83-.55V356.26a2.06,2.06,0,0,0-1.93-2.18H312.4a2.07,2.07,0,0,0-1.94,2.18v44.81l-.82.55A32,32,0,0,1,292.05,407h0c-2.64,0-4.79,2.43-4.79,5.42H343c0-3-2.15-5.42-4.79-5.42h0A32,32,0,0,1,320.61,401.62Z" style="fill:#407BFF"></path><g style="opacity:0.6000000000000001"><path d="M320.61,401.62l-.83-.55V356.26a2.06,2.06,0,0,0-1.93-2.18H312.4a2.07,2.07,0,0,0-1.94,2.18v44.81l-.82.55A32,32,0,0,1,292.05,407h0c-2.64,0-4.79,2.43-4.79,5.42H343c0-3-2.15-5.42-4.79-5.42h0A32,32,0,0,1,320.61,401.62Z"></path></g><path d="M293,337.61h43.06l-8.91-60.71c-2.25-15.32-15.77-27.55-30.48-27.55H285.53c-14.7,0-25.23,12.23-23.71,27.55l3.38,34.25Z" style="fill:#407BFF"></path><path d="M293,337.61h43.06l-8.91-60.71c-2.25-15.32-15.77-27.55-30.48-27.55H285.53c-14.7,0-25.23,12.23-23.71,27.55l3.38,34.25Z" style="fill:#fff;opacity:0.1"></path><path d="M348.77,337.61H280.52l-6-60.71c-1.52-15.32,9-27.55,23.71-27.55h11.15c14.71,0,28.23,12.23,30.48,27.55Z" style="fill:#407BFF"></path><path d="M348.77,337.61H280.52l-6-60.71c-1.52-15.32,9-27.55,23.71-27.55h11.15c14.71,0,28.23,12.23,30.48,27.55Z" style="fill:#fff;opacity:0.30000000000000004"></path><path d="M372.47,303.85c0,1,0,2.08-.11,3.12,0,.66-.5,3.43-.1,1.37a57.63,57.63,0,0,1-1.59,6.6c-.31.94-.66,1.87-1,2.79.74-1.89-.32.61-.6,1.16a49.74,49.74,0,0,1-3.2,5.35c-.16.24-1.08,1.52-.36.54s-.22.27-.42.5c-.63.74-1.27,1.47-1.94,2.18s-1.54,1.56-2.35,2.29c-.36.33-.73.65-1.1,1-.19.16-1.82,1.4-.77.64.86-.62-1.45,1-1.76,1.18-.82.54-1.65,1-2.51,1.52s-1.74.92-2.62,1.36c-.26.13-1.71.76-.58.28s-.73.27-1,.36a42.69,42.69,0,0,1-5.77,1.65c-.62.14-3.39.56-1.3.31-1.28.15-2.57.25-3.86.3a48.06,48.06,0,0,1-6.23-.22c-.49,0-1.71-.38.18,0-.5-.11-1-.17-1.5-.26-1.11-.22-2.22-.48-3.31-.79s-1.91-.57-2.85-.9c-.47-.16-.92-.37-1.4-.52-1.27-.4,1.34.71.17.07-1.84-1-3.73-1.85-5.5-3-.82-.52-1.6-1.11-2.41-1.66,1.72,1.16-.5-.43-1-.84a43.25,43.25,0,0,1-4.6-4.68c-.32-.37-.62-.75-.93-1.13,1.39,1.72-.11-.22-.29-.49-.62-.9-1.21-1.83-1.77-2.78s-1.07-1.93-1.55-2.93c-.22-.44-.41-.9-.63-1.34,1,2-.05-.21-.17-.54a43.34,43.34,0,0,1-1.81-6.51c-.1-.5-.16-1-.27-1.5.48,2.19,0-.17,0-.59-.12-1.3-.16-2.6-.18-3.9,0-4.84-4.22-9.48-9.25-9.26a9.42,9.42,0,0,0-9.26,9.26,53.79,53.79,0,0,0,35.25,49.93c20.13,7.52,44.58.94,58.19-15.69A54.32,54.32,0,0,0,391,303.85c0-4.84-4.28-9.48-9.25-9.26a9.44,9.44,0,0,0-9.26,9.26Z" style="fill:#407BFF"></path><path d="M338,356.86c15.31-.1,30.62-6.85,40.38-18.77A54.32,54.32,0,0,0,391,303.85c0-4.84-4.28-9.48-9.25-9.26h-28.8a9.42,9.42,0,0,0-9.25,9.26c0,1,0,2.08-.11,3.12,0,.59-.41,2.86-.21,1.85a51.49,51.49,0,0,1-1.49,6.12c-.24.73-.51,1.46-.78,2.18.16-.46-.6,1.32-.83,1.77a48.24,48.24,0,0,1-3.21,5.35l-.29.42-.48.62c-.63.74-1.27,1.47-1.94,2.18S332.8,329,332,329.75l-1.1,1-.93.73-1.6,1.09c-.82.54-1.66,1-2.51,1.52s-1.48.78-2.22,1.15c-1.53-.79-3.07-1.53-4.53-2.47-.82-.52-1.6-1.11-2.41-1.66,1.72,1.16-.5-.43-1-.84a43.25,43.25,0,0,1-4.6-4.68l-.39-.47c.24.27-.69-.94-.83-1.15-.62-.9-1.21-1.83-1.77-2.78s-1.07-1.93-1.55-2.93c-.22-.44-.41-.9-.63-1.34,1,2-.05-.21-.17-.54a43.34,43.34,0,0,1-1.81-6.51c-.1-.5-.16-1-.27-1.5.48,2.19,0-.17,0-.59-.12-1.3-.16-2.6-.18-3.9,0-4.84-4.22-9.48-9.25-9.26h-28.8a9.41,9.41,0,0,0-9.25,9.26,53.77,53.77,0,0,0,35.24,49.93,50,50,0,0,0,18.42,3.07Z" style="fill:#407BFF"></path><path d="M338,356.86c15.31-.1,30.62-6.85,40.38-18.77A54.32,54.32,0,0,0,391,303.85c0-4.84-4.28-9.48-9.25-9.26h-28.8a9.42,9.42,0,0,0-9.25,9.26c0,1,0,2.08-.11,3.12,0,.59-.41,2.86-.21,1.85a51.49,51.49,0,0,1-1.49,6.12c-.24.73-.51,1.46-.78,2.18.16-.46-.6,1.32-.83,1.77a48.24,48.24,0,0,1-3.21,5.35l-.29.42-.48.62c-.63.74-1.27,1.47-1.94,2.18S332.8,329,332,329.75l-1.1,1-.93.73-1.6,1.09c-.82.54-1.66,1-2.51,1.52s-1.48.78-2.22,1.15c-1.53-.79-3.07-1.53-4.53-2.47-.82-.52-1.6-1.11-2.41-1.66,1.72,1.16-.5-.43-1-.84a43.25,43.25,0,0,1-4.6-4.68l-.39-.47c.24.27-.69-.94-.83-1.15-.62-.9-1.21-1.83-1.77-2.78s-1.07-1.93-1.55-2.93c-.22-.44-.41-.9-.63-1.34,1,2-.05-.21-.17-.54a43.34,43.34,0,0,1-1.81-6.51c-.1-.5-.16-1-.27-1.5.48,2.19,0-.17,0-.59-.12-1.3-.16-2.6-.18-3.9,0-4.84-4.22-9.48-9.25-9.26h-28.8a9.41,9.41,0,0,0-9.25,9.26,53.77,53.77,0,0,0,35.24,49.93,50,50,0,0,0,18.42,3.07Z" style="fill:#fff;opacity:0.4"></path><g style="opacity:0.6000000000000001"><path d="M372.47,303.85c0,1,0,2.08-.11,3.12,0,.66-.5,3.43-.1,1.37a57.63,57.63,0,0,1-1.59,6.6c-.31.94-.66,1.87-1,2.79.74-1.89-.32.61-.6,1.16a49.74,49.74,0,0,1-3.2,5.35c-.16.24-1.08,1.52-.36.54s-.22.27-.42.5c-.63.74-1.27,1.47-1.94,2.18s-1.54,1.56-2.35,2.29c-.36.33-.73.65-1.1,1-.19.16-1.82,1.4-.77.64.86-.62-1.45,1-1.76,1.18-.82.54-1.65,1-2.51,1.52s-1.74.92-2.62,1.36c-.26.13-1.71.76-.58.28s-.73.27-1,.36a42.69,42.69,0,0,1-5.77,1.65c-.62.14-3.39.56-1.3.31-1.28.15-2.57.25-3.86.3a48.06,48.06,0,0,1-6.23-.22c-.49,0-1.71-.38.18,0-.5-.11-1-.17-1.5-.26-1.11-.22-2.22-.48-3.31-.79s-1.91-.57-2.85-.9c-.47-.16-.92-.37-1.4-.52-1.27-.4,1.34.71.17.07-1.84-1-3.73-1.85-5.5-3-.82-.52-1.6-1.11-2.41-1.66,1.72,1.16-.5-.43-1-.84a43.25,43.25,0,0,1-4.6-4.68c-.32-.37-.62-.75-.93-1.13,1.39,1.72-.11-.22-.29-.49-.62-.9-1.21-1.83-1.77-2.78s-1.07-1.93-1.55-2.93c-.22-.44-.41-.9-.63-1.34,1,2-.05-.21-.17-.54a43.34,43.34,0,0,1-1.81-6.51c-.1-.5-.16-1-.27-1.5.48,2.19,0-.17,0-.59-.12-1.3-.16-2.6-.18-3.9,0-4.84-4.22-9.48-9.25-9.26a9.42,9.42,0,0,0-9.26,9.26,53.79,53.79,0,0,0,35.25,49.93c20.13,7.52,44.58.94,58.19-15.69A54.32,54.32,0,0,0,391,303.85c0-4.84-4.28-9.48-9.25-9.26a9.44,9.44,0,0,0-9.26,9.26Z" style="fill:#fff"></path></g><g id="freepik--group--inject-243"><polygon points="418.41 389.68 422.56 402.6 416.15 403.63 409.82 391.06 418.41 389.68" style="fill:#b25b52"></polygon><path d="M422.9,399.52l-8.59,1.17a.49.49,0,0,0-.46.56l1,6.28a1.45,1.45,0,0,0,1.61,1.06c3-.46,4.38-.82,8.16-1.33a100.31,100.31,0,0,0,11.85-2.72c3-1,1.68-3.74.29-3.56-6.26.77-9.95,0-12.44-1.21A2.3,2.3,0,0,0,422.9,399.52Z" style="fill:#263238"></path><polygon points="420.07 394.86 418.41 389.68 409.82 391.06 412.95 397.35 420.07 394.86" style="opacity:0.2"></polygon><path d="M344.83,313.52s52.15-7.86,55.61,8.5c5,23.53,20.06,70,20.06,70l-9.39,4.28s-25-44.56-28.57-63c-15.11-.56-52.3,8.42-58.27-.49a26.12,26.12,0,0,1-4.17-15.32Z" style="fill:#407BFF"></path><path d="M344.83,313.52s52.15-7.86,55.61,8.5c5,23.53,20.06,70,20.06,70l-9.39,4.28s-25-44.56-28.57-63c-15.11-.56-52.3,8.42-58.27-.49a26.12,26.12,0,0,1-4.17-15.32Z" style="opacity:0.8"></path></g><path d="M306.21,308.76l-.14,11,36.89-.28,8.43-6.82-.26-.13a15.41,15.41,0,0,1-7.48-8.56h0S338.45,312.93,306.21,308.76Z" style="fill:#407BFF"></path><g style="opacity:0.7000000000000001"><path d="M306.21,308.76l-.14,11,36.89-.28,8.43-6.82-.26-.13a15.41,15.41,0,0,1-7.48-8.56h0S338.45,312.93,306.21,308.76Z"></path></g><g id="freepik--group--inject-243"><path d="M335.61,265.7l36.79,36c5.4,1.54,8.5-1.28,6.77-6.62-.06-.18-19.17-18.42-19.28-18.56-16-19.08-23.82-24.65-23.82-24.65Z" style="fill:#263238"></path><path d="M381.65,307.8a2.93,2.93,0,0,1-2.59-1.58l-2.29-4.16-2.55-2.52,3.4-2.47,4.28,1.79a2.57,2.57,0,0,1,2.19,2.38c.07,1.09.16,2.4.3,3.38A2.82,2.82,0,0,1,381.65,307.8Z" style="fill:#b25b52"></path><path d="M345.34,306.19s-17.17,4-24.79,3.89l-13.92-.53c-.57-3.57-.8-5.57-2.52-20.42a237.29,237.29,0,0,0-6-30.22.29.29,0,0,0,0-.09,4.84,4.84,0,0,1,3.61-5.8h.09c2.4-.55,5.42-1.14,8.39-1.52a153,153,0,0,1,17.11-1.31,45.58,45.58,0,0,1,5.71.54,7.32,7.32,0,0,1,5.93,4.6C342,263.42,342.82,279.52,345.34,306.19Z" style="fill:#407BFF"></path><path d="M321.49,256.54c-8.5.29-11.48-4.88-11.48-4.88,3.8-3.64,4-12.51,2.84-18.07l3.1,2.68,6.14,5.32a24.42,24.42,0,0,0-.46,2.53,10.37,10.37,0,0,0-.07,1.84v.13c.15,2.57,1.46,4.77,5.43,5.8C327,251.89,328.75,256.27,321.49,256.54Z" style="fill:#b25b52"></path><path d="M321.73,241.22a24.49,24.49,0,0,0-.2,2.57,11.05,11.05,0,0,0,.1,1.83v0l0,.1c-2.36-.31-5.62-2.53-6.14-4.88a11,11,0,0,1-.28-2.36Z" style="opacity:0.2;isolation:isolate"></path><path d="M313.41,220.86a9.89,9.89,0,0,1,13.13-4.8c7.31,3.18,8.44,14.31,6.88,21a9.75,9.75,0,0,1-16.63,4.66c-3.82-3.94-3.75-8.34-4.26-15.83A9.87,9.87,0,0,1,313.41,220.86Z" style="fill:#b25b52"></path><path d="M312.46,232.66s1.44,3.08,4.71.84c-1.12-3.39.22-3.49.77-5.81a7.14,7.14,0,0,0-2.33-7.63l-2.77-.39C300,220.3,312.46,232.66,312.46,232.66Z" style="fill:#263238"></path><path d="M328.61,234.46a3.47,3.47,0,0,0,2.87-.47,22.44,22.44,0,0,1-3-5.28Z" style="fill:#a02724"></path><path d="M312.25,227.63c1.88.06,3.4,2.71,3.87,4.52.51,2-.43,3.65-2.28,2.84a7,7,0,0,1-3.29-3.41C309.7,229.71,310.38,227.57,312.25,227.63Z" style="fill:#b25b52"></path><path d="M324.32,227.8c.4,0,.73.58.73,1.13s-.32,1-.72,1-.67-.52-.72-1.12S323.92,227.78,324.32,227.8Z" style="fill:#263238"></path><path d="M331.17,227.62c.4,0,.72.51.73,1.12s-.32,1.11-.72,1.09-.72-.52-.72-1.13S330.77,227.61,331.17,227.62Z" style="fill:#263238"></path><path d="M330.16,225.07a.4.4,0,0,0,.31.14,3,3,0,0,1,2.5.84.35.35,0,0,0,.49,0h0a.37.37,0,0,0,0-.5h0a3.67,3.67,0,0,0-3.12-1.09.35.35,0,0,0-.24.57Z" style="fill:#263238"></path><path d="M322.46,226.53a.39.39,0,0,0,.33-.07,3,3,0,0,1,2.49-.88.36.36,0,0,0,.42-.26v0a.37.37,0,0,0-.28-.42h0a3.66,3.66,0,0,0-3.12,1.06.36.36,0,0,0,0,.51A.38.38,0,0,0,322.46,226.53Z" style="fill:#263238"></path><path d="M332.31,222.27c.22-.85,1.28-2.57,1.14-4a5,5,0,0,0-2.09-3.59c-1.73-1.23-4-1.24-6.15-1.19a4.14,4.14,0,0,0-1.49.21,1.45,1.45,0,0,0-1,1.07,1.43,1.43,0,0,0,.66,1.3c.41.3,3.86,1.86,5.26,2.72C329.27,219.16,331.67,220.75,332.31,222.27Z" style="fill:#263238"></path><path d="M311.88,214c-3.08,1.54-6.76,6.44-6.05,9.66a2.21,2.21,0,0,0,.41.81,4.46,4.46,0,0,0,5.38,1.37l3-1.29a10.92,10.92,0,0,0,6-4.57,5.88,5.88,0,0,1,1.69-1.68,6.07,6.07,0,0,1,5.52-.52c.67.27,1.58.61,2,0s-.33-2-.95-2.87C326.5,211.71,321.33,209.23,311.88,214Z" style="fill:#263238"></path><path d="M320.9,219.64c2.46-2.82,4.85-2.66,7.85-1.58a2.91,2.91,0,0,0-.62-2.11C326.05,213.39,321.8,217.43,320.9,219.64Z" style="opacity:0.2"></path><path d="M328.05,218.14a10.32,10.32,0,0,0-1.84,2.73,3.06,3.06,0,0,1-2.62,1.73,3.11,3.11,0,0,0,3.32,0,3.7,3.7,0,0,0,1.91-3.13,5.55,5.55,0,0,1-.11,5,4.12,4.12,0,0,0,1.13-6.17A1.33,1.33,0,0,0,328.05,218.14Z" style="fill:#263238"></path><path d="M345.09,282.81l10.27-.53a.54.54,0,0,0,.51-.56l-.81-20.28a.53.53,0,0,0-.55-.51l-10.14.52a.55.55,0,0,0-.51.56l.67,20.29A.53.53,0,0,0,345.09,282.81Z" style="fill:#263238"></path><path d="M345.09,282.81l10.27-.53a.54.54,0,0,0,.51-.56l-.81-20.28a.53.53,0,0,0-.55-.51l-10.14.52a.55.55,0,0,0-.51.56l.67,20.29A.53.53,0,0,0,345.09,282.81Z" style="fill:#fff;opacity:0.7000000000000001"></path><path d="M345.49,282.45l10-.51a.64.64,0,0,0,.6-.65l-.67-20.12a.62.62,0,0,0-.64-.59l-10,.52a.62.62,0,0,0-.6.64l.67,20.13A.61.61,0,0,0,345.49,282.45Z" style="fill:#263238"></path><path d="M345.49,282.45l10-.51a.64.64,0,0,0,.6-.65l-.67-20.12a.62.62,0,0,0-.64-.59l-10,.52a.62.62,0,0,0-.6.64l.67,20.13A.61.61,0,0,0,345.49,282.45Z" style="fill:#fff;opacity:0.2"></path><path d="M352.11,261.61l.17,5.27a.26.26,0,0,0,.28.25l2.27-.12a.33.33,0,0,0,.13,0,.23.23,0,0,0,.12-.23l-.17-5.28a.26.26,0,0,0-.28-.25l-2.27.12a.24.24,0,0,0-.22.15A.28.28,0,0,0,352.11,261.61Z" style="opacity:0.4"></path><path d="M352,261.72l.17,5.27a.26.26,0,0,0,.27.25l2.28-.11A.28.28,0,0,0,355,267a.33.33,0,0,1-.13,0l-2.27.12a.26.26,0,0,1-.28-.25l-.17-5.27a.28.28,0,0,1,0-.13A.24.24,0,0,0,352,261.72Z" style="opacity:0.5"></path><path d="M352.53,262.82a1,1,0,0,0,1.05,1,1,1,0,0,0,1-1.07,1,1,0,0,0-1-.95A1,1,0,0,0,352.53,262.82Z"></path><path d="M352.62,265.48a1,1,0,0,0,1.05,1,1,1,0,0,0,1-1.06,1,1,0,0,0-1-1A1,1,0,0,0,352.62,265.48Z"></path><path d="M353.88,265.39a.24.24,0,0,0,.24.21.2.2,0,0,0,.19-.23.22.22,0,0,0-.24-.2A.19.19,0,0,0,353.88,265.39Z" style="fill:#fff;opacity:0.2"></path><path d="M353.57,262.83a.22.22,0,0,0,.24.2.2.2,0,0,0,.19-.23.24.24,0,0,0-.24-.2A.2.2,0,0,0,353.57,262.83Z" style="fill:#fff;opacity:0.2"></path><path d="M350.4,277.9l-3.22.85c-.68.67-5.17,1.86-6.12,1.71a4,4,0,0,1-3.42-2.71A1.58,1.58,0,0,1,338,276l5.28-4.27a2.48,2.48,0,0,1,2.15-.47l4.67.61a1.83,1.83,0,0,1,1.31,1.31l.63,2.46A1.81,1.81,0,0,1,350.4,277.9Z" style="fill:#b25b52"></path><path d="M300.76,253.22a12,12,0,0,1,7.05,8.9,23.24,23.24,0,0,0,.61,2.83l1.25,2.79c.87,1.85,2.89,6.56,3.93,8.19a34.88,34.88,0,0,0,3.25,4.49c.53.6,2.72-1.17,10.43-1.2a17.49,17.49,0,0,0,4.87-.76c1-.27,1.86-.59,2.78-.93l1.37-.54,1.3-.56,3.19,4.19c-.5.48-.91.84-1.35,1.26a12.55,12.55,0,0,1-1.37,1.16,31.52,31.52,0,0,1-3,2c-2.18,1.3-17.67,8.79-21.89,6.58-4.19-3.06-7.94-9.11-10.17-13.3-1.11-2-2.14-4-3.07-6-.48-1-.91-2-1.36-3.09l-.45-1.06c-2.13-5.05-4.34-11.8,2.61-14.91Z" style="fill:#263238"></path></g><g id="freepik--group--inject-243"><polygon points="402.1 394.51 405.63 407.62 399.18 408.34 393.45 395.48 402.1 394.51" style="fill:#b25b52"></polygon><path d="M406.11,404.55l-8.63.77a.49.49,0,0,0-.49.53l.69,6.32a1.47,1.47,0,0,0,1.57,1.14c3-.32,4.4-.61,8.2-.95a97.33,97.33,0,0,0,12-2.15c3-.87,1.86-3.65.46-3.55-6.29.48-9.93-.43-12.36-1.79A2.41,2.41,0,0,0,406.11,404.55Z" style="fill:#263238"></path><polygon points="403.51 399.76 402.1 394.51 393.45 395.48 396.28 401.92 403.51 399.76" style="opacity:0.2"></polygon><path d="M332.16,314.94s52.46-5.37,55.14,11.14c3.85,23.73,16.77,70.87,16.77,70.87l-9.57,3.83s-23-45.7-25.61-64.28c-15.07-1.28-46.19,10.79-58.18-3.25-4.64-5.21-5.1-10.16-4.61-15.55Z" style="fill:#407BFF"></path><g style="opacity:0.7000000000000001"><path d="M332.16,314.94s52.46-5.37,55.14,11.14c3.85,23.73,16.77,70.87,16.77,70.87l-9.57,3.83s-23-45.7-25.61-64.28c-15.07-1.28-46.19,10.79-58.18-3.25-4.64-5.21-5.1-10.16-4.61-15.55Z"></path></g></g><path d="M324.75,236.62a5.5,5.5,0,0,0,4.12,1.24.2.2,0,0,0,.19-.2.19.19,0,0,0-.19-.17h0a5.26,5.26,0,0,1-4.37-1.62.19.19,0,0,0-.26,0h0a.21.21,0,0,0,0,.27A6,6,0,0,0,324.75,236.62Z" style="fill:#263238"></path></g><g id="freepik--window-1--inject-243"><rect x="72.22" y="125.28" width="134.31" height="157.56" style="fill:#407BFF"></rect><rect x="72.22" y="125.28" width="134.31" height="157.56" style="opacity:0.5"></rect><rect x="77.17" y="125.28" width="134.31" height="157.56" style="fill:#407BFF"></rect><rect x="83.7" y="200.93" width="120.98" height="71.74" style="fill:#263238"></rect><rect x="83.7" y="132.35" width="120.98" height="68.58" style="fill:#263238"></rect><rect x="200.43" y="132.35" width="4.26" height="140.31" style="fill:#407BFF"></rect><rect x="200.43" y="132.35" width="4.26" height="140.31" style="opacity:0.5"></rect><g style="opacity:0.5"><rect x="140.21" y="144.04" width="3.78" height="117.56" transform="translate(-60.72 344.92) rotate(-90)" style="fill:#407BFF"></rect></g><g style="opacity:0.5"><rect x="140.21" y="144.04" width="3.78" height="117.56" transform="translate(-60.72 344.92) rotate(-90)"></rect></g><rect x="81.42" y="194.58" width="123.27" height="6.35" style="fill:#407BFF"></rect><path d="M200.2,249.11v26.38h-4.51c-9.27,0-22.72-.19-36.3-.88-4.64-.24-9.29-.53-13.8-.9l-3.88-.35-.62-.05-3.88-.4c-10.62-1.18-19.7-2.87-24.77-5.3h0l-.54-.28-.41-.22-.45-.26-.42-.27-.38-.27-.35-.27-.32-.28-.3-.29c-.11-.12-.22-.24-.31-.36s-.12-.15-.17-.23a2.49,2.49,0,0,1-.19-.3,3.45,3.45,0,0,1-.29-.62,2.8,2.8,0,0,1-.09-.31c0-.1,0-.21,0-.31a3.17,3.17,0,0,1,.1-1.25l.08-.23c0-.12.1-.26.15-.38l.08-.17.22-.4a8.7,8.7,0,0,1,1.48-1.76s.23-.13.74-.35l.39-.17c.49-.21,1.16-.47,2-.77h0l.36-.13.39-.13c.52-.18,1.11-.37,1.75-.57l1-.3.77-.23c.67-.19,1.4-.39,2.19-.59l.67-.17,1.28-.32,2.43-.56,1.68-.36h0l1.13-.23c1.57-.32,3.26-.63,5.09-.94l1-.18c1.27-.21,2.62-.41,4-.62l.94-.14,1.35-.19,1.59-.22.62-.08c1.25-.16,2.55-.32,3.88-.47l.23,0,1.36-.15,5-.51h0l1-.09,1.4-.13,1.26-.11,1.23-.1,2.66-.21c2.49-.18,5.11-.35,7.84-.5l3.44-.18,2.52-.11,1.29-.06,2-.07,1.92-.07,2.48-.08c2.37-.07,4.82-.13,7.34-.16l2.91-.05,1.16,0,3,.1Z" style="fill:#407BFF"></path><path d="M200.2,249.11v26.38h-4.51c-9.27,0-22.72-.19-36.3-.88-4.64-.24-9.29-.53-13.8-.9l-3.88-.35-.62-.05-3.88-.4c-10.62-1.18-19.7-2.87-24.77-5.3h0l-.54-.28-.41-.22-.45-.26-.42-.27-.38-.27-.35-.27-.32-.28-.3-.29c-.11-.12-.22-.24-.31-.36s-.12-.15-.17-.23a2.49,2.49,0,0,1-.19-.3,3.45,3.45,0,0,1-.29-.62,2.8,2.8,0,0,1-.09-.31c0-.1,0-.21,0-.31a3.17,3.17,0,0,1,.1-1.25l.08-.23c0-.12.1-.26.15-.38l.08-.17.22-.4a8.7,8.7,0,0,1,1.48-1.76s.23-.13.74-.35l.39-.17c.49-.21,1.16-.47,2-.77h0l.36-.13.39-.13c.52-.18,1.11-.37,1.75-.57l1-.3.77-.23c.67-.19,1.4-.39,2.19-.59l.67-.17,1.28-.32,2.43-.56,1.68-.36h0l1.13-.23c1.57-.32,3.26-.63,5.09-.94l1-.18c1.27-.21,2.62-.41,4-.62l.94-.14,1.35-.19,1.59-.22.62-.08c1.25-.16,2.55-.32,3.88-.47l.23,0,1.36-.15,5-.51h0l1-.09,1.4-.13,1.26-.11,1.23-.1,2.66-.21c2.49-.18,5.11-.35,7.84-.5l3.44-.18,2.52-.11,1.29-.06,2-.07,1.92-.07,2.48-.08c2.37-.07,4.82-.13,7.34-.16l2.91-.05,1.16,0,3,.1Z" style="opacity:0.6000000000000001"></path><path d="M195.69,236.19a18.09,18.09,0,0,1,4.51-1.54v24l-4.51-.14-4.44-.15q-3.56,0-6.91.12l-2.23.06c-3.27.09-6.4.2-9.41.34q-1,0-2.07.09l-2,.1-1.52.08-2.37.14-2.17.14-2.11.15-1.38.1-1.09.08c-1.8.14-3.54.29-5.22.44l-1.49.14c-.5.05-1,.09-1.47.15l-2.42.25-.75.08-1,.11-2.22.27-.86.11-.8.1-.62.07h0l-.27,0-.82.11-.72.1h0l-1.64.23-.41.07-1.77.25-3.64.6-1.32.23-1.21.22-1.18.22-1.06.21-1.49.3-.59.13c-2.54.54-4.7,1.07-6.53,1.57l-.82.22-1.4.41-1,.31c-.25.08-.49.15-.72.24s-.39.12-.57.19-.55.18-.8.27l-.67.24h0a23.44,23.44,0,0,0-2.48,1.05c-3.08,2.94-2.87,4.17-.07,5.95.35.22.74.45,1.16.69l-23.93,0h-4.5v-52.5a15.08,15.08,0,0,1,4.5,1c6.82,2.7,10.6,9.71,23.59,12.67,4,.92,7.85-1.71,11.25-4s7.64-4.49,11.41-2.89a10.21,10.21,0,0,1,3.85,3.25,38.18,38.18,0,0,0,3.88,4.73c.2.18.41.35.62.51a7.35,7.35,0,0,0,3.88,1.51c5.91.53,12.37-5.48,18.58-4,3,.71,5.23,3,7.52,5.16.67.64,1.35,1.27,2.05,1.85a11.24,11.24,0,0,0,4.63,2.43c1.79.39,5.3-1.62,8.52-3.67,2.41-1.55,4.66-3.12,5.9-3.72C193.75,237.13,194.71,236.64,195.69,236.19Z" style="fill:#407BFF"></path><g style="opacity:0.8"><path d="M195.69,236.19a18.09,18.09,0,0,1,4.51-1.54v24l-4.51-.14-4.44-.15q-3.56,0-6.91.12l-2.23.06c-3.27.09-6.4.2-9.41.34q-1,0-2.07.09l-2,.1-1.52.08-2.37.14-2.17.14-2.11.15-1.38.1-1.09.08c-1.8.14-3.54.29-5.22.44l-1.49.14c-.5.05-1,.09-1.47.15l-2.42.25-.75.08-1,.11-2.22.27-.86.11-.8.1-.62.07h0l-.27,0-.82.11-.72.1h0l-1.64.23-.41.07-1.77.25-3.64.6-1.32.23-1.21.22-1.18.22-1.06.21-1.49.3-.59.13c-2.54.54-4.7,1.07-6.53,1.57l-.82.22-1.4.41-1,.31c-.25.08-.49.15-.72.24s-.39.12-.57.19-.55.18-.8.27l-.67.24h0a23.44,23.44,0,0,0-2.48,1.05c-3.08,2.94-2.87,4.17-.07,5.95.35.22.74.45,1.16.69l-23.93,0h-4.5v-52.5a15.08,15.08,0,0,1,4.5,1c6.82,2.7,10.6,9.71,23.59,12.67,4,.92,7.85-1.71,11.25-4s7.64-4.49,11.41-2.89a10.21,10.21,0,0,1,3.85,3.25,38.18,38.18,0,0,0,3.88,4.73c.2.18.41.35.62.51a7.35,7.35,0,0,0,3.88,1.51c5.91.53,12.37-5.48,18.58-4,3,.71,5.23,3,7.52,5.16.67.64,1.35,1.27,2.05,1.85a11.24,11.24,0,0,0,4.63,2.43c1.79.39,5.3-1.62,8.52-3.67,2.41-1.55,4.66-3.12,5.9-3.72C193.75,237.13,194.71,236.64,195.69,236.19Z" style="fill:#fff"></path></g><path d="M195.69,249l4.51.15v9.51l-4.51-.14-4.44-.15q-3.56,0-6.91.12l-2.23.06c-3.27.09-6.4.2-9.41.34q-1,0-2.07.09l-2,.1-1.52.08-2.37.14-2.17.14-2.11.15-1.38.1-1.09.08c-1.8.14-3.54.29-5.22.44l-1.49.14c-.5.05-1,.09-1.47.15l-2.42.25-.75.08-1,.11-2.22.27-.86.11-.8.09-.62.08-.27,0-.82.11-.72.1h0l-1.64.23-.41.06-1.77.26-3.64.6-1.32.23-1.21.22-1.18.22-1.06.21-1.49.3-.59.13c-2.54.54-4.7,1.07-6.53,1.57l-.82.22-1.4.41-1,.31c-.25.08-.49.15-.72.24s-.39.12-.57.19-.55.18-.8.27l-.67.24h0l-.54-.28-.41-.22-.45-.26-.42-.27-.38-.27-.35-.27-.32-.28-.3-.29c-.11-.12-.22-.24-.31-.36s-.12-.15-.17-.23a2.49,2.49,0,0,1-.19-.3,3.45,3.45,0,0,1-.29-.62,2.8,2.8,0,0,1-.09-.31c0-.1,0-.21,0-.31a3.17,3.17,0,0,1,.1-1.25l.08-.23c0-.12.1-.26.15-.38l.08-.17.22-.4a8.7,8.7,0,0,1,1.48-1.76s.23-.13.74-.35c.11-.06.25-.11.39-.17.49-.21,1.16-.47,2-.77h0l.36-.13.39-.13c.52-.18,1.11-.37,1.75-.57l1-.3.77-.23c.67-.19,1.4-.39,2.19-.59l.67-.17,1.28-.32,2.43-.56,1.68-.36h0l1.13-.23c1.57-.32,3.26-.63,5.09-.94l1-.18c1.27-.21,2.62-.41,4-.62l.94-.14,1.35-.19,1.59-.22.62-.08c1.25-.16,2.55-.32,3.88-.47l.23,0,1.36-.15,5-.51h0l1-.09,1.4-.13,1.26-.11,1.23-.1,2.66-.21c2.49-.18,5.11-.35,7.84-.5l3.44-.18,2.52-.11,1.29-.06,2-.07,1.92-.07,2.48-.08c2.37-.07,4.82-.13,7.34-.16l2.91-.05,1.16,0Z" style="fill:#407BFF"></path><path d="M195.69,249l4.51.15v9.51l-4.51-.14-4.44-.15q-3.56,0-6.91.12l-2.23.06c-3.27.09-6.4.2-9.41.34q-1,0-2.07.09l-2,.1-1.52.08-2.37.14-2.17.14-2.11.15-1.38.1-1.09.08c-1.8.14-3.54.29-5.22.44l-1.49.14c-.5.05-1,.09-1.47.15l-2.42.25-.75.08-1,.11-2.22.27-.86.11-.8.09-.62.08-.27,0-.82.11-.72.1h0l-1.64.23-.41.06-1.77.26-3.64.6-1.32.23-1.21.22-1.18.22-1.06.21-1.49.3-.59.13c-2.54.54-4.7,1.07-6.53,1.57l-.82.22-1.4.41-1,.31c-.25.08-.49.15-.72.24s-.39.12-.57.19-.55.18-.8.27l-.67.24h0l-.54-.28-.41-.22-.45-.26-.42-.27-.38-.27-.35-.27-.32-.28-.3-.29c-.11-.12-.22-.24-.31-.36s-.12-.15-.17-.23a2.49,2.49,0,0,1-.19-.3,3.45,3.45,0,0,1-.29-.62,2.8,2.8,0,0,1-.09-.31c0-.1,0-.21,0-.31a3.17,3.17,0,0,1,.1-1.25l.08-.23c0-.12.1-.26.15-.38l.08-.17.22-.4a8.7,8.7,0,0,1,1.48-1.76s.23-.13.74-.35c.11-.06.25-.11.39-.17.49-.21,1.16-.47,2-.77h0l.36-.13.39-.13c.52-.18,1.11-.37,1.75-.57l1-.3.77-.23c.67-.19,1.4-.39,2.19-.59l.67-.17,1.28-.32,2.43-.56,1.68-.36h0l1.13-.23c1.57-.32,3.26-.63,5.09-.94l1-.18c1.27-.21,2.62-.41,4-.62l.94-.14,1.35-.19,1.59-.22.62-.08c1.25-.16,2.55-.32,3.88-.47l.23,0,1.36-.15,5-.51h0l1-.09,1.4-.13,1.26-.11,1.23-.1,2.66-.21c2.49-.18,5.11-.35,7.84-.5l3.44-.18,2.52-.11,1.29-.06,2-.07,1.92-.07,2.48-.08c2.37-.07,4.82-.13,7.34-.16l2.91-.05,1.16,0Z" style="opacity:0.4"></path><path d="M200.2,275.49v-4.56a40.75,40.75,0,0,0-4.51-1.19c-1.4-.29-2.95-.54-4.67-.76-9.58-1.18-26.91-3.64-45.43-6.35l-3.88-.57-.62-.09-1.81-.27h0l-2-.3c-8.08-1.19-16.18-2.4-23.8-3.54h0l-26.29-4c-1.61-.25-3.11-.48-4.5-.68V275.4h4.5l50.1.06h8.38l50.1.06h4.51Z" style="fill:#407BFF"></path><g style="opacity:0.2"><path d="M200.2,275.49v-4.56a40.75,40.75,0,0,0-4.51-1.19c-1.4-.29-2.95-.54-4.67-.76-9.58-1.18-26.91-3.64-45.43-6.35l-3.88-.57-.62-.09-1.81-.27h0l-2-.3c-8.08-1.19-16.18-2.4-23.8-3.54h0l-26.29-4c-1.61-.25-3.11-.48-4.5-.68V275.4h4.5l50.1.06h8.38l50.1.06h4.51Z" style="fill:#fff"></path></g><path d="M200.2,229.25v25c-1.31.16-2.8.29-4.51.36-.74,0-1.52,0-2.34,0-2.84,0-6.18-.1-10.11-.45h-.09c-4.18-.36-9-1-14.65-1.91l-.18,0c-3-.51-6.28-1.11-9.77-1.82,0,0,.44-.11,1.24-.37a50.21,50.21,0,0,0,14-7.54,59,59,0,0,0,11.82-11.91,18.23,18.23,0,0,1,2-2.26l.15-.14c.22-.2.45-.39.67-.57a7.11,7.11,0,0,1,1-.69l0,0h0a6.84,6.84,0,0,1,6.34-.75A12.76,12.76,0,0,1,200.2,229.25Z" style="fill:#407BFF"></path><path d="M183.15,254.24h0a19.81,19.81,0,0,0,8.29-11.42l.44-1.62,1.48,13.57S187.48,254.76,183.15,254.24Z" style="fill:#fafafa;opacity:0.2"></path><path d="M188.19,238.59c-4.34,9.76-9.48,15.22-19.69,13.74l-.18,0c-3-.51-6.28-1.11-9.77-1.82,0,0,.44-.11,1.24-.37a50.21,50.21,0,0,0,14-7.54,59,59,0,0,0,11.82-11.91,18.23,18.23,0,0,1,2-2.26l.15-.14c.22-.2.45-.39.67-.57a5.54,5.54,0,0,1,.68-.47l.27-.22,0,0h0c-.17.26-2,3.16,1.11,2.85C191.77,229.7,190.34,233.75,188.19,238.59Z" style="fill:#fafafa;opacity:0.2"></path><path d="M156.86,171.93a16.2,16.2,0,1,1-19.67-20.55,14.93,14.93,0,1,0,19.67,20.55Z" style="fill:#fff"></path><g style="opacity:0.5"><path d="M156.86,171.93a16.2,16.2,0,1,1-19.67-20.55,14.93,14.93,0,1,0,19.67,20.55Z" style="fill:#fff"></path></g><polygon points="100.69 164.29 104.03 166.12 100.69 167.95 98.86 171.29 97.03 167.95 93.69 166.12 97.03 164.29 98.86 160.95 100.69 164.29" style="fill:#f0f0f0"></polygon><polygon points="113.34 159.7 115 160.61 113.34 161.53 112.42 163.19 111.51 161.53 109.84 160.61 111.51 159.7 112.42 158.03 113.34 159.7" style="fill:#ebebeb"></polygon><polygon points="191.9 186.68 193.97 187.82 191.9 188.95 190.76 191.03 189.63 188.95 187.55 187.82 189.63 186.68 190.76 184.61 191.9 186.68" style="fill:#f0f0f0"></polygon><polygon points="163.48 143.59 165.56 144.72 163.48 145.86 162.35 147.93 161.21 145.86 159.14 144.72 161.21 143.59 162.35 141.51 163.48 143.59" style="fill:#f0f0f0"></polygon></g><g id="freepik--character-1--inject-243"><path d="M163.07,313l-3.1-1.07.32,4.85a9.24,9.24,0,0,0,3.07,1.43,2,2,0,0,0,2.26-2.61h0A4.26,4.26,0,0,0,163.07,313Z" style="fill:#cb7a63"></path><path d="M156.31,313.65l.33,1.76a1.25,1.25,0,0,0,1.08,1l2.59.33-.32-4.85-2.57.28a1.25,1.25,0,0,0-1.13,1.35S156.3,313.62,156.31,313.65Z" style="fill:#cb7a63"></path><path d="M196.63,320.55c-4.25,2.63-7.2,5.69-12.65,5.31-6.42-.46-15-4.45-20.14-7.63l1.38-2.56c2.44.28,17.48,5.76,29.21-4.43,2.18-1.9,10.74-9.67,14-9.84,5.3-.27,5.38,5.31,3.34,7.84C209.38,312.19,200.11,318.4,196.63,320.55Z" style="fill:#cb7a63"></path><g style="opacity:0.2;isolation:isolate"><path d="M156.63,315.41a1.26,1.26,0,0,0,1.09,1l2.57.33h0a9.24,9.24,0,0,0,3.07,1.43,1.53,1.53,0,0,0,.47,0h0c5.14,3.18,13.72,7.17,20.14,7.62,5.45.38,8.41-2.68,12.65-5.31,3.48-2.15,12.75-8.37,15.15-11.31,2-2.53,2-8.11-3.34-7.84-3.27.18-11.83,7.94-14,9.84-11.19,9.71-24.89,5.42-28.76,4.52a.84.84,0,0,0,0-.17,4.21,4.21,0,0,0-1-1.59,4.45,4.45,0,0,0-1.56-1L160,311.93h0l-2.55.28a1.23,1.23,0,0,0-1.12,1.35.38.38,0,0,0,0,.1Z"></path><polygon points="159.97 311.92 160 311.93 160 311.91 159.97 311.92"></polygon></g><path d="M149.59,316.77h6.69a1.26,1.26,0,0,0,1.27-1.36l-1.12-16a1.49,1.49,0,0,0-1.46-1.37h-6.69a1.26,1.26,0,0,0-1.27,1.37l1.12,16A1.49,1.49,0,0,0,149.59,316.77Z" style="fill:#407BFF"></path><path d="M149.94,316.77h6.69a1.26,1.26,0,0,0,1.27-1.36l-1.12-16a1.49,1.49,0,0,0-1.46-1.37h-6.69a1.26,1.26,0,0,0-1.27,1.37l1.12,16A1.49,1.49,0,0,0,149.94,316.77Z" style="fill:#263238"></path><path d="M148.65,298.37h1.74a.25.25,0,0,1,.24.19v.06a.6.6,0,0,0,.58.48h1.65a.52.52,0,0,0,.52-.48v-.06a.21.21,0,0,1,.21-.19h1.74a1.14,1.14,0,0,1,1.12,1.05l1.12,16a1,1,0,0,1-1,1h-6.69a1.15,1.15,0,0,1-1.13-1l-1.12-16A1,1,0,0,1,148.65,298.37Z" style="fill:#407BFF"></path><path d="M147.68,299.42l0,.32,1.09,15.67a1.15,1.15,0,0,0,1.13,1h6.69a1,1,0,0,0,1-1l-1.09-15.67,0-.32a1.14,1.14,0,0,0-1.12-1.05H153.6a.21.21,0,0,0-.21.19v.06a.52.52,0,0,1-.52.48h-1.65a.6.6,0,0,1-.58-.48v-.06a.25.25,0,0,0-.24-.19h-1.74A1,1,0,0,0,147.68,299.42Z" style="fill:#fff;opacity:0.8"></path><path d="M147.7,299.78l1.09,15.67a1.15,1.15,0,0,0,1.13,1.05h6.69a1,1,0,0,0,1-1.05l-1.09-15.67Z" style="opacity:0.7000000000000001"></path><g style="opacity:0.7000000000000001"><path d="M152.41,298.54a.15.15,0,0,0,.15.14.13.13,0,0,0,.12-.14.15.15,0,0,0-.14-.13A.13.13,0,0,0,152.41,298.54Z"></path><path d="M151.46,298.41h.46a.15.15,0,0,1,.14.13.13.13,0,0,1-.12.14h-.46a.14.14,0,0,1-.14-.14A.12.12,0,0,1,151.46,298.41Z"></path></g><polygon points="155.71 299.1 155.57 299.1 155.56 298.96 155.7 298.96 155.71 299.1" style="fill:#407BFF"></polygon><polygon points="155.42 298.96 155.43 299.1 155.29 299.1 155.28 298.96 155.27 298.82 155.41 298.82 155.42 298.96" style="fill:#407BFF"></polygon><polygon points="155.12 298.68 155.13 298.82 155.14 298.96 155.15 299.1 155.01 299.1 155 298.96 154.99 298.82 154.98 298.68 155.12 298.68" style="fill:#407BFF"></polygon><path d="M148.45,298.69l0,.41h.62V299h.07v-.2h-.07v-.1Zm.36.1h.2l0,.2h-.21Z" style="fill:#407BFF"></path><path d="M148.68,298.36h6.69a1.14,1.14,0,0,1,1.12,1.05l1.12,16Z" style="fill:#fff;opacity:0.2"></path><g id="freepik--group--inject-243"><polygon points="113.19 366.28 107.54 361.6 121.77 348.1 127.84 353.28 113.19 366.28" style="fill:#bc6e5c"></polygon><path d="M108.47,361.49l5.88,2.88a.63.63,0,0,1,.33.75l-1.07,7.1a1.25,1.25,0,0,1-1.6.76l-.12-.05a134,134,0,0,1-17.14-8c-3.61-2-1.58-4.53-.23-4.21,6.06,1.45,9.72,1.2,12.34.52C108.25,361.05,108,361.27,108.47,361.49Z" style="fill:#bc6e5c"></path><polygon points="121.77 348.11 114.56 354.49 120.64 359.67 127.84 353.29 121.77 348.11" style="opacity:0.2;isolation:isolate"></polygon><polygon points="124.01 359.62 114.95 351.27 116.94 347.76 127.42 356.76 124.01 359.62" style="fill:#407BFF"></polygon><polygon points="124.01 359.62 114.95 351.27 116.94 347.76 127.42 356.76 124.01 359.62" style="fill:#fff;opacity:0.5"></polygon><path d="M118.37,349l1.21,1.05,1.82,1.56,1.08.92,3.16,2.71.61.52s12.91-7.27,20.09-13.48c4.92-4.26,5.36-5.84,5.88-5.45,6.95,5.28,27.49,23.53,39.14,33,.37,0,.75.08,1.13.1,6.22.46,11.12-.22,14.91-1.67,0-5-4.28-16.84-4.64-18,0,0-17.18-17.08-45-31.51a8.93,8.93,0,0,0-.84-.37c-.36-.16-.72-.31-1.09-.44a13.83,13.83,0,0,0-4.27-1,9.43,9.43,0,0,0-3.61.57,13.79,13.79,0,0,0-1.93.85c-.55.28-1.09.6-1.62.94-.86.55-1.69,1.15-2.48,1.76-1.77,1.37-15.22,18.7-22.45,26.69h0Z" style="fill:#407BFF"></path><g style="opacity:0.2"><path d="M118.37,349l1.21,1.05,1.82,1.56,1.08.92,3.16,2.71.61.52s12.91-7.27,20.09-13.48c4.92-4.26,5.36-5.84,5.88-5.45,6.95,5.28,27.49,23.53,39.14,33,.37,0,.75.08,1.13.1,6.22.46,11.12-.22,14.91-1.67,0-5-4.28-16.84-4.64-18,0,0-17.18-17.08-45-31.51a8.93,8.93,0,0,0-.84-.37c-.36-.16-.72-.31-1.09-.44a13.83,13.83,0,0,0-4.27-1,9.43,9.43,0,0,0-3.61.57,13.79,13.79,0,0,0-1.93.85c-.55.28-1.09.6-1.62.94-.86.55-1.69,1.15-2.48,1.76-1.77,1.37-15.22,18.7-22.45,26.69h0Z"></path></g><path d="M210.05,276.08c-1.09,4.93-2.23,12.12,1.16,15.51a109.8,109.8,0,0,1-15,20.5c-7.41-12.89-.38-20.86-.38-20.86,5.56-1.19,5.47-3.43,4.6-7.29Z" style="fill:#cb7a63"></path><path d="M214.64,292.22a6.22,6.22,0,0,0-2.4-3.29c-1.12-.85-12.64-1-15.63,0a7.56,7.56,0,0,0-4.19,3.3Z" style="fill:#407BFF"></path><path d="M214.64,292.22a6.22,6.22,0,0,0-2.4-3.29c-1.12-.85-12.64-1-15.63,0a7.56,7.56,0,0,0-4.19,3.3Z" style="fill:#fff;opacity:0.5"></path><path d="M182.73,300.17c-6.73,14.81,8.86,19,1.72,43.32l33.87.81c-.22-13-4.85-10.21,1.25-34.68a23.65,23.65,0,0,0-.83-13.43,9.91,9.91,0,0,0-4.4-5c-2.5-1.35-13.51-.29-18.54.05C190.35,290.49,183.72,298.32,182.73,300.17Z" style="fill:#407BFF"></path><path d="M189.2,270.79c.1.65-.17,1.18-.57,1.24s-.82-.4-.91-1,.17-1.18.57-1.23S189.11,270.18,189.2,270.79Z" style="fill:#263238"></path><path d="M188.48,269.78l-1.55-.21S187.86,270.63,188.48,269.78Z" style="fill:#263238"></path><path d="M189.09,271.65a16.38,16.38,0,0,1-1.64,4.28,2.69,2.69,0,0,0,2.28.09Z" style="fill:#a02724"></path><path d="M187,266.44a.38.38,0,0,1-.23-.29.37.37,0,0,1,.31-.42,3.66,3.66,0,0,1,3.21,1,.39.39,0,0,1,0,.53.38.38,0,0,1-.53,0l-.05-.06a2.94,2.94,0,0,0-2.55-.77A.25.25,0,0,1,187,266.44Z" style="fill:#263238"></path><path d="M209.7,265.67c.64,7.71,1.08,11-2.21,15.45-5,6.75-14.58,5.86-17.5-1.51-2.65-6.64-3.25-18.14,3.79-22.27A10.57,10.57,0,0,1,208.25,261,10.74,10.74,0,0,1,209.7,265.67Z" style="fill:#cb7a63"></path><path d="M190.21,280.14a4.22,4.22,0,0,0,1.28-1.89.16.16,0,0,0-.11-.19.15.15,0,0,0-.19.1,4.28,4.28,0,0,1-1.1,1.66Z" style="fill:#263238"></path><path d="M203.73,253.33a11.63,11.63,0,0,0-13.13,1.2,9.3,9.3,0,0,0-3.36,7.31c.22,3.84,3.21,6.9,6.23,9.26,2.29,1.78,4.8,3.48,6.61,5.7a3.84,3.84,0,0,1-.83,5.67l0,0c-1.23.77-2.61,1.26-3.8,2.09a4.33,4.33,0,0,0-2.12,3.57c.08,1.44,1.71,2.75,3,2.09a2.7,2.7,0,0,1,.33-3,3,3,0,0,1,3.13-.75,2.43,2.43,0,0,0-2,2.76,3.79,3.79,0,0,0,2.5,2.44,15.4,15.4,0,0,0,3.59.6,7.09,7.09,0,0,1,3.43,1.09,3,3,0,0,1,1.27,3.16c1.43-.7,2-2.33,2.33-3.89s-.08-2.27-1.1-3.5c3.52-.16,7.49,5.45,7.49,5.45a8.2,8.2,0,0,0,4.18-5.5,8.48,8.48,0,0,0,.1-2.8c-.64-5.92-2.83-6.71-5-9.62.58-3.26,2.23-8.12,1.89-11.42a15.59,15.59,0,0,0-3.78-9C212.38,253.82,207,252.7,203.73,253.33Z" style="fill:#263238"></path><path d="M199.69,270.93a6.68,6.68,0,0,1-1.75,4.85c-1.61,1.74-3.65.6-4.24-1.57-.53-1.94-.33-5.2,1.78-6.13A3,3,0,0,1,199.69,270.93Z" style="fill:#cb7a63"></path><polygon points="109.93 369.83 103.82 363.88 115.65 349.01 123.04 353.37 109.93 369.83" style="fill:#cb7a63"></polygon><polygon points="116.27 348.1 110.7 355.22 118.24 359.42 123.89 352.48 116.27 348.1" style="opacity:0.2;isolation:isolate"></polygon><path d="M218.43,341.71l.49,3c.11.24-.18.47-.56.46l-34.19-.75c-.31,0-.56-.16-.57-.36l.87-3.22c0-.2.25-.38.59-.37l32.81,1A.62.62,0,0,1,218.43,341.71Z" style="fill:#407BFF"></path><path d="M218.43,341.71l.49,3c.11.24-.18.47-.56.46l-34.19-.75c-.31,0-.56-.16-.57-.36l.87-3.22c0-.2.25-.38.59-.37l32.81,1A.62.62,0,0,1,218.43,341.71Z" style="fill:#fff;opacity:0.5"></path><path d="M111.59,351.29l1.55.87h0l2.66,1.5,2.38,1.34h0l2.44,1.38h0l.94.53.59-.43.5-.36c.58-.44,1.39-1.05,2.34-1.8h0c4.92-3.89,13.68-11.53,16.29-18.49,1.68,2,3.7,4.53,6,7.32,9.95,12,27.42,29,46,31.16.38.05.76.08,1.14.11,6.21.54,11.11-.08,14.92-1.48a18.17,18.17,0,0,0,12.28-19.22v0C221.59,350.32,219,345,219,345l-35.83-.63a105.31,105.31,0,0,0-25.08-21.41c-.24-.15-.48-.29-.73-.42s-.61-.34-.91-.51a40.53,40.53,0,0,0-9.75-4c-.7-.17-1.39-.31-2.07-.41a16.94,16.94,0,0,0-2.11-.21h0a12.23,12.23,0,0,0-11.84,6.38l-18.52,26.72Z" style="fill:#407BFF"></path><path d="M197.32,300.89s1.84,3.73-3.45,13.58l-2.2,4h0c-.73,1.33-5.57-1.37-7-3.85h0S193.91,309.07,197.32,300.89Z" style="opacity:0.2"></path><path d="M152.69,312.36l-3.81-.5,1.48,5.53s5.6,2.59,6.85-.93l-1-1.7A4.94,4.94,0,0,0,152.69,312.36Z" style="fill:#cb7a63"></path><path d="M145.06,314.73l.78,1.95a1.46,1.46,0,0,0,1.48.94l3.06-.24-1.47-5.53-2.9.94a1.47,1.47,0,0,0-1,1.82S145.05,314.69,145.06,314.73Z" style="fill:#cb7a63"></path><path d="M186.1,318.56c-2.32,3.65-5.72,6.8-9.9,7.92-4.92,1.32-15.2-4.68-20-8.93l-.85-3.91a135.06,135.06,0,0,0,18.63,4.6c3.06.49,3.79-2.38,6.11-7.05,1.16-2.33,4.77-11.81,6.23-14,2.34-3.47,9.82-1.62,7.46,6.49C192.76,307.12,188,315.57,186.1,318.56Z" style="fill:#cb7a63"></path><path d="M185.94,295.33c-5.2,4.78-7.74,13.23-7.74,13.23L190.36,316s8.89-12.47,7.3-16.81c-1.25-3.38-3.57-5.59-6.62-5.78A7,7,0,0,0,185.94,295.33Z" style="fill:#407BFF"></path><polygon points="123.06 358.6 111.22 352.68 112.23 348.47 125.73 354.63 123.06 358.6" style="fill:#407BFF"></polygon><polygon points="123.06 358.6 111.22 352.68 112.23 348.47 125.73 354.63 123.06 358.6" style="fill:#fff;opacity:0.5"></polygon><polygon points="188.69 315.09 177.06 308.75 178.22 304.58 191.49 311.22 188.69 315.09" style="fill:#407BFF"></polygon><polygon points="191.02 316.67 177.06 308.75 178.22 304.58 193.83 312.8 191.02 316.67" style="fill:#fff;opacity:0.5"></polygon><path d="M104.3,363.23l8.16,2.47a.68.68,0,0,1,.49.73l-1,7.41a1.35,1.35,0,0,1-1.55,1.1l-.14,0c-13.64-2.27-18.14-4.77-19.61-5.27-4.19-1.41-2.52-4.5-1-4.42,6.68.42,9.78,0,12.43-1.2C103.49,363.52,103.8,363.08,104.3,363.23Z" style="fill:#cb7a63"></path></g><path d="M240.83,385.71l-.92,10.55H57.37l1.35-15.43a8.16,8.16,0,0,1,8-7.32h163A11.21,11.21,0,0,1,240.83,385.71Z" style="fill:#407BFF"></path><g style="opacity:0.4"><path d="M240.83,385.71l-.92,10.55H57.37l1.35-15.43a8.16,8.16,0,0,1,8-7.32h163A11.21,11.21,0,0,1,240.83,385.71Z" style="fill:#fff"></path></g><path d="M246.59,400.44a4.53,4.53,0,0,1-4.53,4.54H49a4.54,4.54,0,0,1,0-9.07H242.06a4.54,4.54,0,0,1,4.53,4.53Z" style="fill:#407BFF"></path><path d="M246.59,400.44a4.53,4.53,0,0,1-4.53,4.54H49a4.54,4.54,0,0,1,0-9.07H242.06a4.54,4.54,0,0,1,4.53,4.53Z" style="opacity:0.6000000000000001"></path><polygon points="239.52 404.98 237.23 412.76 232.66 412.76 230.14 404.98 239.52 404.98" style="fill:#263238"></polygon><polygon points="64.56 404.98 62.28 412.76 57.7 412.76 55.19 404.98 64.56 404.98" style="fill:#263238"></polygon><path d="M218.87,373.77c-2.81.35-5.38-2-6.26-4.7s-.49-5.61-.08-8.42q4-27.67,8-55.37c.88-6.08,1.89-12.47,5.68-17.32a8.91,8.91,0,0,1,1.67-1.63c6.84-5.14,16.54.83,15.54,9.33l-8.16,69.71s1.42,9.72-16.42,8.4" style="fill:#407BFF"></path><path d="M218.87,373.77c-2.81.35-5.38-2-6.26-4.7s-.49-5.61-.08-8.42q4-27.67,8-55.37c.88-6.08,1.89-12.47,5.68-17.32a8.91,8.91,0,0,1,1.67-1.63c6.84-5.14,16.54.83,15.54,9.33l-8.16,69.71s1.42,9.72-16.42,8.4" style="fill:#fff;opacity:0.6000000000000001"></path></g><g id="freepik--Wall--inject-243"><rect x="243.98" y="72.35" width="12.03" height="340.42"></rect><rect x="243.98" y="72.35" width="12.03" height="340.42" style="fill:#fff;opacity:0.7000000000000001"></rect></g></svg>