<svg xmlns="http://www.w3.org/2000/svg" viewBox="0 0 500 500"><g id="freepik--background-complete--inject-35"><path d="M60.67,373.42a33.64,33.64,0,0,0-14.4-4.95c-2.35-.25-4.92-.18-6.81,1.25a1.4,1.4,0,0,0-.7,1.24,1.51,1.51,0,0,0,.67.85c5.86,4.47,14.71,5,21.24,1.61" style="fill:#e0e0e0"></path><path d="M60.3,373a69.64,69.64,0,0,1-9.3-8.18,23.54,23.54,0,0,1-5.83-10.78,4.35,4.35,0,0,1,.46-3.61C53,356.23,58.87,363.72,60.3,373" style="fill:#e0e0e0"></path><path d="M60.59,373.36a33.56,33.56,0,0,1,.17-12.2,16.5,16.5,0,0,1,6.51-10.08c1.28,3,.73,6.45-.18,9.57a46.55,46.55,0,0,1-6.44,13.58" style="fill:#e0e0e0"></path><path d="M67.86,386.38c-4.41.54-8.26,2.86-11.55,5.84a21.92,21.92,0,0,0-6.6,11.34c4.32-.27,8-3.32,10.66-6.74s4.5-7.17,7.43-10.37" style="fill:#e0e0e0"></path><path d="M69.43,388.46a28.48,28.48,0,0,1,3.29-26.93c2.51,8.94,1.59,19-3.29,26.93" style="fill:#e0e0e0"></path><path d="M79,399.89a20.6,20.6,0,0,0-19.68,11.34,1.52,1.52,0,0,0-.14,1.54,1.48,1.48,0,0,0,1.31.38c3.88-.25,7.32-2.58,10.16-5.24s5.3-5.73,8.44-8" style="fill:#e0e0e0"></path><path d="M78.73,399.27a36.58,36.58,0,0,1-.37-20.48c.72-2.64,1.93-5.41,4.37-6.65a.85.85,0,0,1,.67-.11.82.82,0,0,1,.42.49,12.26,12.26,0,0,1,1,5.87,36.43,36.43,0,0,1-.92,5.95c-.76,3.63-1.17,7.54-3.17,10.68a21.09,21.09,0,0,0-1.26,2.34c-.38.8-.39,1.08-.73,1.71" style="fill:#e0e0e0"></path><path d="M104.14,403.06c-1.89-7.16.11-15.84,4.62-21.71.34-.44.78-.9,1.32-.85.83.08,1,1.18,1,2a39.3,39.3,0,0,1-7,20.54" style="fill:#e0e0e0"></path><path d="M106.43,404.62a31.52,31.52,0,0,0,25.91-5.27,21,21,0,0,0-14-1.72c-4.68,1.07-9,3.17-11.88,7" style="fill:#e0e0e0"></path><path d="M108.36,399.86c4.87-7.95,14.21-13.13,23.52-13.61-1.07,3.79-4.18,6.73-7.69,8.51s-7.43,2.55-11.29,3.3c-1.51.29-3.57.62-4.54,1.8" style="fill:#e0e0e0"></path><path d="M104.62,376.72a68.11,68.11,0,0,0,3-13.78c.36-4.69-.31-9.59-2.74-13.62-4.56,8.81-5,19.1-.41,27.87" style="fill:#e0e0e0"></path><path d="M119.94,369c5.33-9.67,16.19-17.4,27.17-18.48-4.23,10.56-15.79,18.71-27.17,18.48" style="fill:#e0e0e0"></path><path d="M116.6,370.87c7.93,1.21,14.7,6.28,22.11,9.35a10,10,0,0,0,5,1,3.91,3.91,0,0,0,2.45-6.92,10.75,10.75,0,0,0-3.64-2.21c-8.08-3.36-16.74-3.45-25.25-1.41" style="fill:#e0e0e0"></path><path d="M112,376.44c1.8.51,2.41,1.44,3.84,2.65a41.25,41.25,0,0,0,16.77,8.62c.64.16,1.48.22,1.8-.36s-.08-1.11-.44-1.56a23,23,0,0,0-10.12-6.88c-3.87-1.44-7.23-3.18-11.85-2.81" style="fill:#e0e0e0"></path><path d="M106.82,342.81a31.72,31.72,0,0,0,24.34,8.28,1.63,1.63,0,0,0,1.1-.4c.62-.66-.12-1.69-.83-2.25-7.16-5.58-15.82-7.89-24.61-5.63" style="fill:#e0e0e0"></path><path d="M113,340.56a34,34,0,0,1,30.37-5,24.12,24.12,0,0,1-14.47,6.36,45.88,45.88,0,0,1-15.9-1.35" style="fill:#e0e0e0"></path><path d="M110.52,325.11c-.7-7.14-.24-12.78-.74-19.95,0-.58-.16-1.27-.7-1.47-.75-.29-1.37.63-1.61,1.39a22.85,22.85,0,0,0,3,19.87" style="fill:#e0e0e0"></path><path d="M110,325.9a41.92,41.92,0,0,0,11.83-11.5c2.33-3.19,4.3-7,3.77-10.95a11.34,11.34,0,0,0-8.53,4.24,23.9,23.9,0,0,0-4.35,8.75c-1,3.14-1.61,6.37-2.72,9.46" style="fill:#e0e0e0"></path><path d="M121.63,322.67a95.22,95.22,0,0,0,29.11-17.17c-3.47-1.4-7.45-.56-10.93.85a34.47,34.47,0,0,0-18.33,16.24" style="fill:#e0e0e0"></path><path d="M113.28,329.81c5.37.58,10.83,1,16.16.08s10.2-3,15.09-5a1.75,1.75,0,0,0,1-.78,1.18,1.18,0,0,0-.37-1.29,3.07,3.07,0,0,0-1.29-.6c-5.32-1.49-11.07-.79-16.3,1a75.66,75.66,0,0,0-14.32,6.64" style="fill:#e0e0e0"></path><path d="M82.59,343.06c-3.67-7.41-3.43-16-.26-23.67,2.23,3.4,2.5,7.72,2.09,11.77s-1.64,8.2-1.72,12.26" style="fill:#e0e0e0"></path><path d="M67.94,335.67a33,33,0,0,0-24.53,10.45,22.89,22.89,0,0,0,13.43-2.49,68,68,0,0,0,11.51-7.71" style="fill:#e0e0e0"></path><path d="M58.09,332.37c-4.48-.36-8.79-.91-13.09.41a15.67,15.67,0,0,0-10,8.46,23.66,23.66,0,0,0,12.27-2.32,70.47,70.47,0,0,0,10.8-6.55" style="fill:#e0e0e0"></path><path d="M72.67,332.53c-4-2.64-8.16-5.33-12.85-6.43s-10.13-.28-13.4,3.25c3.79,2.23,8.4,2.5,12.81,2.49s9.8,0,14,1.42" style="fill:#e0e0e0"></path><path d="M72.7,332.74C65.81,326,63.2,313.82,66,304.58a42.92,42.92,0,0,1,6.73,28.16" style="fill:#e0e0e0"></path><path d="M91.64,313.57c1.3-3,2.21-6.18,3.38-9.26a26.58,26.58,0,0,1,4.81-8.54,12.67,12.67,0,0,1,8.53-4.42,34.31,34.31,0,0,1-16.55,22.27" style="fill:#e0e0e0"></path><path d="M88.21,317.57c-2.15-3-4.63-7-7.55-9.19s-6.71-3.54-10.27-2.69a23.94,23.94,0,0,0,17.82,11.88" style="fill:#e0e0e0"></path><path d="M88.9,313.82a51.1,51.1,0,0,1-3.4-11,17.14,17.14,0,0,1,1.72-11.19c3.78,7.14,5,14.82,1.87,22.27" style="fill:#e0e0e0"></path><path d="M91.67,291.63c2.14-7.09,8.63-12.3,15.64-14.7a5.86,5.86,0,0,1,2.74-.41,2.38,2.38,0,0,1,2,1.69c.25,1.2-.74,2.28-1.68,3.08a53.11,53.11,0,0,1-18.72,10.34" style="fill:#e0e0e0"></path><path d="M91.75,285.83c.27-4.57.56-9.2,2-13.53s4.35-8.39,8.52-10.28c.71,4.61-1.33,9.2-3.78,13.17s-5.42,7.72-6.89,12.15" style="fill:#e0e0e0"></path><path d="M91.64,289c-1.77-5.17-2-11.72-5-16.22-2.16-3.15-5.62-5.29-7.48-8.62a13.11,13.11,0,0,0,.43,9.78,28.32,28.32,0,0,0,5.72,8.19c2.29,2.44,4.25,4.28,6.38,6.87" style="fill:#e0e0e0"></path><path d="M91.67,441c-.14,0-.25-34.45-.26-76.93s.09-76.93.23-76.93.25,34.44.26,76.93S91.81,441,91.67,441Z" style="fill:#e0e0e0"></path><path d="M121.77,337.86a7.83,7.83,0,0,1-1.29.48l-3.57,1.21c-3,1-7.13,2.5-11.61,4.34s-8.62,3.45-11,5.51a8,8,0,0,0-2.21,2.93c-.35.81-.41,1.3-.45,1.29s0-.12,0-.36a5.72,5.72,0,0,1,.25-1,7.92,7.92,0,0,1,2.16-3.12,19.7,19.7,0,0,1,4.78-3c1.91-.89,4-1.82,6.27-2.74,4.5-1.84,8.66-3.28,11.7-4.22,1.51-.47,2.75-.82,3.61-1A7.08,7.08,0,0,1,121.77,337.86Z" style="fill:#e0e0e0"></path><path d="M131.64,313.62s-.11.15-.36.39l-1.11,1-4.12,3.75L112.31,331c-5.36,4.77-10,9.33-13.2,12.76-1.61,1.72-2.88,3.14-3.74,4.13l-1,1.14a2.33,2.33,0,0,1-.37.38s.09-.17.29-.45.51-.69.93-1.2c.82-1,2-2.49,3.63-4.24A176,176,0,0,1,112,330.65c5.38-4.76,10.28-9,13.83-12.12,1.75-1.49,3.18-2.72,4.23-3.63l1.17-1A2.74,2.74,0,0,1,131.64,313.62Z" style="fill:#e0e0e0"></path><path d="M106.52,335.88c-.14-.06,1-2.65,2.1-5.92s1.66-6,1.8-6a20.22,20.22,0,0,1-1.33,6.17,39.4,39.4,0,0,1-1.67,4.14A6.17,6.17,0,0,1,106.52,335.88Z" style="fill:#e0e0e0"></path><path d="M91.7,356.73a7.18,7.18,0,0,1-.82-1l-2.12-2.72c-1.78-2.29-4.23-5.47-7-8.94s-5.29-6.58-7.12-8.84l-2.16-2.67a6,6,0,0,1-.75-1,5.22,5.22,0,0,1,.89.89c.55.6,1.34,1.48,2.29,2.58,1.9,2.2,4.48,5.28,7.24,8.75s5.18,6.69,6.88,9c.86,1.18,1.54,2.14,2,2.81A6,6,0,0,1,91.7,356.73Z" style="fill:#e0e0e0"></path><path d="M85.1,348.25a12.1,12.1,0,0,1-2.76-5.17,14.93,14.93,0,0,1-.63-5.22l.22,0c-.1.4-.17.61-.21.6s0-.23,0-.64l.22,0a23.42,23.42,0,0,0,.89,5.08A39.79,39.79,0,0,0,85.1,348.25Z" style="fill:#e0e0e0"></path><path d="M76.58,337.54a8.33,8.33,0,0,0-1.93-1.13,13,13,0,0,0-5.36-.42,32.07,32.07,0,0,0-5.4.87,15.31,15.31,0,0,1-2.22.53,7.79,7.79,0,0,1,2.13-.87,24.38,24.38,0,0,1,5.45-1,11.71,11.71,0,0,1,5.53.6A3.37,3.37,0,0,1,76.58,337.54Z" style="fill:#e0e0e0"></path><path d="M74.56,334.94c0,.08-1.12-.45-3-1.08a30.35,30.35,0,0,0-7.37-1.52,30.75,30.75,0,0,0-7.53.38c-1.91.35-3.06.7-3.09.62a2.88,2.88,0,0,1,.79-.33,17,17,0,0,1,2.23-.63,26.11,26.11,0,0,1,7.63-.53,26.46,26.46,0,0,1,7.47,1.68,18.29,18.29,0,0,1,2.11,1C74.32,334.75,74.58,334.91,74.56,334.94Z" style="fill:#e0e0e0"></path><path d="M91.64,324a59.48,59.48,0,0,1-2.16-7.49,59,59,0,0,1-1.67-7.61A62.72,62.72,0,0,1,90,316.34,62.32,62.32,0,0,1,91.64,324Z" style="fill:#e0e0e0"></path><path d="M91.77,324a33.64,33.64,0,0,0-2.39-4.48,19.55,19.55,0,0,0-3.51-3.63c0-.06.58.15,1.35.7a11,11,0,0,1,2.57,2.64A10,10,0,0,1,91.77,324Z" style="fill:#e0e0e0"></path><path d="M91.67,422.68s-.15-.83-.54-2.29a33.41,33.41,0,0,0-2.3-6c-2.38-4.86-6.71-11-12.22-17.2-2.72-3.12-5.37-6.06-7.61-8.87a62.17,62.17,0,0,1-5.45-7.86,37.06,37.06,0,0,1-2.75-5.83c-.25-.71-.44-1.28-.54-1.66a2.41,2.41,0,0,1-.14-.6s.29.79.86,2.19a43.06,43.06,0,0,0,2.87,5.73,67.64,67.64,0,0,0,5.5,7.74c2.26,2.79,4.91,5.71,7.64,8.83,5.52,6.19,9.84,12.44,12.15,17.38a29.68,29.68,0,0,1,2.18,6.07,17.17,17.17,0,0,1,.3,1.73A2.55,2.55,0,0,1,91.67,422.68Z" style="fill:#e0e0e0"></path><path d="M118.87,392a11.25,11.25,0,0,1-1.42.8,31.88,31.88,0,0,0-3.7,2.45,42.31,42.31,0,0,0-4.86,4.43c-1.7,1.8-3.46,3.89-5.25,6.13-3.58,4.5-6.93,8.47-8.94,11.65-1,1.57-1.76,2.9-2.24,3.83a12.1,12.1,0,0,1-.79,1.44,1.64,1.64,0,0,1,.13-.41c.11-.25.25-.64.48-1.11a38,38,0,0,1,2.12-3.94c1.95-3.25,5.28-7.28,8.85-11.77,1.8-2.25,3.58-4.34,5.31-6.14a39.46,39.46,0,0,1,5-4.39,26.15,26.15,0,0,1,3.82-2.34c.47-.23.86-.38,1.11-.49Z" style="fill:#e0e0e0"></path><path d="M119.41,401.92a22.37,22.37,0,0,1-3,.44,39.5,39.5,0,0,0-7.14,1.41,21.3,21.3,0,0,0-6.4,3.35c-1.48,1.14-2.17,2.09-2.24,2s.12-.27.44-.69a11.87,11.87,0,0,1,1.57-1.61,19.34,19.34,0,0,1,6.47-3.56,32.6,32.6,0,0,1,7.27-1.28A16.93,16.93,0,0,1,119.41,401.92Z" style="fill:#e0e0e0"></path><path d="M101.49,408.06c-.16-.09,1.2-2.17,2.25-5s1.22-5.28,1.4-5.25a5,5,0,0,1,0,1.62,17.6,17.6,0,0,1-.88,3.8,18.56,18.56,0,0,1-1.75,3.5A5,5,0,0,1,101.49,408.06Z" style="fill:#e0e0e0"></path><path d="M127.68,365.2a2.62,2.62,0,0,1-.48.25l-1.42.65c-.62.26-1.37.6-2.22,1s-1.84.89-2.88,1.51l-1.64.93c-.57.33-1.13.72-1.73,1.1-1.22.73-2.43,1.64-3.73,2.56a64.13,64.13,0,0,0-14.33,14.83c-.88,1.33-1.74,2.57-2.43,3.81-.36.61-.73,1.19-1,1.77s-.59,1.14-.88,1.68c-.58,1.05-1,2.06-1.41,2.92s-.73,1.63-1,2.26l-.6,1.44a2.36,2.36,0,0,1-.24.49,3.06,3.06,0,0,1,.15-.53c.13-.39.3-.87.51-1.47a22.56,22.56,0,0,1,.9-2.3c.38-.88.78-1.9,1.35-3l.85-1.7c.31-.59.67-1.18,1-1.8.68-1.25,1.54-2.51,2.41-3.86a62,62,0,0,1,14.44-14.94c1.31-.92,2.55-1.82,3.78-2.54.6-.37,1.18-.76,1.75-1.08l1.67-.91c1.06-.6,2.07-1,2.93-1.45a24.3,24.3,0,0,1,2.27-1l1.45-.56A2.18,2.18,0,0,1,127.68,365.2Z" style="fill:#e0e0e0"></path><path d="M106.15,379.62a3.51,3.51,0,0,1,1.19-1.76,7.44,7.44,0,0,1,4.77-1.83,12.83,12.83,0,0,1,5,1,6.71,6.71,0,0,1,1.89.92,11.47,11.47,0,0,1-2-.59,15.32,15.32,0,0,0-4.89-.82,7.81,7.81,0,0,0-4.55,1.6A14.83,14.83,0,0,0,106.15,379.62Z" style="fill:#e0e0e0"></path><path d="M102.94,382.94a18.54,18.54,0,0,0,1.35-4.41,18,18,0,0,0-.3-4.6,3.14,3.14,0,0,1,.56,1.29,9.09,9.09,0,0,1-.77,6.6A3.08,3.08,0,0,1,102.94,382.94Z" style="fill:#e0e0e0"></path><path d="M67.88,427.61c.74,13.17,4.71,26.55,10.81,40.09h26.53c5.82-13.4,9.52-26.77,10.17-40.09Z" style="fill:#e0e0e0"></path><path d="M111.09,448.91c0,.14-8.73.25-19.51.25s-19.51-.11-19.51-.25,8.74-.24,19.51-.24S111.09,448.78,111.09,448.91Z" style="fill:#fafafa"></path><path d="M110.5,453.68c0,.14-8.19.25-18.29.25s-18.29-.11-18.29-.25,8.19-.25,18.29-.25S110.5,453.55,110.5,453.68Z" style="fill:#fafafa"></path><path d="M79.12,436.26a74.79,74.79,0,0,1,0,12.22,74.79,74.79,0,0,1,0-12.22Z" style="fill:#fafafa"></path><path d="M93.34,436.26a80.14,80.14,0,0,1,0,12.65,80.14,80.14,0,0,1,0-12.65Z" style="fill:#fafafa"></path><path d="M106.68,436.15a83.46,83.46,0,0,1,0,12.91,83.46,83.46,0,0,1,0-12.91Z" style="fill:#fafafa"></path><path d="M114.55,436.26c0,.13-10.25.25-22.88.25s-22.89-.12-22.89-.25S79,436,91.67,436,114.55,436.12,114.55,436.26Z" style="fill:#fafafa"></path><path d="M415.38,458.65c-1.57-1.35-5.07-5.6-2.37-10.55,1-1.82,3.09-2.72,5-3.52a20.23,20.23,0,0,0,5.46-2.83c3-2.52,3.78-6.71,5.75-10.07,2.26-3.86,6.48-6.76,10.93-6.55,5.1.23,9.35,4.39,11.28,9.14s2,10,2,15.16c0,2.83-.11,6-2.19,7.94-1.92,1.77-4.81,1.79-7.41,1.71L416,458.23" style="fill:#f5f5f5"></path><path d="M468.69,382H395.38l13.21,78.73a8.79,8.79,0,0,0,6.26,7l.25.07c.22.06.43.13.66.17a9.06,9.06,0,0,0,1.49.17v.08l.36-.06h32.67a9.37,9.37,0,0,0,9.21-7.87l6.37-54.25.28-2.16h0l2.52-21.48Zm-13.83,50.22h-7.52l.76-22.85h8.71Zm2.68-22.85h7.2l-2.68,22.85h-6.47Zm-21.49,48.18-.46-19.85h10.84l-.66,19.85ZM424.34,437.7h10.52l.46,19.85h-9.44Zm.81,19.85h-8.82l-3.11-19.85h10.39Zm-1.24-25.33-1.77-22.85h12.07l.53,22.85Zm11.56,0-.53-22.85h12.43l-.76,22.85Zm-.66-28.33-.48-21.16h13.92l-.7,21.16Zm-.72,0H421.71l-1.64-21.16H433.6Zm-13.11,0H407.89c-.47-2.92-.91-5.69-1.3-8.18-1.37-8.55-1.88-11.77-2.17-13h14.92Zm.43,5.48,1.77,22.85H412.36q-.56-3.48-1.11-7c-.85-5.39-1.7-10.78-2.49-15.84Zm-9.79,22.85h-7.07l-3.84-22.85H408C409.14,416.43,410.37,424.29,411.62,432.22Zm.86,5.48c1.08,6.87,2.14,13.65,3.11,19.85h-6.8l-3.33-19.85Zm34,19.85.66-19.85h7.24l-1.7,19.85Zm1.79-53.66.7-21.16h10.11l-1.81,21.16Zm-44.55-21.16c.29,1.53,1.63,9.86,3.42,21.16h-7.36l-3.55-21.16Zm55.36,74.82h-5.67l1.7-19.85h6.3Zm6.3-53.66H458l1.81-21.16h8.05Z" style="fill:#e0e0e0"></path><polygon points="455.62 42.75 455.62 137.34 319.77 137.34 314.88 43.42 455.62 42.75" style="fill:#e0e0e0"></polygon><rect x="335.94" y="22.35" width="93.72" height="135.85" transform="translate(292.52 473.08) rotate(-90)" style="fill:#f5f5f5"></rect><path d="M451.37,137.78H314.23v-95H451.37Zm-135.85-1.29H450.08V44.06H315.52Z" style="fill:#e0e0e0"></path><rect x="329.59" y="55.06" width="106.42" height="70.43" style="fill:#fff"></rect><path d="M436,55.06l-.52,0-1.52,0-5.84,0-21.93.09-76.61.15.31-.31c0,21.52,0,45.36,0,70.43h0l-.34-.33,106.42.07-.27.26c.06-21.43.11-39,.14-51.24,0-6.12.06-10.9.07-14.17,0-1.62,0-2.86,0-3.73s0-1.29,0-1.29,0,.41,0,1.24,0,2.07,0,3.67c0,3.26,0,8,.07,14.11,0,12.28.08,29.91.14,51.41v.27H436l-106.42.07h-.34v-.34h0c0-25.07,0-48.91,0-70.43v-.31h.31l76.81.15,21.86.09L434,55l1.48,0Z" style="fill:#e0e0e0"></path><path d="M314.88,43.15a11.82,11.82,0,0,1,2.33,1.52c1.39,1,3.28,2.42,5.33,4.06s3.84,3.18,5.1,4.34a11,11,0,0,1,1.95,2c-.13.14-3.39-2.55-7.47-5.81S314.76,43.31,314.88,43.15Z" style="fill:#e0e0e0"></path><path d="M450.72,43.42c.12.14-3.08,2.87-7.14,6.08s-7.45,5.71-7.57,5.56,3.09-2.87,7.15-6.09S450.61,43.27,450.72,43.42Z" style="fill:#e0e0e0"></path><path d="M450.62,137.15l-15.15-12.27" style="fill:#fff"></path><path d="M435.47,124.88c.12-.15,3.6,2.48,7.78,5.87s7.48,6.26,7.37,6.4-3.61-2.49-7.79-5.88S435.35,125,435.47,124.88Z" style="fill:#e0e0e0"></path><path d="M314.88,137.14c-.12-.15,3.05-2.84,7.07-6s7.37-5.64,7.49-5.5-3.05,2.84-7.07,6S315,137.28,314.88,137.14Z" style="fill:#e0e0e0"></path><rect x="372.89" y="55.32" width="23.58" height="66.96" transform="translate(295.88 473.47) rotate(-90)" style="fill:#e0e0e0"></rect><polygon points="206.74 436.28 206.74 467.34 252.16 467.34 302.26 467.34 302.26 436.28 206.74 436.28" style="fill:#f5f5f5"></polygon><polygon points="202.73 427.59 202.73 436.28 305.61 436.28 305.61 427.59 252.16 427.59 202.73 427.59" style="fill:#ebebeb"></polygon><polygon points="254.17 467.34 302.26 467.34 302.26 436.28 305.61 436.28 305.61 427.59 252.16 427.59 252.16 435.47 254.17 467.34" style="fill:#ebebeb"></polygon><rect x="220.1" y="441.29" width="19.37" height="4.68" style="fill:#e0e0e0"></rect><rect x="217.61" y="451.81" width="24.88" height="9.87" style="fill:#fff"></rect><polygon points="221.44 396.57 221.44 427.63 266.86 427.63 316.96 427.63 316.96 396.57 221.44 396.57" style="fill:#f5f5f5"></polygon><polygon points="217.43 387.89 217.43 396.57 320.3 396.57 320.3 387.89 266.86 387.89 217.43 387.89" style="fill:#ebebeb"></polygon><polygon points="268.86 427.63 316.96 427.63 316.96 396.57 320.3 396.57 320.3 387.89 266.86 387.89 266.86 395.77 268.86 427.63" style="fill:#ebebeb"></polygon><rect x="234.8" y="401.58" width="19.37" height="4.68" style="fill:#e0e0e0"></rect><rect x="232.3" y="412.1" width="24.88" height="9.87" style="fill:#fff"></rect><rect x="58.63" y="40.89" width="58.44" height="60.92" style="fill:#e0e0e0"></rect><rect x="54.67" y="40.89" width="58.44" height="60.92" style="fill:#fafafa"></rect><path d="M113.13,101.83H54.66v-61h58.47Zm-58.44,0h58.4V40.91H54.69Z" style="fill:#e0e0e0"></path><rect x="62.53" y="49.08" width="42.73" height="44.54" style="fill:#fafafa"></rect><path d="M62.53,93.91a7.06,7.06,0,0,1-1.05,1.23c-.69.72-1.65,1.69-2.72,2.75s-2.06,2-2.79,2.68a6.68,6.68,0,0,1-1.24,1,7.76,7.76,0,0,1,1.05-1.22c.68-.72,1.65-1.69,2.72-2.76s2.07-2,2.8-2.67A7.12,7.12,0,0,1,62.53,93.91Z" style="fill:#e0e0e0"></path><path d="M105.26,93.8a7.71,7.71,0,0,1,1.22,1.06c.72.68,1.7,1.64,2.76,2.72s2,2.06,2.67,2.79a7.27,7.27,0,0,1,1,1.23,6.22,6.22,0,0,1-1.22-1c-.72-.68-1.7-1.64-2.76-2.72s-2-2.07-2.68-2.8A6,6,0,0,1,105.26,93.8Z" style="fill:#e0e0e0"></path><path d="M105.14,49.2a7.06,7.06,0,0,1,1-1.23c.69-.72,1.65-1.69,2.72-2.75s2.06-2,2.79-2.67a6.53,6.53,0,0,1,1.24-1,7.76,7.76,0,0,1-1,1.22c-.68.72-1.65,1.7-2.72,2.76s-2.07,2-2.8,2.67A7.12,7.12,0,0,1,105.14,49.2Z" style="fill:#e0e0e0"></path><path d="M62.41,49.31a7.71,7.71,0,0,1-1.22-1.06c-.72-.68-1.7-1.64-2.76-2.71s-2-2.07-2.67-2.8a6.83,6.83,0,0,1-1-1.23A6.7,6.7,0,0,1,56,42.56c.72.68,1.7,1.64,2.76,2.72s2,2.07,2.68,2.8A6.34,6.34,0,0,1,62.41,49.31Z" style="fill:#e0e0e0"></path><path d="M105.14,93.62s0-.08,0-.22,0-.35,0-.62c0-.56,0-1.36,0-2.4,0-2.11,0-5.18,0-9.08,0-7.8,0-18.92-.08-32.22l.16.16-42.61,0h0l.19-.19c0,16.35,0,31.64,0,44.54l-.16-.16,30.85.08,8.67,0,2.29,0h.59a.67.67,0,0,1,.21,0h-.76l-2.26,0-8.63,0-31,.08h-.16v-.16c0-12.9,0-28.19,0-44.54v-.19h.19l42.61,0h.17v.17c0,13.35-.07,24.5-.09,32.32,0,3.89,0,6.94,0,9,0,1,0,1.83,0,2.38,0,.25,0,.45,0,.6A1.57,1.57,0,0,1,105.14,93.62Z" style="fill:#e0e0e0"></path><rect x="76.76" y="64.22" width="14.26" height="14.26" style="fill:#ebebeb"></rect></g><g id="freepik--Floor--inject-35"><path d="M484.44,468c0,.14-105,.26-234.43.26S15.56,468.11,15.56,468s105-.26,234.45-.26S484.44,467.82,484.44,468Z" style="fill:#263238"></path></g><g id="freepik--profile-3--inject-35"><path d="M170,228.35H290.65a7.24,7.24,0,0,1,7.24,7.24V345.86a8.48,8.48,0,0,1-8.48,8.48h-119a7.55,7.55,0,0,1-7.55-7.55V235.51A7.16,7.16,0,0,1,170,228.35Z" style="fill:#fff"></path><rect x="162.81" y="248.8" width="68.32" height="68.32" style="fill:#f5f5f5"></rect><path d="M170,228.35H290.65a7.24,7.24,0,0,1,7.24,7.24V248.8a0,0,0,0,1,0,0H162.81a0,0,0,0,1,0,0V235.51A7.16,7.16,0,0,1,170,228.35Z" style="fill:#FF725E"></path><path d="M175,238.94a2.55,2.55,0,1,1-2.55-2.55A2.56,2.56,0,0,1,175,238.94Z" style="fill:#fff"></path><path d="M182.72,238.94a2.55,2.55,0,1,1-2.55-2.55A2.55,2.55,0,0,1,182.72,238.94Z" style="fill:#fff"></path><path d="M190.43,238.94a2.55,2.55,0,1,1-2.55-2.55A2.55,2.55,0,0,1,190.43,238.94Z" style="fill:#fff"></path><path d="M284.41,270.54c0,.14-9.84.26-22,.26s-22-.12-22-.26,9.84-.26,22-.26S284.41,270.39,284.41,270.54Z" style="fill:#263238"></path><path d="M284.41,277.16c0,.15-9.84.26-22,.26s-22-.11-22-.26,9.84-.26,22-.26S284.41,277,284.41,277.16Z" style="fill:#263238"></path><path d="M284.41,283.79c0,.14-9.84.26-22,.26s-22-.12-22-.26,9.84-.26,22-.26S284.41,283.65,284.41,283.79Z" style="fill:#263238"></path><path d="M284.41,297.52c0,.14-9.84.26-22,.26s-22-.12-22-.26,9.84-.26,22-.26S284.41,297.37,284.41,297.52Z" style="fill:#263238"></path><path d="M265.37,304.14c0,.15-5.58.26-12.47.26s-12.47-.11-12.47-.26,5.58-.26,12.47-.26S265.37,304,265.37,304.14Z" style="fill:#263238"></path><path d="M260.66,290.41a94.77,94.77,0,0,1-10.12.27,94.65,94.65,0,0,1-10.11-.27,99.81,99.81,0,0,1,10.11-.26A99.94,99.94,0,0,1,260.66,290.41Z" style="fill:#FF725E"></path><path d="M260.66,262.41a99.94,99.94,0,0,1-10.12.26,99.81,99.81,0,0,1-10.11-.26,96.42,96.42,0,0,1,10.11-.26A96.54,96.54,0,0,1,260.66,262.41Z" style="fill:#FF725E"></path><path d="M195.09,256a3.1,3.1,0,0,1,3.19-1.62,4.22,4.22,0,0,1,5.19,0,3.75,3.75,0,0,1,5.71,3,3.14,3.14,0,0,1,2.81,5.25,3,3,0,0,1-1.18,5.88l-15.1-9A3.08,3.08,0,0,1,195.09,256Z" style="fill:#e0e0e0"></path><path d="M211.25,268.88a12.78,12.78,0,0,0-12.91-11.57h-.67c-7.13.52-10.67,6.87-9.95,14l1.38,23.76.28,4.21,16.7,1.6-.49-7.66s6.84-1.16,6.83-8C212.41,281.88,211.84,275.05,211.25,268.88Z" style="fill:#ffbe9d"></path><path d="M205.64,293.21a16.62,16.62,0,0,1-9-2.5s2.19,4.91,9,4.19Z" style="fill:#eb996e"></path><path d="M208.87,275.24a1,1,0,0,1-.93,1,.93.93,0,0,1-1-.87,1,1,0,0,1,.93-1A.93.93,0,0,1,208.87,275.24Z" style="fill:#263238"></path><path d="M209.83,272.26c-.12.13-.87-.41-1.93-.39s-1.82.56-1.93.43.06-.29.39-.54a2.71,2.71,0,0,1,1.55-.5,2.61,2.61,0,0,1,1.54.47C209.77,272,209.89,272.2,209.83,272.26Z" style="fill:#263238"></path><path d="M198.93,275.49a1,1,0,0,1-.93,1,.94.94,0,0,1-1-.86,1,1,0,0,1,.93-1A1,1,0,0,1,198.93,275.49Z" style="fill:#263238"></path><path d="M199.46,272.61c-.12.13-.87-.41-1.92-.39s-1.82.56-1.94.43.07-.29.4-.54a2.64,2.64,0,0,1,1.55-.5,2.51,2.51,0,0,1,1.53.47C199.41,272.32,199.52,272.55,199.46,272.61Z" style="fill:#263238"></path><path d="M203.4,280.37a7.15,7.15,0,0,1,1.71-.33c.27,0,.53-.09.57-.27a1.42,1.42,0,0,0-.19-.8c-.27-.65-.54-1.33-.83-2a36.47,36.47,0,0,1-1.87-5.33,34.39,34.39,0,0,1,2.3,5.17c.27.72.54,1.4.79,2.05a1.51,1.51,0,0,1,.15,1.06.68.68,0,0,1-.43.4,2.15,2.15,0,0,1-.46.07A6.81,6.81,0,0,1,203.4,280.37Z" style="fill:#263238"></path><path d="M200.31,281.15c.17,0,.19,1.13,1.18,1.93s2.21.65,2.22.81-.27.23-.78.25a2.84,2.84,0,0,1-1.85-.61,2.48,2.48,0,0,1-.92-1.62C200.11,281.43,200.23,281.14,200.31,281.15Z" style="fill:#263238"></path><path d="M199.68,268.47c-.1.29-1.16.17-2.39.34s-2.23.52-2.4.26.09-.39.49-.68a4.15,4.15,0,0,1,1.77-.65,4,4,0,0,1,1.88.2C199.49,268.11,199.72,268.34,199.68,268.47Z" style="fill:#e0e0e0"></path><path d="M209.4,269.22c-.19.24-.92,0-1.79,0s-1.61.19-1.79-.06,0-.37.36-.6a2.6,2.6,0,0,1,2.88.05C209.37,268.85,209.48,269.1,209.4,269.22Z" style="fill:#e0e0e0"></path><path d="M210.55,265.75s-1.87-4.28-4-5.25c-2.53-1.18-3.57,1.59-6,1s-4.81-1.76-7.23.12c-2.64,2.06-1.37,3.46-1.49,6.51-.49,12.35-2.69,15.88-3.42,10.07-.08-.63-1.85-1.11-2.16-3.8-.39-3.49-.58-7.72.16-10.21a9.79,9.79,0,0,1,3.91-5.18c3.33-2.56,8-2.68,11.11-2.41S210.76,260.36,210.55,265.75Z" style="fill:#e0e0e0"></path><path d="M188.92,278a1.87,1.87,0,0,0-2-1.77c-1.28.14-2.69.89-2.57,3.53.22,4.69,4.88,3.51,4.88,3.37S189,279.93,188.92,278Z" style="fill:#ffbe9d"></path><path d="M188.09,281.39s-.08.06-.21.13a.87.87,0,0,1-.61,0,2,2,0,0,1-1-1.77,2.51,2.51,0,0,1,.17-1.18A1,1,0,0,1,187,278a.42.42,0,0,1,.49.2c.07.13,0,.23.07.23s.09-.08.05-.27a.63.63,0,0,0-.2-.29.7.7,0,0,0-.46-.1,1.17,1.17,0,0,0-.82.77,2.71,2.71,0,0,0-.22,1.32,2.1,2.1,0,0,0,1.29,2,.87.87,0,0,0,.74-.16C188.09,281.5,188.11,281.39,188.09,281.39Z" style="fill:#eb996e"></path><path d="M188.87,268.88a4.55,4.55,0,0,0,2,.89,1.55,1.55,0,0,0,1.68-1.1c.05-.33,0-.71.17-1s.73-.22,1.12-.19a3,3,0,0,0,3.08-2.19,1.26,1.26,0,0,0,1.69.14,7,7,0,0,0,1.26-1.39,1.91,1.91,0,0,1,1.6-.83,4,4,0,0,0,1,.21c.61-.06.9-.79,1-1.4s.15-1.33.66-1.67a2.53,2.53,0,0,1,1.68-.07c.57.08,1.3-.07,1.44-.62a1.1,1.1,0,0,0-.23-.85,3,3,0,0,0-3.6-1.1,4.12,4.12,0,0,0-7.58-.69,4.19,4.19,0,0,0-6.66,1.62,3,3,0,0,0-3.35,4.46,2.85,2.85,0,0,0-1.55,2.31,1.65,1.65,0,0,0,1.89,1.66,1.68,1.68,0,0,0,2.93,1.63" style="fill:#e0e0e0"></path><path d="M185.85,267.1a1.12,1.12,0,0,0,.3.9,1.5,1.5,0,0,0,.95.55,1.65,1.65,0,0,0,1.33-.41l-.2,0a4.67,4.67,0,0,0,1,1.16,2.71,2.71,0,0,0,.86.52,1.8,1.8,0,0,0,.94.07,1.86,1.86,0,0,0,1.35-.79,2.67,2.67,0,0,0,.36-1c.05-.24.05-.37,0-.37s0,.12-.13.35a3.14,3.14,0,0,1-.42.9,1.91,1.91,0,0,1-2.82.1,4.84,4.84,0,0,1-.91-1.08l-.08-.14-.12.11a1.39,1.39,0,0,1-2-.05A2.26,2.26,0,0,1,185.85,267.1Z" style="fill:#fff"></path><path d="M194.56,256.26s.12,0,.33.12a1.56,1.56,0,0,1,.74.61l.05.08.07-.08a5.7,5.7,0,0,1,2.24-1.87,4.57,4.57,0,0,1,1.84-.44,3.86,3.86,0,0,1,2,.54,4,4,0,0,1,1.2,1.11,3.13,3.13,0,0,1,.53,1.4l0,.15.14,0a2.59,2.59,0,0,1,3,1.34,3.52,3.52,0,0,1,.31,1.38.9.9,0,0,0,.05-.38,2.53,2.53,0,0,0-.23-1.07,2.56,2.56,0,0,0-1.12-1.24,2.8,2.8,0,0,0-2.12-.27l.16.11a3.29,3.29,0,0,0-.57-1.53,4.1,4.1,0,0,0-3.41-1.76,4.78,4.78,0,0,0-1.94.48,5.67,5.67,0,0,0-2.26,2h.12a1.64,1.64,0,0,0-.83-.6A.77.77,0,0,0,194.56,256.26Z" style="fill:#fff"></path><path d="M198.71,281.86a3.37,3.37,0,0,1,.49-.91c.38-.43.87-.5.86-.57s-.13-.07-.34,0a1.34,1.34,0,0,0-.72.41,1.4,1.4,0,0,0-.35.75C198.63,281.73,198.68,281.86,198.71,281.86Z" style="fill:#eb996e"></path><path d="M198.27,280.57c.07,0,.24-.13.49-.25s.47-.15.48-.22-.28-.18-.6,0S198.21,280.54,198.27,280.57Z" style="fill:#eb996e"></path><path d="M192.83,291.62s-.07,0-.13-.12a.41.41,0,0,1,0-.41c.07-.18.28-.34.42-.65a.6.6,0,0,0,0-.54,3.74,3.74,0,0,0-.31-.4c-.36-.46.69-.79.55-1.39a.69.69,0,0,0-.26-.5c-.1-.08-.18-.09-.19-.07a.88.88,0,0,1,.26.58c0,.2-.11.37-.34.56a1,1,0,0,0-.31.39.57.57,0,0,0,.07.59c.11.15.24.26.3.37a.36.36,0,0,1,0,.32c-.09.23-.29.43-.37.67a.52.52,0,0,0,.12.56C192.74,291.67,192.83,291.64,192.83,291.62Z" style="fill:#eb996e"></path><path d="M191.38,291.42s0-.07.05-.17a2,2,0,0,1,.26-.4,1.56,1.56,0,0,0,.2-.3.64.64,0,0,0,.06-.46c-.08-.33-.36-.54-.49-.79s0-.44.18-.64a1.72,1.72,0,0,0,.25-.35.91.91,0,0,0,.07-.38c-.05-.49-.38-.63-.38-.6a1.24,1.24,0,0,1,.19.6.84.84,0,0,1-.31.56,1.16,1.16,0,0,0-.29.38.67.67,0,0,0,.05.57c.19.31.44.49.49.71s-.07.42-.18.6a1.17,1.17,0,0,0-.2.48C191.32,291.36,191.36,291.42,191.38,291.42Z" style="fill:#eb996e"></path><path d="M221,304.14c-1.81-1.2-15.14-7.35-15.14-7.35-5.39,1.31-11.11.86-17.08-.87,0,0-14.09,4.91-16.26,6.48-1.71,1.23-5.38,15-5.38,15l59.59-.23S222.75,305.35,221,304.14Z" style="fill:#FF725E"></path><path d="M179.77,317.31a17.19,17.19,0,0,1-.45-4.13,16.32,16.32,0,0,1,.08-4.15,16.92,16.92,0,0,1,.44,4.13A16.66,16.66,0,0,1,179.77,317.31Z" style="fill:#263238"></path><path d="M217.15,316.33a20.74,20.74,0,0,1-.38-7.9,55.8,55.8,0,0,1,.38,7.9Z" style="fill:#263238"></path><path d="M162.59,317.12h135.3a0,0,0,0,1,0,0v28.74a8.48,8.48,0,0,1-8.48,8.48H170.15a7.55,7.55,0,0,1-7.55-7.55V317.12A0,0,0,0,1,162.59,317.12Z" style="fill:#ebebeb"></path><path d="M185.76,327.27a49.6,49.6,0,0,1-7.25.26,49.8,49.8,0,0,1-7.26-.26,51.55,51.55,0,0,1,7.26-.26A51.34,51.34,0,0,1,185.76,327.27Z" style="fill:#263238"></path><path d="M217,332.57c0,.14-10.29.26-23,.26s-23-.12-23-.26,10.28-.26,23-.26S217,332.42,217,332.57Z" style="fill:#263238"></path><path d="M217,338.53c0,.15-10.29.26-23,.26s-23-.11-23-.26,10.28-.26,23-.26S217,338.39,217,338.53Z" style="fill:#263238"></path><path d="M203.24,344.5c0,.15-7.2.26-16.07.26s-16.06-.11-16.06-.26,7.19-.26,16.06-.26S203.24,344.36,203.24,344.5Z" style="fill:#263238"></path><path d="M253.21,327.27a49.8,49.8,0,0,1-7.26.26,49.6,49.6,0,0,1-7.25-.26A51.34,51.34,0,0,1,246,327,51.55,51.55,0,0,1,253.21,327.27Z" style="fill:#263238"></path><path d="M284.48,332.57c0,.14-10.28.26-23,.26s-23-.12-23-.26,10.28-.26,23-.26S284.48,332.42,284.48,332.57Z" style="fill:#263238"></path><path d="M284.48,338.53c0,.15-10.28.26-23,.26s-23-.11-23-.26,10.28-.26,23-.26S284.48,338.39,284.48,338.53Z" style="fill:#263238"></path><path d="M270.68,344.5c0,.15-7.19.26-16.06.26s-16.07-.11-16.07-.26,7.19-.26,16.07-.26S270.68,344.36,270.68,344.5Z" style="fill:#263238"></path><path d="M289.41,354.34s.45,0,1.31-.14a8.45,8.45,0,0,0,6.89-6.51,18.75,18.75,0,0,0,.19-4c0-1.42,0-2.94,0-4.55,0-12.89-.05-31.53-.08-54.55,0-11.52,0-24.13,0-37.67q0-5.08,0-10.33a10.94,10.94,0,0,0-.18-2.57,6.79,6.79,0,0,0-1-2.35,7,7,0,0,0-4.16-2.91,10.07,10.07,0,0,0-2.65-.21H270.15l-99.06,0a9.84,9.84,0,0,0-3.18.31,7,7,0,0,0-4.84,7.33v38.21c0,16.57,0,32.55,0,47.78,0,7.61,0,15,0,22.25,0,.9,0,1.81,0,2.68a7.29,7.29,0,0,0,.58,2.52,7.4,7.4,0,0,0,3.46,3.65,7.3,7.3,0,0,0,2.41.72c.83.08,1.71.05,2.57.06h5.12l37.67,0,54.54.08,14.83,0,3.86,0,1.31,0-1.31,0-3.86,0-14.83.05-54.54.08-37.67,0h-5.12a25.67,25.67,0,0,1-2.62-.05,7.44,7.44,0,0,1-2.56-.77,7.79,7.79,0,0,1-3.67-3.86,7.49,7.49,0,0,1-.62-2.67c-.05-.92,0-1.8,0-2.71,0-7.21,0-14.64,0-22.25,0-15.23,0-31.21,0-47.78q0-12.43,0-25.28V236.25a7.71,7.71,0,0,1,2.3-6.1,7.51,7.51,0,0,1,2.9-1.72,10.28,10.28,0,0,1,3.34-.34l99.06,0h19.53a10.76,10.76,0,0,1,2.76.22,7.46,7.46,0,0,1,4.42,3.11,7.1,7.1,0,0,1,1.07,2.5,11.54,11.54,0,0,1,.18,2.67V247c0,13.54,0,26.15,0,37.67,0,23-.07,41.66-.09,54.55,0,1.61,0,3.13,0,4.55a18.57,18.57,0,0,1-.22,4,8.54,8.54,0,0,1-3.46,5.11,8.42,8.42,0,0,1-3.57,1.41,6,6,0,0,1-1,.08Z" style="fill:#263238"></path></g><g id="freepik--profile-2--inject-35"><path d="M49.22,145.26H169.9a7.24,7.24,0,0,1,7.24,7.24V262.77a8.48,8.48,0,0,1-8.48,8.48h-119a7.55,7.55,0,0,1-7.55-7.55V152.43A7.16,7.16,0,0,1,49.22,145.26Z" style="fill:#fff"></path><rect x="42.06" y="165.71" width="68.32" height="68.32" style="fill:#f5f5f5"></rect><path d="M49.22,145.26H169.9a7.24,7.24,0,0,1,7.24,7.24v13.21a0,0,0,0,1,0,0H42.06a0,0,0,0,1,0,0V152.43A7.16,7.16,0,0,1,49.22,145.26Z" style="fill:#FF725E"></path><path d="M54.26,155.85a2.55,2.55,0,1,1-2.54-2.55A2.55,2.55,0,0,1,54.26,155.85Z" style="fill:#fff"></path><path d="M62,155.85a2.55,2.55,0,1,1-2.55-2.55A2.55,2.55,0,0,1,62,155.85Z" style="fill:#fff"></path><circle cx="67.13" cy="155.85" r="2.55" style="fill:#fff"></circle><path d="M163.66,187.45c0,.15-9.85.26-22,.26s-22-.11-22-.26,9.84-.26,22-.26S163.66,187.31,163.66,187.45Z" style="fill:#263238"></path><path d="M163.66,194.08c0,.14-9.85.26-22,.26s-22-.12-22-.26,9.84-.26,22-.26S163.66,193.93,163.66,194.08Z" style="fill:#263238"></path><path d="M163.66,200.7c0,.15-9.85.26-22,.26s-22-.11-22-.26,9.84-.26,22-.26S163.66,200.56,163.66,200.7Z" style="fill:#263238"></path><path d="M163.66,214.43c0,.15-9.85.26-22,.26s-22-.11-22-.26,9.84-.26,22-.26S163.66,214.29,163.66,214.43Z" style="fill:#263238"></path><path d="M144.62,221.06c0,.14-5.59.26-12.47.26s-12.47-.12-12.47-.26,5.58-.26,12.47-.26S144.62,220.91,144.62,221.06Z" style="fill:#263238"></path><path d="M139.91,207.33a99.94,99.94,0,0,1-10.12.26,99.81,99.81,0,0,1-10.11-.26,99.81,99.81,0,0,1,10.11-.26A99.94,99.94,0,0,1,139.91,207.33Z" style="fill:#FF725E"></path><path d="M139.91,179.32a96.54,96.54,0,0,1-10.12.26,96.42,96.42,0,0,1-10.11-.26,99.81,99.81,0,0,1,10.11-.26A99.94,99.94,0,0,1,139.91,179.32Z" style="fill:#FF725E"></path><path d="M61.23,211.75l6.8-.56s3.75,4.94,8.85,4.56,5.65-3.81,5.65-3.81,9.1,1.75,14,7l.11.14,6.54,15H58.08Z" style="fill:#455a64"></path><path d="M61.36,211.71a20.34,20.34,0,0,0-5.69,1.83c-4.8,2.83-9,20.49-9,20.49H60.07a52.58,52.58,0,0,0,5.26-10.41c.36-1.12-.47-6.75-.46-6.7S61.36,211.82,61.36,211.71Z" style="fill:#455a64"></path><path d="M93.72,231.54c-.11,0-.11-1.1-.42-2.38s-.77-2.27-.68-2.32a5.18,5.18,0,0,1,1,2.24A4.81,4.81,0,0,1,93.72,231.54Z" style="fill:#263238"></path><path d="M60.08,233.28a15.32,15.32,0,0,1,.33-1.85c.22-1.14.48-2.71.64-4.47s.18-3.35.19-4.51a12.34,12.34,0,0,1,0-1.87,8.55,8.55,0,0,1,.19,1.87,34.42,34.42,0,0,1-.09,4.54,30.75,30.75,0,0,1-.74,4.49A8.55,8.55,0,0,1,60.08,233.28Z" style="fill:#263238"></path><path d="M41.84,234h135.3a0,0,0,0,1,0,0v28.74a8.48,8.48,0,0,1-8.48,8.48H49.39a7.55,7.55,0,0,1-7.55-7.55V234A0,0,0,0,1,41.84,234Z" style="fill:#ebebeb"></path><path d="M65,244.19a51.46,51.46,0,0,1-7.25.26,51.55,51.55,0,0,1-7.26-.26,51.55,51.55,0,0,1,7.26-.26A51.46,51.46,0,0,1,65,244.19Z" style="fill:#263238"></path><path d="M96.28,249.48c0,.15-10.28.26-23,.26s-23-.11-23-.26,10.28-.26,23-.26S96.28,249.34,96.28,249.48Z" style="fill:#263238"></path><path d="M96.28,255.45c0,.14-10.28.26-23,.26s-23-.12-23-.26,10.28-.26,23-.26S96.28,255.31,96.28,255.45Z" style="fill:#263238"></path><path d="M82.48,261.42c0,.14-7.19.26-16.06.26s-16.07-.12-16.07-.26,7.2-.26,16.07-.26S82.48,261.27,82.48,261.42Z" style="fill:#263238"></path><path d="M132.46,244.19a51.55,51.55,0,0,1-7.26.26,51.55,51.55,0,0,1-7.26-.26,51.55,51.55,0,0,1,7.26-.26A51.55,51.55,0,0,1,132.46,244.19Z" style="fill:#263238"></path><path d="M163.73,249.48c0,.15-10.28.26-23,.26s-23-.11-23-.26,10.28-.26,23-.26S163.73,249.34,163.73,249.48Z" style="fill:#263238"></path><path d="M163.73,255.45c0,.14-10.28.26-23,.26s-23-.12-23-.26,10.28-.26,23-.26S163.73,255.31,163.73,255.45Z" style="fill:#263238"></path><path d="M149.93,261.42c0,.14-7.2.26-16.07.26s-16.06-.12-16.06-.26,7.19-.26,16.06-.26S149.93,261.27,149.93,261.42Z" style="fill:#263238"></path><path d="M168.66,271.25s.45,0,1.31-.14a8.43,8.43,0,0,0,6.88-6.5,18.11,18.11,0,0,0,.2-4c0-1.43,0-2.95,0-4.56,0-12.89,0-31.52-.08-54.55,0-11.51,0-24.13,0-37.67V153.54a10.9,10.9,0,0,0-.18-2.57,6.84,6.84,0,0,0-1-2.36,7.08,7.08,0,0,0-4.17-2.91,10.44,10.44,0,0,0-2.64-.21H149.4l-99.06,0a9.81,9.81,0,0,0-3.18.32,6.93,6.93,0,0,0-2.7,1.6,7.16,7.16,0,0,0-2.14,5.73v38.2c0,16.57,0,32.56,0,47.78q0,11.43,0,22.25c0,.9,0,1.82,0,2.69a7.24,7.24,0,0,0,.58,2.51,7.36,7.36,0,0,0,3.46,3.65,7,7,0,0,0,2.41.73c.83.08,1.71,0,2.57,0h5.12l37.67,0,54.54.08,14.83.05,3.86,0,1.31,0-1.31,0-3.86,0-14.83.05-54.54.08-37.67,0H51.33c-.87,0-1.72,0-2.62-.06a7.42,7.42,0,0,1-2.56-.76,7.71,7.71,0,0,1-4.3-6.54c0-.92,0-1.8,0-2.71q0-10.81,0-22.25c0-15.22,0-31.21,0-47.78q0-12.42,0-25.28V153.17a7.71,7.71,0,0,1,2.3-6.11,7.64,7.64,0,0,1,2.9-1.72,10.28,10.28,0,0,1,3.34-.34l99.06,0h19.53a10.66,10.66,0,0,1,2.75.23,7.43,7.43,0,0,1,5.5,5.61,11.54,11.54,0,0,1,.18,2.67v10.32c0,13.54,0,26.16,0,37.67,0,23-.06,41.66-.08,54.55,0,1.61,0,3.13,0,4.56a18.44,18.44,0,0,1-.22,4,8.56,8.56,0,0,1-3.46,5.12,8.47,8.47,0,0,1-3.57,1.41,7.47,7.47,0,0,1-1,.08Z" style="fill:#263238"></path><path d="M64.69,178.7a16.75,16.75,0,0,1,12.94-6.43c2.94,0,4.15.56,6.27,1.13a9.31,9.31,0,0,1,5.28,3.49,15.6,15.6,0,0,1,3,7.09,43.52,43.52,0,0,1,.38,8,14.56,14.56,0,0,1-2.5,7.5l-6.78,1.17a42.73,42.73,0,0,1-11.19-.6c-3.65-.85-7.2-2.81-9.16-6C60.27,189.59,61.4,182.72,64.69,178.7Z" style="fill:#263238"></path><path d="M88.06,203.27s.11.17.41.36a3.49,3.49,0,0,0,1.39.47,3.68,3.68,0,0,0,2.16-.44,3.62,3.62,0,0,0,1.31-4.82,3.6,3.6,0,0,0-1.65-1.46,3.26,3.26,0,0,0-1.44-.29,1,1,0,0,0-.53.1,5,5,0,0,1,1.85.45A3.47,3.47,0,0,1,93,199a3.2,3.2,0,0,1,.25,2.38,3.24,3.24,0,0,1-1.42,1.93,3.45,3.45,0,0,1-1.94.47A5.12,5.12,0,0,1,88.06,203.27Z" style="fill:#e0e0e0"></path><path d="M58.12,198.35a5,5,0,0,1,2.3-3.81,3.65,3.65,0,0,1,4.28.37l1.06,1.27a4.35,4.35,0,0,1,2.52,4.4A4.78,4.78,0,0,1,65,204.5a5.31,5.31,0,0,1-5.06-1.22A5.92,5.92,0,0,1,58.12,198.35Z" style="fill:#263238"></path><path d="M59.46,202.91a2.23,2.23,0,0,1-.36-1.34,6.22,6.22,0,0,1,1.55-3,9.12,9.12,0,0,1,2.72-2.17c.79-.43,1.34-.58,1.32-.64a3.9,3.9,0,0,0-1.42.43,8.31,8.31,0,0,0-4,3.83,3.79,3.79,0,0,0-.44,1.59,1.89,1.89,0,0,0,.31,1.07C59.32,202.85,59.45,202.93,59.46,202.91Z" style="fill:#455a64"></path><path d="M62.75,204.91A11.9,11.9,0,0,1,65,196.4a3.59,3.59,0,0,0-.9,1,9.31,9.31,0,0,0-1.35,3,9.14,9.14,0,0,0-.27,3.24A3.35,3.35,0,0,0,62.75,204.91Z" style="fill:#455a64"></path><path d="M83.27,213.59l0-6.28s5.53-.61,7.06-7.68c.76-3.52.9-9.35.86-14.12,0-4.3-3.7-10.15-9-10.17l-2.37-.27-9,3.58a2.52,2.52,0,0,0-2.39,2.43l-.27,30.21,15.11,21.18.09-18.88Z" style="fill:#b56760"></path><path d="M79.66,198a1.5,1.5,0,0,1,.52-.93,1.55,1.55,0,0,1,1.87-.11,2.09,2.09,0,0,1,.79,1.94h0a1.89,1.89,0,0,1-1.35.78h-.25a1.69,1.69,0,0,1-1.14-.45A1.51,1.51,0,0,1,79.66,198Z" style="fill:#8a4a43"></path><path d="M88.17,190.43a.92.92,0,0,1-.94.88.88.88,0,0,1-.9-.88.92.92,0,0,1,.94-.87A.87.87,0,0,1,88.17,190.43Z" style="fill:#263238"></path><path d="M89.39,188.15c-.12.12-.78-.43-1.77-.48s-1.74.4-1.84.27.08-.26.41-.48a2.49,2.49,0,0,1,1.48-.36,2.41,2.41,0,0,1,1.4.53C89.36,187.88,89.45,188.1,89.39,188.15Z" style="fill:#263238"></path><path d="M83.19,195.62a6.28,6.28,0,0,1,1.62-.2c.25,0,.49,0,.55-.22a1.27,1.27,0,0,0-.13-.76c-.2-.62-.42-1.27-.64-1.95a33.09,33.09,0,0,1-1.4-5.1,33.37,33.37,0,0,1,1.81,5c.21.69.41,1.34.61,2a1.44,1.44,0,0,1,.07,1,.64.64,0,0,1-.43.35,1.69,1.69,0,0,1-.43,0A7,7,0,0,1,83.19,195.62Z" style="fill:#263238"></path><path d="M83.23,207.31a18.3,18.3,0,0,1-9.44-3.08s2.28,5.09,9.48,4.82Z" style="fill:#8a4a43"></path><path d="M80.25,196.14c.16,0,.1,1.07,1,1.88s2,.75,2,.9-.27.19-.75.18a2.71,2.71,0,0,1-1.69-.69,2.33,2.33,0,0,1-.75-1.57C80,196.39,80.18,196.13,80.25,196.14Z" style="fill:#263238"></path><path d="M89.2,184.44c-.18.23-.93,0-1.82.06s-1.63.21-1.81,0,0-.34.35-.57a2.72,2.72,0,0,1,1.46-.43,2.67,2.67,0,0,1,1.46.4C89.16,184.1,89.28,184.33,89.2,184.44Z" style="fill:#263238"></path><path d="M77.11,190.37a.93.93,0,0,0,.87.94.88.88,0,0,0,1-.81.91.91,0,0,0-.86-.94A.89.89,0,0,0,77.11,190.37Z" style="fill:#263238"></path><path d="M75.87,187.8c.11.12.81-.38,1.8-.36s1.71.53,1.82.41-.06-.27-.37-.51a2.59,2.59,0,0,0-1.45-.47,2.37,2.37,0,0,0-1.44.44C75.92,187.53,75.81,187.75,75.87,187.8Z" style="fill:#263238"></path><path d="M75.3,185.68c.19.23,1,0,1.87,0s1.7.18,1.88,0,0-.34-.38-.56a2.75,2.75,0,0,0-1.51-.39,2.82,2.82,0,0,0-1.51.42C75.33,185.35,75.22,185.57,75.3,185.68Z" style="fill:#263238"></path><path d="M69.57,193.07c0-.53-.52-1.82-1-1.93-1.39-.3-3.93-.32-4.15,3.24-.3,4.86,4.65,4.16,4.67,4S69.47,194.9,69.57,193.07Z" style="fill:#b56760"></path><path d="M67.82,196.54s-.09.05-.24.11a.8.8,0,0,1-.64,0,2.1,2.1,0,0,1-.85-1.94,2.65,2.65,0,0,1,.31-1.19,1,1,0,0,1,.68-.62.45.45,0,0,1,.49.27c.05.14,0,.23,0,.24s.11-.07.08-.28a.51.51,0,0,0-.17-.31.69.69,0,0,0-.46-.16,1.2,1.2,0,0,0-.93.7,2.8,2.8,0,0,0-.38,1.34,2.22,2.22,0,0,0,1.11,2.18.93.93,0,0,0,.78-.08C67.8,196.66,67.83,196.55,67.82,196.54Z" style="fill:#8a4a43"></path><path d="M68.33,191.15l1.24,1.29c5.35-5.11,15.8-17.9,15.21-17.14a15.65,15.65,0,0,0-7.64-.83c-4,.68-11.52,2.66-11.4,7.34A24.46,24.46,0,0,0,68.33,191.15Z" style="fill:#263238"></path><path d="M68.44,203.27s-.11.17-.4.36a3.54,3.54,0,0,1-1.4.47,3.71,3.71,0,0,1-2.16-.44,3.6,3.6,0,0,1-1.3-4.82,3.63,3.63,0,0,1,1.64-1.46,3.29,3.29,0,0,1,1.45-.29,1,1,0,0,1,.53.1,5,5,0,0,0-1.85.45A3.49,3.49,0,0,0,63.5,199a3.25,3.25,0,0,0-.25,2.38,3.28,3.28,0,0,0,1.42,1.93,3.48,3.48,0,0,0,2,.47A5,5,0,0,0,68.44,203.27Z" style="fill:#e0e0e0"></path><path d="M61.25,190.08a.87.87,0,0,1,.07-.28,5,5,0,0,1,.33-.77,7.12,7.12,0,0,1,2-2.29,13.26,13.26,0,0,1,4.1-2c1.63-.53,3.47-.95,5.28-1.72a23.7,23.7,0,0,0,4.81-2.69,24.45,24.45,0,0,0,3.4-3,27.55,27.55,0,0,0,2-2.32l.48-.67a1.33,1.33,0,0,1,.19-.23,1.15,1.15,0,0,1-.14.25c-.11.16-.25.41-.46.7a20.61,20.61,0,0,1-1.91,2.39,23.15,23.15,0,0,1-8.25,5.77,53.48,53.48,0,0,1-5.3,1.7,13.45,13.45,0,0,0-4.06,1.9,7.11,7.11,0,0,0-2.06,2.19C61.38,189.7,61.27,190.09,61.25,190.08Z" style="fill:#455a64"></path><path d="M62.67,190.85a2.64,2.64,0,0,1,.18-1.07,5,5,0,0,1,1.84-2.29,11.09,11.09,0,0,1,4.06-1.59,23.58,23.58,0,0,0,5.06-1.6,21.38,21.38,0,0,0,7.59-5.81,22.26,22.26,0,0,0,1.73-2.36l.41-.68a1.74,1.74,0,0,1,.16-.23s0,.09-.12.26l-.37.7a20.43,20.43,0,0,1-1.67,2.43,20.78,20.78,0,0,1-3.08,3.09,21.08,21.08,0,0,1-4.55,2.83,23.85,23.85,0,0,1-5.1,1.6,11.07,11.07,0,0,0-4,1.51A4.94,4.94,0,0,0,63,189.82,4.47,4.47,0,0,0,62.67,190.85Z" style="fill:#455a64"></path></g><g id="freepik--profile-1--inject-35"><path d="M155.67,50.9H276.34a7.24,7.24,0,0,1,7.24,7.24V168.41a8.48,8.48,0,0,1-8.48,8.48h-119a7.55,7.55,0,0,1-7.55-7.55V58.06A7.16,7.16,0,0,1,155.67,50.9Z" style="fill:#fff"></path><rect x="148.5" y="71.35" width="68.32" height="68.32" style="fill:#f5f5f5"></rect><path d="M155.67,50.9H276.34a7.24,7.24,0,0,1,7.24,7.24V71.35a0,0,0,0,1,0,0H148.5a0,0,0,0,1,0,0V58.06A7.16,7.16,0,0,1,155.67,50.9Z" style="fill:#FF725E"></path><path d="M160.71,61.49a2.55,2.55,0,1,1-2.55-2.55A2.55,2.55,0,0,1,160.71,61.49Z" style="fill:#fff"></path><path d="M168.41,61.49a2.55,2.55,0,1,1-2.55-2.55A2.55,2.55,0,0,1,168.41,61.49Z" style="fill:#fff"></path><path d="M176.12,61.49a2.55,2.55,0,1,1-2.55-2.55A2.55,2.55,0,0,1,176.12,61.49Z" style="fill:#fff"></path><path d="M270.1,93.09c0,.14-9.85.26-22,.26s-22-.12-22-.26,9.84-.26,22-.26S270.1,92.94,270.1,93.09Z" style="fill:#263238"></path><path d="M270.1,99.71c0,.15-9.85.26-22,.26s-22-.11-22-.26,9.84-.26,22-.26S270.1,99.57,270.1,99.71Z" style="fill:#263238"></path><path d="M270.1,106.34c0,.14-9.85.26-22,.26s-22-.12-22-.26,9.84-.26,22-.26S270.1,106.19,270.1,106.34Z" style="fill:#263238"></path><path d="M270.1,120.07c0,.14-9.85.26-22,.26s-22-.12-22-.26,9.84-.26,22-.26S270.1,119.92,270.1,120.07Z" style="fill:#263238"></path><path d="M251.06,126.69c0,.15-5.58.26-12.47.26s-12.47-.11-12.47-.26,5.58-.26,12.47-.26S251.06,126.55,251.06,126.69Z" style="fill:#263238"></path><path d="M246.35,113a96.54,96.54,0,0,1-10.12.26,96.42,96.42,0,0,1-10.11-.26,99.81,99.81,0,0,1,10.11-.26A99.94,99.94,0,0,1,246.35,113Z" style="fill:#FF725E"></path><path d="M246.35,85a99.94,99.94,0,0,1-10.12.26A99.81,99.81,0,0,1,226.12,85a96.42,96.42,0,0,1,10.11-.26A96.54,96.54,0,0,1,246.35,85Z" style="fill:#FF725E"></path><path d="M193.5,86.33A9,9,0,0,0,189,81a11.4,11.4,0,0,0-7.66-.7,24.18,24.18,0,0,0-7.13,3.19,11.67,11.67,0,0,0-3.37,2.79,16.66,16.66,0,0,0-3.24,8.31,29.55,29.55,0,0,0,1.88,9.49,4.78,4.78,0,0,0,2.13,1.81,18.26,18.26,0,0,0,4.06,5.07l1.38-4.4Z" style="fill:#263238"></path><path d="M192.18,83.7l-4.28-.64c2.48,5.48,3.48,18.15,5,24,1.5-2.32,5-9.36,4.68-12.12S197.23,83.09,192.18,83.7Z" style="fill:#263238"></path><path d="M172.25,93.51a7.27,7.27,0,0,1,5.28-6.86l9.74-2.78c4.22-.58,7.2,4.56,7.6,8.8.45,4.72.78,9.71.33,13.25-.91,7.13-6.32,8.2-6.32,8.2s.09,3.37.15,5.44l-1.59,9.29-12.84-11L172.22,93.6C172.22,93.48,172.24,93.67,172.25,93.51Z" style="fill:#ffbe9d"></path><path d="M192.67,98.23a.91.91,0,0,1-.85,1,.87.87,0,0,1-1-.8.91.91,0,0,1,.85-.94A.87.87,0,0,1,192.67,98.23Z" style="fill:#263238"></path><path d="M193.89,95.48c-.11.13-.82-.36-1.8-.33s-1.68.54-1.79.43.06-.27.36-.51a2.5,2.5,0,0,1,1.43-.49,2.43,2.43,0,0,1,1.43.42C193.83,95.22,193.94,95.43,193.89,95.48Z" style="fill:#263238"></path><path d="M183.91,98.47a.91.91,0,0,1-.85.94.87.87,0,0,1-1-.79.91.91,0,0,1,.85-.94A.86.86,0,0,1,183.91,98.47Z" style="fill:#263238"></path><path d="M184.59,95.75c-.11.12-.82-.37-1.79-.33s-1.69.54-1.79.42.05-.27.36-.5a2.5,2.5,0,0,1,2.86-.08C184.53,95.48,184.64,95.69,184.59,95.75Z" style="fill:#263238"></path><path d="M187.87,103.35a6.84,6.84,0,0,1,1.58-.34c.25,0,.48-.09.52-.26a1.28,1.28,0,0,0-.19-.73c-.25-.6-.52-1.23-.8-1.88a32.43,32.43,0,0,1-1.81-4.93,31.85,31.85,0,0,1,2.21,4.77c.26.66.52,1.29.76,1.89a1.39,1.39,0,0,1,.16,1,.63.63,0,0,1-.4.38,1.83,1.83,0,0,1-.42.07A6.26,6.26,0,0,1,187.87,103.35Z" style="fill:#263238"></path><path d="M179.4,111.86s2.45,4.81,9.52,3.93l0-1.67A17.86,17.86,0,0,1,179.4,111.86Z" style="fill:#eb996e"></path><path d="M184.18,92.22c-.09.27-1.07.17-2.21.35s-2.07.51-2.23.28.09-.37.45-.64a3.78,3.78,0,0,1,1.64-.63,3.88,3.88,0,0,1,1.74.15C184,91.89,184.22,92.09,184.18,92.22Z" style="fill:#263238"></path><path d="M193.48,92.5c-.16.23-.85,0-1.66,0s-1.49.2-1.65,0,0-.34.32-.56a2.43,2.43,0,0,1,2.67,0C193.45,92.16,193.55,92.39,193.48,92.5Z" style="fill:#263238"></path><path d="M192.76,86.25A3.13,3.13,0,0,0,190,84.56a6.05,6.05,0,0,0-3.24,1c-4.16,2.56-6.16,8.52-10.26,11.17-1,.65-2.36.12-3.21,1a3,3,0,0,0-.87,3.26,9.76,9.76,0,0,1-1.51-2.41,3.35,3.35,0,0,1,0-2.77c.35-.63,1-1.13,1.13-1.83a10.16,10.16,0,0,0-.12-1.9,4,4,0,0,1,.6-1.83,18.39,18.39,0,0,1,6.57-7.33,12.11,12.11,0,0,1,6.18-1.78,9.13,9.13,0,0,1,6,2.18c1,.84,2,1.72,1.52,2.91" style="fill:#263238"></path><path d="M173.36,98.62c-.08-.2-3.81-1.43-3.75,2.51s3.89,3,3.9,2.85S173.36,98.62,173.36,98.62Z" style="fill:#ffbe9d"></path><path d="M172.3,102.55s-.06,0-.18.1a.66.66,0,0,1-.49,0,1.63,1.63,0,0,1-.79-1.46,2.28,2.28,0,0,1,.16-1,.78.78,0,0,1,.5-.52.33.33,0,0,1,.39.18c.06.1,0,.18.05.18s.08-.06.05-.22a.44.44,0,0,0-.15-.23.47.47,0,0,0-.37-.09.92.92,0,0,0-.69.6,2.33,2.33,0,0,0-.21,1.07,1.73,1.73,0,0,0,1,1.63.71.71,0,0,0,.61-.11C172.3,102.64,172.32,102.56,172.3,102.55Z" style="fill:#eb996e"></path><path d="M171.79,96.7l.23-.13c.14-.1.36-.23.62-.43a12.35,12.35,0,0,0,2-1.94,34.85,34.85,0,0,0,2.43-3.34,31,31,0,0,1,3-4,12.33,12.33,0,0,1,2-1.67,10.11,10.11,0,0,1,2.17-1.06,11,11,0,0,1,4-.61A10.49,10.49,0,0,1,191,84c.32.09.55.19.72.25l.25.08a1,1,0,0,0-.24-.12c-.16-.06-.39-.17-.71-.27a9.82,9.82,0,0,0-2.74-.51,10.74,10.74,0,0,0-4.09.58A10.2,10.2,0,0,0,182,85a11.4,11.4,0,0,0-2,1.69,28.82,28.82,0,0,0-3.05,4c-.86,1.29-1.64,2.45-2.39,3.36a14.84,14.84,0,0,1-2,2c-.25.2-.47.34-.6.45Z" style="fill:#fff"></path><path d="M172.78,97.76a5.89,5.89,0,0,0,.46,3.06,2,2,0,0,0,2.64,1,2.87,2.87,0,0,0,1-2.24c.29-2.45.39-4.91.7-7.35Z" style="fill:#263238"></path><path d="M191.77,84.46s-.34,0-1-.06a6.51,6.51,0,0,0-2.51.54,8.12,8.12,0,0,0-1.56.86,17.74,17.74,0,0,0-1.6,1.29,19.71,19.71,0,0,0-3.1,3.54c-.47.7-.88,1.41-1.32,2.07a9.62,9.62,0,0,1-1.49,1.77,16.42,16.42,0,0,1-3.16,2.25c-1,.55-1.77.93-2.33,1.2l-.65.3-.23.09a1,1,0,0,1,.22-.13l.62-.34c.55-.28,1.34-.69,2.29-1.25a17.74,17.74,0,0,0,3.11-2.26,9.88,9.88,0,0,0,1.44-1.74c.44-.66.85-1.37,1.32-2.08A19,19,0,0,1,185,87a16.55,16.55,0,0,1,1.63-1.3,8.05,8.05,0,0,1,1.6-.85,6.39,6.39,0,0,1,2.58-.48,4.54,4.54,0,0,1,.71.08Z" style="fill:#455a64"></path><path d="M172.61,95.4l-.33.24-1,.59-.32.2a1.06,1.06,0,0,1-.41.15.36.36,0,0,1-.26-.06.3.3,0,0,1-.15-.24.87.87,0,0,1,.17-.49c.32-.56.69-1.18,1.07-1.83l.15.13a3.92,3.92,0,0,1-1.21.65,3.78,3.78,0,0,1-1.36.2,1.1,1.1,0,0,1-.35,0,.46.46,0,0,1-.3-.25.42.42,0,0,1,.05-.38,1.38,1.38,0,0,1,.21-.25,8.64,8.64,0,0,0,1.26-1.68,13.94,13.94,0,0,0,.77-1.78,1.57,1.57,0,0,1-.1.52A8,8,0,0,1,170,92.4a7.75,7.75,0,0,1-1.25,1.75c-.13.14-.27.3-.21.41s.27.18.47.17a3.88,3.88,0,0,0,1.29-.19,3.79,3.79,0,0,0,1.14-.61l.45-.35-.29.49-1.1,1.81a.77.77,0,0,0-.15.38c0,.11.1.17.23.16a2.08,2.08,0,0,0,.68-.31l1-.54A1.65,1.65,0,0,1,172.61,95.4Z" style="fill:#fff"></path><path d="M184.2,105.26a1.28,1.28,0,0,1,1.29-1,1.36,1.36,0,0,1,1,.71,1.6,1.6,0,0,1,.09,1.27l0,.09a1.44,1.44,0,0,1-1.62.4A1.36,1.36,0,0,1,184.2,105.26Z" style="fill:#eb996e"></path><path d="M187.32,106.32c0-.14-1-.07-1.76-.86s-.74-1.85-.88-1.85-.17.25-.15.7a2.46,2.46,0,0,0,.68,1.54,2.16,2.16,0,0,0,1.47.67C187.1,106.52,187.34,106.39,187.32,106.32Z" style="fill:#263238"></path><path d="M183.09,103.66c-.05,0-.1-.12-.08-.34a1.11,1.11,0,0,1,.45-.73,1.09,1.09,0,0,1,.83-.18c.22,0,.32.15.3.18s-.51,0-.94.27S183.17,103.66,183.09,103.66Z" style="fill:#eb996e"></path><path d="M178.58,97.92c0-.09.27-.19.63-.12s.59.27.55.35-.31,0-.61,0S178.59,98,178.58,97.92Z" style="fill:#eb996e"></path><path d="M194.1,98.65c-.06-.07,0-.24.25-.27s.35.09.32.18-.15.12-.27.14A.33.33,0,0,1,194.1,98.65Z" style="fill:#eb996e"></path><path d="M178.82,97.35c0-.09.26-.13.54,0s.41.34.35.41-.26,0-.49-.11S178.81,97.44,178.82,97.35Z" style="fill:#eb996e"></path><path d="M167.67,117.39l6.8-.57s3.75,4.94,8.85,4.56,5.65-3.81,5.65-3.81,9.1,1.75,14,7l.11.15,6.54,15H164.52Z" style="fill:#FF725E"></path><path d="M167.8,117.34a20,20,0,0,0-5.68,1.84c-4.81,2.82-9,20.49-9,20.49h13.38a52.48,52.48,0,0,0,5.26-10.42c.36-1.12-.46-6.74-.46-6.7S167.8,117.45,167.8,117.34Z" style="fill:#FF725E"></path><path d="M200.16,137.17c-.1,0-.11-1.09-.42-2.38s-.77-2.27-.68-2.31a5.18,5.18,0,0,1,1,2.24A4.76,4.76,0,0,1,200.16,137.17Z" style="fill:#263238"></path><path d="M166.52,138.91a15.14,15.14,0,0,1,.34-1.85c.22-1.13.47-2.71.63-4.46s.19-3.36.19-4.51a12.44,12.44,0,0,1,0-1.88,8.67,8.67,0,0,1,.19,1.87,32.91,32.91,0,0,1-.09,4.55,30.59,30.59,0,0,1-.74,4.48A8.55,8.55,0,0,1,166.52,138.91Z" style="fill:#263238"></path><path d="M148.28,139.67h135.3a0,0,0,0,1,0,0v28.74a8.48,8.48,0,0,1-8.48,8.48H155.84a7.55,7.55,0,0,1-7.55-7.55V139.67A0,0,0,0,1,148.28,139.67Z" style="fill:#ebebeb"></path><path d="M171.45,149.82a49.71,49.71,0,0,1-7.25.26,49.8,49.8,0,0,1-7.26-.26,51.55,51.55,0,0,1,7.26-.26A51.46,51.46,0,0,1,171.45,149.82Z" style="fill:#263238"></path><path d="M202.73,155.12c0,.14-10.29.26-23,.26s-23-.12-23-.26,10.28-.26,23-.26S202.73,155,202.73,155.12Z" style="fill:#263238"></path><path d="M202.73,161.08c0,.15-10.29.26-23,.26s-23-.11-23-.26,10.28-.26,23-.26S202.73,160.94,202.73,161.08Z" style="fill:#263238"></path><path d="M188.92,167.05c0,.14-7.19.26-16.06.26s-16.06-.12-16.06-.26,7.19-.26,16.06-.26S188.92,166.91,188.92,167.05Z" style="fill:#263238"></path><path d="M238.9,149.82a49.8,49.8,0,0,1-7.26.26,49.8,49.8,0,0,1-7.26-.26,51.55,51.55,0,0,1,7.26-.26A51.55,51.55,0,0,1,238.9,149.82Z" style="fill:#263238"></path><path d="M270.17,155.12c0,.14-10.28.26-23,.26s-23-.12-23-.26,10.28-.26,23-.26S270.17,155,270.17,155.12Z" style="fill:#263238"></path><path d="M270.17,161.08c0,.15-10.28.26-23,.26s-23-.11-23-.26,10.28-.26,23-.26S270.17,160.94,270.17,161.08Z" style="fill:#263238"></path><path d="M256.37,167.05c0,.14-7.19.26-16.06.26s-16.07-.12-16.07-.26,7.19-.26,16.07-.26S256.37,166.91,256.37,167.05Z" style="fill:#263238"></path><path d="M275.1,176.88a12.67,12.67,0,0,0,1.31-.13,8.45,8.45,0,0,0,6.89-6.51,18.75,18.75,0,0,0,.19-4c0-1.42,0-2.94,0-4.55,0-12.89-.05-31.53-.08-54.55,0-11.52,0-24.13,0-37.67V59.17a10.94,10.94,0,0,0-.18-2.57,6.79,6.79,0,0,0-1-2.35A7,7,0,0,0,278,51.34a10.07,10.07,0,0,0-2.65-.21H255.84l-99.06,0a9.84,9.84,0,0,0-3.18.31,7.26,7.26,0,0,0-2.7,1.6,7.16,7.16,0,0,0-2.14,5.73V97c0,16.57,0,32.55,0,47.78,0,7.61,0,15,0,22.25,0,.9,0,1.81,0,2.68a7.24,7.24,0,0,0,4,6.16,7.08,7.08,0,0,0,2.41.73c.83.08,1.71,0,2.57.06h5.12l37.67,0,54.54.08,14.83.05,3.86,0,1.31,0-1.31,0-3.86,0L255.1,177l-54.54.08-37.67,0h-5.12c-.86,0-1.72,0-2.62,0a7.44,7.44,0,0,1-2.56-.77,7.83,7.83,0,0,1-3.68-3.87,7.64,7.64,0,0,1-.61-2.66c-.05-.92,0-1.8,0-2.71,0-7.21,0-14.64,0-22.25,0-15.23,0-31.21,0-47.78q0-12.44,0-25.28V58.8a7.71,7.71,0,0,1,2.3-6.1,7.51,7.51,0,0,1,2.9-1.72,10.28,10.28,0,0,1,3.34-.34l99.06,0h19.53a10.65,10.65,0,0,1,2.75.22A7.45,7.45,0,0,1,282.55,54a7.1,7.1,0,0,1,1.07,2.5,11.54,11.54,0,0,1,.18,2.67V69.5c0,13.54,0,26.15,0,37.67,0,23-.06,41.66-.08,54.55,0,1.61,0,3.13,0,4.55a18.57,18.57,0,0,1-.22,4,8.5,8.5,0,0,1-7,6.52,6,6,0,0,1-1,.08Z" style="fill:#263238"></path></g><g id="freepik--Character--inject-35"><path d="M370.5,106.66a4.6,4.6,0,0,1-1.49-9,4.8,4.8,0,0,1,4.58-7.86,5.74,5.74,0,0,1,8.88-4.25,6.43,6.43,0,0,1,7.93.24,4.59,4.59,0,0,1,3.65,8" style="fill:#263238"></path><path d="M369.8,107.28a19.55,19.55,0,0,1,20.35-17l1,0c10.87,1.18,15.94,11.07,14.46,21.9l-3.38,36.21-.18,1.76L376.66,154l.49-9.24s-10.39-2.15-10-12.64C367.34,127.06,368.57,116.67,369.8,107.28Z" style="fill:#9f7362"></path><path d="M377.07,144.74A25.45,25.45,0,0,0,391,141.4s-3.6,7.38-14,5.92Z" style="fill:#65463c"></path><path d="M372.08,116.94a1.49,1.49,0,0,0,1.37,1.58,1.41,1.41,0,0,0,1.6-1.27,1.49,1.49,0,0,0-1.36-1.58A1.42,1.42,0,0,0,372.08,116.94Z" style="fill:#263238"></path><path d="M371.8,112.51c.18.21,1.35-.58,3-.49s2.75,1,2.93.76-.08-.45-.57-.85a4.23,4.23,0,0,0-2.34-.85,4,4,0,0,0-2.37.64C371.9,112.08,371.71,112.42,371.8,112.51Z" style="fill:#263238"></path><path d="M386.74,117.72a1.49,1.49,0,0,0,1.37,1.58,1.43,1.43,0,0,0,1.61-1.27,1.49,1.49,0,0,0-1.37-1.58A1.43,1.43,0,0,0,386.74,117.72Z" style="fill:#263238"></path><path d="M387.61,113.6c.17.2,1.35-.58,3-.49s2.75.94,2.93.75-.08-.44-.57-.84a4.15,4.15,0,0,0-2.34-.85,3.94,3.94,0,0,0-2.37.64C387.71,113.16,387.52,113.51,387.61,113.6Z" style="fill:#263238"></path><path d="M381.17,125.25a10.22,10.22,0,0,0-2.59-.6c-.41-.07-.79-.17-.85-.45a2.09,2.09,0,0,1,.34-1.21l1.37-3.07c1.91-4.37,3.31-8,3.14-8s-1.87,3.41-3.78,7.78l-1.32,3.09a2.39,2.39,0,0,0-.3,1.61,1,1,0,0,0,.65.63,2.84,2.84,0,0,0,.69.13A10.66,10.66,0,0,0,381.17,125.25Z" style="fill:#263238"></path><path d="M387.26,109.93c.2.41,1.6,0,3.3.07s3.12.38,3.29,0c.08-.2-.2-.58-.8-.94a5,5,0,0,0-2.52-.66,4.89,4.89,0,0,0-2.5.63C387.45,109.35,387.18,109.73,387.26,109.93Z" style="fill:#263238"></path><path d="M372.05,105.87c.32.38,1.67.07,3.27.13s2.94.39,3.27,0c.14-.18,0-.56-.63-.93a5.46,5.46,0,0,0-5.26-.13C372.12,105.32,371.91,105.69,372.05,105.87Z" style="fill:#263238"></path><path d="M371.05,102.52s3.09-6.42,6.33-7.8c3.92-1.66,5.36,2.63,9.06,1.79s7.44-2.44,11,.57c3.93,3.29,1.91,5.36,1.93,10,.09,18.9,3.27,24.4,4.69,15.57.15-1,2.89-1.61,3.49-5.7.79-5.3,1.31-11.76.31-15.6-.84-3.23-2.55-5.52-5.69-8.11-4.95-4.09-12-4.52-16.83-4.28S371,94.29,371.05,102.52Z" style="fill:#263238"></path><path d="M403.43,122.35a2.86,2.86,0,0,1,3.21-2.59c1.94.29,4.06,1.5,3.73,5.53-.58,7.16-7.64,5.09-7.64,4.89S403.16,125.34,403.43,122.35Z" style="fill:#9f7362"></path><path d="M404.51,127.61s.12.1.32.22a1.26,1.26,0,0,0,.93.09,3.08,3.08,0,0,0,1.65-2.65,4.12,4.12,0,0,0-.2-1.81,1.46,1.46,0,0,0-.86-1,.62.62,0,0,0-.76.28c-.12.19-.08.34-.12.35s-.14-.14-.06-.43a.77.77,0,0,1,.32-.42.92.92,0,0,1,.7-.13,1.77,1.77,0,0,1,1.21,1.22,4.22,4.22,0,0,1,.27,2c-.16,1.43-1,2.72-2.07,2.94a1.32,1.32,0,0,1-1.12-.29C404.51,127.79,404.48,127.63,404.51,127.61Z" style="fill:#65463c"></path><path d="M404,108.47a6.81,6.81,0,0,1-3.1,1.25,2.34,2.34,0,0,1-2.51-1.77c-.06-.51.09-1.08-.22-1.48s-1.1-.37-1.7-.34a4.57,4.57,0,0,1-4.58-3.51,1.92,1.92,0,0,1-2.59.11,9.94,9.94,0,0,1-1.84-2.18A3,3,0,0,0,385,99.2a6.69,6.69,0,0,1-1.58.26c-.93-.13-1.34-1.25-1.43-2.19s-.16-2-.93-2.58a3.74,3.74,0,0,0-2.55-.2c-.88.08-2-.17-2.16-1a1.72,1.72,0,0,1,.38-1.29,4.65,4.65,0,0,1,5.56-1.48A6.3,6.3,0,0,1,394,90.05,6.37,6.37,0,0,1,404,92.88a4.63,4.63,0,0,1,4.88,7,4.37,4.37,0,0,1,2.24,3.61c0,1.49-1.56,2.89-3,2.43a2.56,2.56,0,0,1-4.56,2.33" style="fill:#263238"></path><path d="M381.7,92.77s0,0,0,.13,0,.22,0,.39a4.57,4.57,0,0,0,.45,1.4,5.31,5.31,0,0,0,1.5,1.78,4.89,4.89,0,0,0,2.9,1l-.12-.17a2.6,2.6,0,0,0,.05,2,7.48,7.48,0,0,0,1.14,1.82,5,5,0,0,0,.76.86,2.51,2.51,0,0,0,1.11.48,2.64,2.64,0,0,0,2.35-.71l-.27-.09a5.39,5.39,0,0,0,2.1,3.83,3.94,3.94,0,0,0,2.31.89,7.18,7.18,0,0,0,2.34-.4l-.18-.09a5.58,5.58,0,0,0,1.58,2.29,3,3,0,0,0,2.46.81,4,4,0,0,0,3.19-2.94l-.16.07a3.69,3.69,0,0,0,2.44.48,4.13,4.13,0,0,0,1.76-.68,3.63,3.63,0,0,0,.84-.83,1.27,1.27,0,0,0,.2-.37,3.89,3.89,0,0,1-2.82,1.71,3.53,3.53,0,0,1-2.3-.5l-.13-.08,0,.15a3.74,3.74,0,0,1-3,2.72,2.71,2.71,0,0,1-2.23-.76,5.48,5.48,0,0,1-1.49-2.17l-.05-.14-.13,0A6.86,6.86,0,0,1,396,106a3.66,3.66,0,0,1-2.13-.83,5.05,5.05,0,0,1-2-3.61l0-.34-.24.25a2.31,2.31,0,0,1-2.07.63,2.19,2.19,0,0,1-1-.42,4.61,4.61,0,0,1-.71-.8,7.28,7.28,0,0,1-1.12-1.75,2.4,2.4,0,0,1-.07-1.8l.07-.16h-.18a4.57,4.57,0,0,1-2.77-.9,5.1,5.1,0,0,1-1.5-1.68A5.35,5.35,0,0,1,381.7,92.77Z" style="fill:#455a64"></path><path d="M386.06,129.7a12.15,12.15,0,0,1-3.42.74,12,12,0,0,1-3.49.23,11.75,11.75,0,0,1,3.42-.74A12,12,0,0,1,386.06,129.7Z" style="fill:#263238"></path><path d="M425.86,404.9a11.58,11.58,0,0,0,0,1.9c0,1.21.13,3,.25,5.15.25,4.35.68,10.35,1.18,17s.94,12.63,1.22,17c.14,2.1.25,3.83.34,5.15a12.81,12.81,0,0,0,.19,1.89,10.91,10.91,0,0,0,0-1.9c0-1.22-.06-3-.15-5.16-.17-4.35-.54-10.36-1.05-17s-1-12.53-1.35-17c-.18-2.09-.32-3.82-.44-5.14A11.92,11.92,0,0,0,425.86,404.9Z" style="fill:#455a64"></path><path d="M425.86,404.9a11.58,11.58,0,0,0,0,1.9c0,1.21.13,3,.25,5.15.25,4.35.68,10.35,1.18,17s.94,12.63,1.22,17c.14,2.1.25,3.83.34,5.15a12.81,12.81,0,0,0,.19,1.89,10.91,10.91,0,0,0,0-1.9c0-1.22-.06-3-.15-5.16-.17-4.35-.54-10.36-1.05-17s-1-12.53-1.35-17c-.18-2.09-.32-3.82-.44-5.14A11.92,11.92,0,0,0,425.86,404.9Z" style="fill:#455a64"></path><path d="M377.92,436.26l.36,20.31s-20.52,7.18-20.82,10.94l39.4.72.74-31.67Z" style="fill:#263238"></path><path d="M390.5,455.08a1.61,1.61,0,0,1,1.08,1.86,1.55,1.55,0,0,1-1.83,1.08,1.7,1.7,0,0,1-1.14-2,1.61,1.61,0,0,1,2-.92" style="fill:#e0e0e0"></path><path d="M396.86,468.23l-.05-3.19-37.76.5s-1.77.73-1.59,2Z" style="fill:#455a64"></path><path d="M377.65,456.35c0,.2,1,.3,1.9.94s1.42,1.45,1.6,1.38-.09-1.19-1.24-1.94S377.61,456.18,377.65,456.35Z" style="fill:#fff"></path><path d="M373.48,458c-.05.18.78.53,1.42,1.35s.81,1.69,1,1.69.34-1.09-.48-2.11S373.49,457.8,373.48,458Z" style="fill:#fff"></path><path d="M371,462.89c.18.05.46-.91,0-2s-1.37-1.5-1.45-1.34.46.73.84,1.61S370.85,462.87,371,462.89Z" style="fill:#fff"></path><path d="M378.08,451.72c.08.17,1-.08,2.05,0s1.93.45,2,.29-.7-.87-2-1S378,451.56,378.08,451.72Z" style="fill:#fff"></path><path d="M426,435l2.13,24.49-3.89,19.85a2.52,2.52,0,0,0,2.15,3h0a2.52,2.52,0,0,0,2.17-.79c3.51-3.83,16.36-18,16.11-19.76-.3-2.07-.54-26-.54-26Z" style="fill:#263238"></path><path d="M426.39,482.33l18.17-22.21.07,1a3.82,3.82,0,0,1-.74,2.51c-1.44,1.93-5.54,7.17-15.26,17.87a2.51,2.51,0,0,1-2.24.79Z" style="fill:#455a64"></path><g style="opacity:0.6000000000000001"><path d="M439,452.53a1.52,1.52,0,0,0-.29,2,1.46,1.46,0,0,0,2,.31,1.61,1.61,0,0,0,.3-2.13,1.52,1.52,0,0,0-2.11-.09" style="fill:#fff"></path></g><path d="M431.31,471.25a5.45,5.45,0,0,0-5.13-2.12c0-.06.27-.27.84-.39a4,4,0,0,1,2.23.25,3.85,3.85,0,0,1,1.74,1.4C431.31,470.87,431.37,471.23,431.31,471.25Z" style="fill:#fff"></path><path d="M429.78,474.65a20.07,20.07,0,0,0-2.24-.91,21.46,21.46,0,0,0-2.42-.16,2.79,2.79,0,0,1,2.54-.37C429.13,473.54,429.9,474.58,429.78,474.65Z" style="fill:#fff"></path><path d="M434.29,466.84a24.52,24.52,0,0,0-3.36-1.65,25.19,25.19,0,0,0-3.69-.61,5.54,5.54,0,0,1,3.86.1A5.48,5.48,0,0,1,434.29,466.84Z" style="fill:#fff"></path><path d="M434.27,459.34c-.06.15-1.45-.33-3.22-.28s-3.14.56-3.2.42a6.24,6.24,0,0,1,6.42-.14Z" style="fill:#fff"></path><path d="M433.82,452.14a11.69,11.69,0,0,0-3.34-.38,12.37,12.37,0,0,0-3.2,1s.21-.37.75-.73a5.47,5.47,0,0,1,4.91-.49C433.55,451.81,433.86,452.08,433.82,452.14Z" style="fill:#fff"></path><path d="M430.44,450.39a2.13,2.13,0,0,1-.09-.93,6.34,6.34,0,0,1,.58-2.48,2.82,2.82,0,0,1,1.14-1.44,1,1,0,0,1,1.15.15,1.69,1.69,0,0,1,.46,1.08,3.57,3.57,0,0,1-2.9,3.49,4.13,4.13,0,0,1-4.19-1.9,1.41,1.41,0,0,1-.14-1.18,1,1,0,0,1,1-.59,3.57,3.57,0,0,1,1.67.73,7.1,7.1,0,0,1,1.79,1.8,2.48,2.48,0,0,1,.44.83,11.77,11.77,0,0,0-2.44-2.31,3.26,3.26,0,0,0-1.47-.6.53.53,0,0,0-.55.31,1,1,0,0,0,.14.78,3.69,3.69,0,0,0,3.65,1.6,3.09,3.09,0,0,0,2.5-2.92,1.12,1.12,0,0,0-.29-.77.55.55,0,0,0-.63-.1,2.63,2.63,0,0,0-1,1.21A9.35,9.35,0,0,0,430.44,450.39Z" style="fill:#fff"></path><path d="M358.77,266.66a87.08,87.08,0,0,0-1.9,25.66c.42,5.45,18.82,156.34,18.82,156.34h24.85l-7-141.81,2,.44s13.57,60.48,14.67,70.28c1,8.8,12.44,72.75,12.44,72.75l22.72.26L438.16,366l-8.44-81.16-3.18-23.62Z" style="fill:#455a64"></path><path d="M397.47,292.38a4.6,4.6,0,0,1-1,.59,11.92,11.92,0,0,1-3.08,1.07,6.26,6.26,0,0,1-2.29,0,4.6,4.6,0,0,1-2.39-1.15,5.67,5.67,0,0,1-1.46-2.54c-.29-1-.46-2-.66-3-.79-4.09-1.33-7.83-1.64-10.54-.16-1.36-.26-2.46-.32-3.22a4.54,4.54,0,0,1,0-1.19,6.54,6.54,0,0,1,.23,1.17c.13.86.29,1.93.49,3.19.4,2.7,1,6.41,1.79,10.49.4,2,.67,4.08,1.93,5.28a5.19,5.19,0,0,0,4.29,1.12,14.24,14.24,0,0,0,3.05-.9A6.43,6.43,0,0,1,397.47,292.38Z" style="fill:#263238"></path><path d="M390,273.15a.8.8,0,0,1,.51-.15,2.25,2.25,0,0,1,1.4.44,2.51,2.51,0,0,1,1,1.92,2.46,2.46,0,0,1-4.19,1.58,2.49,2.49,0,0,1-.48-2.14,2.22,2.22,0,0,1,.76-1.25c.28-.21.47-.24.48-.22a2.83,2.83,0,0,0-.87,1.54,2.17,2.17,0,0,0,.47,1.75,1.87,1.87,0,0,0,2.06.38,1.85,1.85,0,0,0,1.29-1.64,2.18,2.18,0,0,0-.79-1.62A2.72,2.72,0,0,0,390,273.15Z" style="fill:#263238"></path><path d="M429.37,283.38a2.79,2.79,0,0,1-.84.13,16.85,16.85,0,0,1-2.33,0,22.65,22.65,0,0,1-14-5.88,15.05,15.05,0,0,1-1.6-1.69c-.35-.42-.53-.67-.5-.69s.87.85,2.35,2.1a25.08,25.08,0,0,0,13.74,5.79C428.16,283.35,429.37,283.28,429.37,283.38Z" style="fill:#263238"></path><path d="M369,273.6a10,10,0,0,1-1.28,2.54,28.49,28.49,0,0,1-9.78,9.5,10.35,10.35,0,0,1-2.57,1.22c0-.07.92-.58,2.37-1.53a36,36,0,0,0,5.3-4.22,35.09,35.09,0,0,0,4.36-5.18C368.35,274.51,368.89,273.56,369,273.6Z" style="fill:#263238"></path><path d="M288.67,171.18l12.81,5.29,13.26,19.24L310.51,202l-3.67-3.67s-14.54-3.4-15.48-5.46a3.72,3.72,0,0,1,.35-3.7,8.26,8.26,0,0,1,.09-3.91,2.6,2.6,0,0,1,1.94-1.84,1.92,1.92,0,0,1-.78-2.65,3.45,3.45,0,0,1,2.24-2.22s-8.54-4.46-9.25-5.63a.89.89,0,0,1,.14-1.12A2.24,2.24,0,0,1,288.67,171.18Z" style="fill:#9f7362"></path><path d="M317.19,192l-2.45-3.68-5.16-10.18-12.51-4s-2.18.85.57,4.63a7.87,7.87,0,0,0,6.93,3.26s-1.32,7.84.73,11.48,8.08,4.27,8.08,4.27Z" style="fill:#9f7362"></path><path d="M305.12,194.07a3.67,3.67,0,0,1-.51-.81,11.72,11.72,0,0,1-.92-2.47,13,13,0,0,1,.82-8.59l.18.37-.45-.1a15.91,15.91,0,0,1-4.72-1.59,6.2,6.2,0,0,1-2.74-3,4.34,4.34,0,0,1-.25-2.74,1.94,1.94,0,0,1,.43-.92s-.13.34-.24,1a4.53,4.53,0,0,0,.4,2.55,6,6,0,0,0,2.64,2.76,16.5,16.5,0,0,0,4.59,1.5l.45.1.32.07-.14.29a13.28,13.28,0,0,0-.93,8.29A28.17,28.17,0,0,0,305.12,194.07Z" style="fill:#65463c"></path><path d="M294.07,183.79s.46.19,1.28.52,2,.78,3.47,1.42a12.54,12.54,0,0,1,2.3,1.25,2.5,2.5,0,0,1,1,1.2,1.81,1.81,0,0,1-.34,1.64,3,3,0,0,1-1.39,1,3,3,0,0,1-1.79,0l-.83-.19a5.46,5.46,0,0,1-.88-.24c-.56-.19-1.12-.43-1.68-.67l-1.48-.64.19-.49a13,13,0,0,1,2.81,1.74l1.23.9a13.14,13.14,0,0,1,1.22.87,1.77,1.77,0,0,1,.64,1.39,1.13,1.13,0,0,1-.31.74,1.54,1.54,0,0,1-.62.39,5.59,5.59,0,0,1-2.4.18,11.28,11.28,0,0,1-3.24-1,5.67,5.67,0,0,1-1.09-.58,7,7,0,0,1,1.16.4,13.25,13.25,0,0,0,3.2.84,5.52,5.52,0,0,0,2.22-.22.85.85,0,0,0,.64-.76,1.37,1.37,0,0,0-.52-1,12.05,12.05,0,0,0-1.18-.81l-1.24-.9a13.28,13.28,0,0,0-2.7-1.65l.19-.48,1.49.65c.55.23,1.1.46,1.64.65a6.15,6.15,0,0,0,.81.23c.29.05.57.13.85.19a2.52,2.52,0,0,0,1.51,0,2.61,2.61,0,0,0,1.17-.84,1.36,1.36,0,0,0,.28-1.23,2.07,2.07,0,0,0-.81-1,13.27,13.27,0,0,0-2.21-1.27c-1.42-.67-2.61-1.17-3.4-1.57A4.91,4.91,0,0,1,294.07,183.79Z" style="fill:#65463c"></path><path d="M295.34,178.61a9.4,9.4,0,0,1,2.64,1,19.66,19.66,0,0,1,2.64,1.63c.47.34.95.72,1.43,1.14a2.66,2.66,0,0,1,1.13,1.77,1.34,1.34,0,0,1-.52,1.06,1.93,1.93,0,0,1-1,.41,6.77,6.77,0,0,1-1.88-.12,24.9,24.9,0,0,1-3-.79,8.74,8.74,0,0,1-2.6-1.16c0-.07,1,.35,2.71.8a26.81,26.81,0,0,0,3,.67,6.2,6.2,0,0,0,1.72.1c.55-.06,1.09-.45,1.08-1a2.28,2.28,0,0,0-1-1.4q-.69-.62-1.38-1.14A25.83,25.83,0,0,0,297.8,180C296.31,179.11,295.3,178.69,295.34,178.61Z" style="fill:#65463c"></path><path d="M340.78,203.52l11.61-37.11,18.78-10.24L360,220.26l-2.24,4.79c-5.21,9.73-15.36,7.5-24.15,2.6-.32-.17-.62-.35-.92-.54l-25.32-21.78,9.54-14.61Z" style="fill:#e0e0e0"></path><path d="M343.09,215.15c-.16,0-.07-2.69-.8-5.88s-1.92-5.58-1.77-5.66a17.66,17.66,0,0,1,2.57,11.54Z" style="fill:#263238"></path><path d="M370.19,154.79c-4.74.29-13.33,3.14-17,9.93-3,5.68-3.87,29.93-4,30.5l9.14,2.37L370,214.86l47.81-10.67,3,7.54,1.83-54S374.93,154.49,370.19,154.79Z" style="fill:#e0e0e0"></path><path d="M425.72,236.39l3.65-51.58-.85-24.46-22.35-9.86L404,141.94,380.8,152.89,376,147.53l-2,6-5.08,1.65L357,175.4l.17,33.76S356,250.4,357,264.75a4.43,4.43,0,0,0,3,3.9,43,43,0,0,0,12.66,1.87c23.32.56,55.07-.92,55.07-.92l.33-1a20.37,20.37,0,0,0,.78-8.81Z" style="fill:#e0e0e0"></path><path d="M372.68,268.52a1,1,0,0,1-.05-.28c0-.23,0-.5-.06-.83,0-.78-.1-1.83-.18-3.17-.12-2.81-.3-6.78-.51-11.67-.37-9.85-.84-23.48-.68-38.54.09-7.53.34-14.72,1.06-21.22s1.87-12.28,2.88-17.11,2-8.7,2.61-11.38c.32-1.3.58-2.32.77-3.08l.22-.8a.91.91,0,0,1,.09-.26,1,1,0,0,1,0,.28c0,.22-.1.49-.16.81l-.66,3.11c-.58,2.69-1.45,6.58-2.42,11.41s-2,10.61-2.74,17.08-.92,13.64-1,21.16c-.15,15.05.24,28.67.5,38.53.13,4.88.24,8.85.32,11.67,0,1.34.05,2.4.07,3.18v.82A1.64,1.64,0,0,1,372.68,268.52Z" style="fill:#263238"></path><path d="M404,141.94s-2.59.75-9.24,4.3-13.91,6.65-13.91,6.65l.57,10.45L406,151" style="fill:#e0e0e0"></path><polyline points="375.96 147.53 380.8 152.88 378.21 164.09 373.89 153.96" style="fill:#e0e0e0"></polyline><g style="opacity:0.30000000000000004"><path d="M380.71,154c-.21.16-1.56,12.93-1.56,12.93l24.69-14.92-22.47,11.29Z"></path></g><path d="M376.49,166.5a363.44,363.44,0,0,0-8.25,53.9c-1,12.59-1.66,29.28-1.66,29.28l5.62,6.95,8.6-7.61s-.37-35.46.08-47.32c.37-9.77-1.17-34.69-1.17-34.69Z" style="fill:#FF725E"></path><polygon points="380.88 157.88 378.68 157.02 376.59 160.61 376.21 166.5 379.15 166.97 381.37 163.34 380.88 157.88" style="fill:#FF725E"></polygon><path d="M381,152.79s-.48.83-1.26,2.13-1.82,3.15-2.8,5.25l-.24.51-.15.33-.16-.33a41.78,41.78,0,0,1-2.06-5.22c-.21-.68-.37-1.23-.46-1.62a2.41,2.41,0,0,1-.11-.6,22.17,22.17,0,0,1,.79,2.15c.48,1.33,1.2,3.16,2.15,5.14h-.31l.24-.51a44.17,44.17,0,0,1,2.9-5.23c.42-.65.78-1.15,1-1.49A2.28,2.28,0,0,1,381,152.79Z" style="fill:#263238"></path><path d="M406.17,150.49s-.11.08-.34.21l-1,.52-3.68,1.91c-3.1,1.61-7.35,3.91-12.06,6.43-2.87,1.53-5.59,2.94-7.95,4.13l-.22.11v-.25c0-3.06-.06-5.65-.08-7.51,0-.88,0-1.59,0-2.12a3.78,3.78,0,0,1,0-.76,3.82,3.82,0,0,1,.06.75c0,.54.05,1.24.08,2.12.05,1.87.12,4.45.2,7.52l-.22-.14c2.35-1.2,5.06-2.63,7.93-4.15,4.71-2.52,9-4.79,12.11-6.35,1.57-.78,2.85-1.4,3.73-1.81l1-.46A1.89,1.89,0,0,1,406.17,150.49Z" style="fill:#263238"></path><path d="M378.62,167.35c-.06.08-.61-.18-1.25-.59s-1.12-.79-1.07-.87.61.18,1.25.58S378.67,167.27,378.62,167.35Z" style="fill:#263238"></path><path d="M379.67,165.91a16.76,16.76,0,0,1-1.49-3,17.07,17.07,0,0,1-1.19-3.12,31.86,31.86,0,0,1,2.68,6.1Z" style="fill:#263238"></path><path d="M356.61,186.48c.14,0,.26,9.75.26,21.78s-.12,21.77-.26,21.77-.27-9.75-.27-21.77S356.46,186.48,356.61,186.48Z" style="fill:#263238"></path><path d="M377.73,154.64a30,30,0,0,1-.33-7.11s1.62-4.61,1.38-5.42-.65-1.69-2.27-.89a6.32,6.32,0,0,0-3.88,4.93,14.3,14.3,0,0,1-.64,3.64l-1.54-2.34.32-2.43s2.29-.57,2.36-1.79a25.71,25.71,0,0,0-2.3-1.64s-4.1.2-4.5,1.74-1.46,4.84-1.46,4.84-3.39.57-3.79,3.32c0,0-1.94,2.58-1.86,4.2a7.66,7.66,0,0,0-1,3.4c.08,1.53,4.52,8,4.52,8l1.23,9.19L376.61,173l-.82-9.23S378.37,158,377.73,154.64Z" style="fill:#9f7362"></path><path d="M377.73,154.64a5.27,5.27,0,0,1,.12.63,9.7,9.7,0,0,1,0,1.84,25.86,25.86,0,0,1-1.9,6.72v-.07c.25,2.58.54,5.7.88,9.22v.17l-.16,0-12.6,3.32-.25.07,0-.26c-.39-2.91-.81-6-1.25-9.2l.05.11c-1.15-1.68-2.29-3.43-3.36-5.3-.27-.47-.52-1-.76-1.45a3.77,3.77,0,0,1-.46-1.67,7.76,7.76,0,0,1,1-3.25l0,.14a4.44,4.44,0,0,1,.42-1.82,13.5,13.5,0,0,1,1.49-2.55l-.05.12a3.78,3.78,0,0,1,1.47-2.42,6.41,6.41,0,0,1,2.54-1.11l-.2.18,1.5-4.94a2,2,0,0,1,1-1,6.15,6.15,0,0,1,1.22-.44,13.93,13.93,0,0,1,2.47-.38h.08l.06,0,1.27.86.63.44.3.24.09.07s0,0,.06.07a.3.3,0,0,1,.06.19l0,.23a2.16,2.16,0,0,1-1.09,1.2,5.88,5.88,0,0,1-1.41.57l.18-.2c-.12.83-.22,1.63-.33,2.43l0-.16c.52.81,1,1.59,1.53,2.35l-.39,0a14.68,14.68,0,0,0,.56-2.79,7,7,0,0,1,.65-2.73,7.48,7.48,0,0,1,3.89-3.32,1.6,1.6,0,0,1,1.27,0,1.62,1.62,0,0,1,.72,1,1.35,1.35,0,0,1,.09.6c0,.2,0,.37-.07.55-.07.36-.15.7-.24,1-.36,1.32-.76,2.49-1.13,3.54v0a32.45,32.45,0,0,0,0,5.28c.05.6.11,1.05.15,1.36a3.13,3.13,0,0,1,.05.46,1.91,1.91,0,0,1-.12-.45c-.06-.3-.14-.76-.21-1.36a30.11,30.11,0,0,1-.12-5.31v0h0c.35-1.05.73-2.23,1.07-3.54.08-.33.16-.66.22-1a4.6,4.6,0,0,0,.06-.52.9.9,0,0,0-.08-.47,1.27,1.27,0,0,0-.56-.79,1.23,1.23,0,0,0-1,0,7.18,7.18,0,0,0-3.66,3.16,6.79,6.79,0,0,0-.58,2.6,14.24,14.24,0,0,1-.57,2.91l-.14.41-.25-.38-1.54-2.34-.05-.07,0-.08c.1-.8.2-1.6.31-2.43l0-.15.16,0a5.68,5.68,0,0,0,1.28-.53,1.78,1.78,0,0,0,.87-.91l0-.14h0l.23,0h0a.14.14,0,0,0-.09,0s-.14.09-.1.1,0,0,0,0l-.05-.05-.29-.22-.61-.43-1.27-.85.15,0a13.89,13.89,0,0,0-2.37.37c-.74.21-1.62.52-1.87,1.13-.48,1.61-1,3.25-1.48,4.92l0,.15-.16,0a5.83,5.83,0,0,0-2.31,1,3.28,3.28,0,0,0-1.28,2.09v.06l0,0a13.25,13.25,0,0,0-1.42,2.45,3.85,3.85,0,0,0-.38,1.59v.07l0,.07a7.55,7.55,0,0,0-.94,3,3.29,3.29,0,0,0,.42,1.43c.23.48.48,1,.74,1.41,1,1.85,2.19,3.6,3.32,5.28l0,.05v.05c.42,3.21.83,6.29,1.22,9.2l-.3-.19,12.62-3.25-.14.21c-.3-3.52-.56-6.65-.78-9.23v-.08a26.32,26.32,0,0,0,2-6.61A10.68,10.68,0,0,0,377.73,154.64Z" style="fill:#65463c"></path><path d="M374.67,154.34a8.89,8.89,0,0,1-1.74-2.45,8.64,8.64,0,0,1-1.27-2.7,8.83,8.83,0,0,1,1.73,2.45A8.93,8.93,0,0,1,374.67,154.34Z" style="fill:#65463c"></path><g style="opacity:0.30000000000000004"><path d="M384.92,227.38a40.86,40.86,0,0,0,39.42-31.63Z"></path></g><path d="M377,172.58l9.33,25.34,26.55-30.55S424.52,154.27,430,162s2.7,22.34-.78,29.27C426,197.73,389.47,228,384,228.63s-12.16.57-15.81-6.34-11.61-44.8-11.61-44.8Z" style="fill:#e0e0e0"></path><path d="M413.24,167s-.14.2-.46.57l-1.4,1.64L406,175.37l-19.53,22.3-.23.27-.12-.33c-2.83-7.52-6-15.92-9.37-24.94l.29.15-18.74,4.52.2-.29c.64,3.84,1.34,7.89,2.09,12,1.23,6.71,2.5,13.25,3.89,19.53.72,3.13,1.42,6.21,2.3,9.17a30.86,30.86,0,0,0,1.54,4.27,13.86,13.86,0,0,0,2.59,3.54,12,12,0,0,0,7.65,3.24,19,19,0,0,0,4.07-.16,11.73,11.73,0,0,0,3.76-1.14,81.4,81.4,0,0,0,12.11-8.08c7.07-5.47,12.51-10.25,16.26-13.56l4.29-3.84,1.11-1c.26-.22.4-.32.4-.32s-.12.13-.36.36l-1.08,1c-.95.91-2.37,2.23-4.23,3.91-3.71,3.36-9.11,8.18-16.16,13.7-1.76,1.38-3.65,2.78-5.64,4.19a52.37,52.37,0,0,1-6.52,4,12.19,12.19,0,0,1-3.87,1.19,19.36,19.36,0,0,1-4.18.18,12.46,12.46,0,0,1-7.94-3.35,14,14,0,0,1-2.69-3.67,33.25,33.25,0,0,1-1.59-4.35c-.89-3-1.59-6.07-2.32-9.2-1.4-6.29-2.67-12.83-3.9-19.55-.75-4.11-1.45-8.16-2.09-12l0-.24.23,0,18.75-4.5.21-.05.08.21,9.29,25-.35-.07,19.66-22.17c2.35-2.64,4.2-4.7,5.47-6.12l1.44-1.6C413.06,167.14,413.24,167,413.24,167Z" style="fill:#263238"></path><path d="M426.83,160.46a24.08,24.08,0,0,0-5.67,1,23.47,23.47,0,0,0-5,2.77A9.9,9.9,0,0,1,421,161,10.08,10.08,0,0,1,426.83,160.46Z" style="fill:#263238"></path></g></svg>