<?xml version="1.0" standalone="no"?>
<!DOCTYPE svg PUBLIC "-//W3C//DTD SVG 20010904//EN"
 "http://www.w3.org/TR/2001/REC-SVG-20010904/DTD/svg10.dtd">
<svg version="1.0" xmlns="http://www.w3.org/2000/svg"
 width="81.000000pt" height="57.000000pt" viewBox="0 0 81.000000 57.000000"
 preserveAspectRatio="xMidYMid meet">

<g transform="translate(0.000000,57.000000) scale(0.100000,-0.100000)"
fill="#000000" stroke="none">
<path d="M97 464 c-10 -13 -26 -24 -35 -24 -9 -1 -28 -7 -42 -15 -24 -14 -24
-14 21 -15 42 0 46 2 63 36 20 44 18 51 -7 18z"/>
<path d="M500 290 c21 -17 23 -21 10 -30 -13 -9 -12 -12 4 -25 11 -8 32 -15
47 -15 18 0 35 -9 48 -26 11 -14 32 -35 47 -47 l28 -22 -32 56 c-34 60 -39 84
-19 92 6 3 -2 6 -19 6 -17 1 -51 8 -74 16 -57 20 -70 19 -40 -5z"/>
<path d="M376 116 c-8 -34 -35 -41 -46 -13 -7 18 -9 15 -9 -20 -1 -66 5 -75
39 -58 28 15 60 51 60 68 0 5 -7 4 -15 -3 -21 -17 -29 -7 -16 18 13 25 14 32
2 32 -5 0 -12 -11 -15 -24z"/>
<path d="M486 48 c15 -32 21 -37 61 -40 37 -3 41 -1 26 9 -9 7 -24 13 -32 13
-8 0 -28 12 -44 28 l-29 27 18 -37z"/>
</g>
</svg>
