<?xml version="1.0" standalone="no"?>
<!DOCTYPE svg PUBLIC "-//W3C//DTD SVG 20010904//EN"
 "http://www.w3.org/TR/2001/REC-SVG-20010904/DTD/svg10.dtd">
<svg version="1.0" xmlns="http://www.w3.org/2000/svg"
 width="140.000000pt" height="79.000000pt" viewBox="0 0 140.000000 79.000000"
 preserveAspectRatio="xMidYMid meet">

<g transform="translate(0.000000,79.000000) scale(0.100000,-0.100000)"
fill="#000000" stroke="none">
<path d="M1190 677 c0 -3 14 -28 31 -56 l32 -51 71 0 c64 1 69 2 52 15 -10 8
-39 17 -64 21 -31 5 -57 17 -83 42 -22 19 -39 32 -39 29z"/>
<path d="M460 409 c-36 -10 -85 -19 -110 -19 -25 0 -52 -5 -60 -10 -12 -8 -11
-10 8 -10 48 0 36 -43 -37 -135 -22 -27 -36 -51 -31 -53 10 -4 114 73 144 107
13 14 26 19 41 15 24 -6 90 9 115 26 13 9 12 13 -8 29 l-22 19 35 22 c19 12
35 24 35 26 0 9 -48 2 -110 -17z"/>
<path d="M700 196 c0 -3 9 -21 21 -40 27 -46 17 -63 -22 -35 -43 30 -45 19 -5
-27 37 -43 105 -80 130 -71 19 8 30 67 21 115 -7 34 -8 35 -14 12 -14 -53 -91
-25 -91 32 0 11 -8 18 -20 18 -11 0 -20 -2 -20 -4z"/>
<path d="M559 94 c-27 -30 -77 -54 -113 -54 -13 0 -34 -9 -47 -21 -19 -16 -20
-19 -6 -15 10 3 46 6 80 6 l62 0 28 51 c32 59 31 70 -4 33z"/>
</g>
</svg>
