<?xml version="1.0" standalone="no"?>
<!DOCTYPE svg PUBLIC "-//W3C//DTD SVG 20010904//EN"
 "http://www.w3.org/TR/2001/REC-SVG-20010904/DTD/svg10.dtd">
<svg version="1.0" xmlns="http://www.w3.org/2000/svg"
 width="623.000000pt" height="350.000000pt" viewBox="0 0 623.000000 350.000000"
 preserveAspectRatio="xMidYMid meet">

<g transform="translate(0.000000,350.000000) scale(0.100000,-0.100000)"
fill="#000000" stroke="none">
<path d="M3180 3484 c0 -3 28 -51 62 -106 34 -55 61 -106 61 -114 0 -7 4 -11
8 -9 7 5 89 -124 89 -142 0 -5 -30 -49 -66 -97 -36 -48 -67 -100 -69 -114 -2
-15 -15 -94 -29 -175 -14 -82 -26 -152 -26 -157 0 -5 -25 -38 -56 -74 -31 -36
-53 -70 -49 -76 3 -5 2 -10 -3 -10 -5 0 -24 -39 -43 -87 -28 -71 -41 -91 -74
-115 -36 -25 -46 -43 -94 -164 -54 -133 -55 -135 -71 -113 -19 24 -17 25 -122
-35 -51 -29 -79 -32 -196 -22 -72 7 -73 7 -121 -28 l-49 -36 -122 0 -122 0
-160 120 c-113 85 -175 124 -214 136 -29 10 -56 16 -58 13 -13 -13 -175 -293
-172 -296 2 -3 36 5 76 17 40 12 74 20 76 17 2 -2 27 -116 55 -253 27 -136 51
-249 52 -250 1 -1 29 2 62 7 141 21 706 89 740 89 31 0 78 -25 264 -141 215
-134 233 -147 359 -273 108 -106 134 -128 143 -116 5 8 30 55 55 103 28 55 49
85 56 81 7 -4 8 -3 4 4 -9 14 9 48 102 197 80 127 288 421 305 432 5 3 49 16
96 28 l86 21 64 92 c35 51 66 90 69 88 2 -3 34 -113 71 -245 l68 -241 -52 -63
c-28 -34 -91 -111 -139 -172 -108 -134 -119 -146 -112 -125 3 8 26 120 51 249
25 129 50 242 56 252 27 52 -19 -7 -232 -298 -244 -333 -502 -687 -503 -690
-1 0 -73 10 -161 23 -88 13 -166 24 -173 24 -26 0 -6 19 130 120 76 56 136
106 133 110 -2 4 -35 10 -72 14 -37 4 -128 16 -201 26 -177 26 -167 28 -139
-22 67 -117 126 -237 119 -241 -4 -3 -65 -18 -137 -35 -71 -17 -186 -44 -255
-61 -69 -16 -184 -39 -256 -52 l-132 -22 -93 -74 c-52 -41 -141 -98 -199 -128
-191 -97 -217 -113 -195 -120 90 -29 155 -85 155 -132 l0 -23 1756 0 1756 0
-6 30 c-9 49 -35 78 -92 106 -44 21 -64 26 -104 22 -54 -5 -90 -29 -90 -60 0
-24 -4 -23 -33 6 -33 33 -94 49 -200 52 -49 1 -90 4 -93 6 -2 3 33 10 79 17
113 17 447 69 532 83 l70 11 -230 34 c-126 18 -261 37 -300 43 -38 5 -131 18
-205 29 -379 56 -572 81 -583 75 -7 -4 -5 0 3 8 8 8 133 86 278 173 l263 157
327 -77 c180 -42 338 -80 352 -85 14 -5 66 -14 115 -20 50 -7 148 -21 218 -32
71 -11 130 -18 133 -15 2 2 -56 67 -129 143 -94 97 -183 205 -296 359 l-162
220 -117 74 c-115 72 -120 77 -259 245 -78 94 -221 267 -319 385 l-177 215
-23 -28 -24 -27 -220 223 -219 223 -1 91 0 90 -84 173 c-46 95 -87 175 -91
179 -7 7 -136 3 -222 -7 -35 -4 -63 -4 -63 -1 0 4 27 39 61 79 33 40 59 76 57
81 -2 4 -42 44 -89 87 -83 77 -88 80 -172 101 -95 24 -97 25 -97 16z m215
-1124 c-4 -11 -2 -20 4 -20 6 0 11 -5 11 -12 0 -8 -5 -7 -15 3 -9 9 -13 23 -9
32 9 24 17 21 9 -3z m-308 -46 c-3 -3 -12 -4 -19 -1 -8 3 -5 6 6 6 11 1 17 -2
13 -5z m-397 -484 c0 -5 -2 -10 -4 -10 -3 0 -8 5 -11 10 -3 6 -1 10 4 10 6 0
11 -4 11 -10z m205 -118 c-3 -3 -11 0 -18 7 -9 10 -8 11 6 5 10 -3 15 -9 12
-12z m-122 -329 c-7 -2 -19 -2 -25 0 -7 3 -2 5 12 5 14 0 19 -2 13 -5z m90
-10 c-7 -2 -19 -2 -25 0 -7 3 -2 5 12 5 14 0 19 -2 13 -5z m87 -10 c-8 -3 -18
-10 -21 -15 -3 -5 -9 -3 -11 4 -4 9 3 14 21 15 14 1 19 -1 11 -4z m-197 -16
c3 -8 -1 -14 -8 -14 -7 0 -11 6 -8 14 3 7 6 13 8 13 2 0 5 -6 8 -13z m1195
-339 c-8 -13 -61 -105 -117 -204 l-102 -182 -107 -6 c-59 -4 -138 -9 -177 -12
-59 -5 -68 -4 -57 7 19 21 556 417 566 418 4 1 2 -9 -6 -21z m-198 -752 c0 -2
-7 -7 -16 -10 -8 -3 -12 -2 -9 4 6 10 25 14 25 6z"/>
<path d="M3090 3180 c-9 -6 -10 -10 -3 -10 6 0 15 5 18 10 8 12 4 12 -15 0z"/>
<path d="M3010 3150 c-8 -5 -10 -10 -5 -10 6 0 17 5 25 10 8 5 11 10 5 10 -5
0 -17 -5 -25 -10z"/>
<path d="M3984 1540 c-12 -5 -25 -13 -29 -19 -3 -6 -11 -8 -17 -5 -7 4 -8 2
-4 -4 4 -8 18 -5 41 9 19 12 35 23 35 25 0 5 0 5 -26 -6z"/>
<path d="M3913 1503 c4 -3 1 -13 -6 -22 -11 -14 -10 -14 5 -2 16 12 16 31 1
31 -4 0 -3 -3 0 -7z"/>
<path d="M3855 1480 c-3 -6 1 -7 9 -4 18 7 21 14 7 14 -6 0 -13 -4 -16 -10z"/>
<path d="M3810 1460 c-8 -5 -10 -10 -5 -10 6 0 17 5 25 10 8 5 11 10 5 10 -5
0 -17 -5 -25 -10z"/>
<path d="M3745 1430 c-3 -6 1 -7 9 -4 18 7 21 14 7 14 -6 0 -13 -4 -16 -10z"/>
<path d="M3755 1374 l-30 -26 33 22 c17 12 32 23 32 26 0 7 -4 5 -35 -22z"/>
<path d="M3655 1304 l-30 -26 33 22 c17 12 32 23 32 26 0 7 -4 5 -35 -22z"/>
<path d="M3539 1223 c-13 -16 -12 -17 4 -4 16 13 21 21 13 21 -2 0 -10 -8 -17
-17z"/>
<path d="M3412 1010 c0 -14 2 -19 5 -12 2 6 2 18 0 25 -3 6 -5 1 -5 -13z"/>
<path d="M3401 954 c0 -11 3 -14 6 -6 3 7 2 16 -1 19 -3 4 -6 -2 -5 -13z"/>
<path d="M3391 894 c0 -11 3 -14 6 -6 3 7 2 16 -1 19 -3 4 -6 -2 -5 -13z"/>
<path d="M3311 844 c0 -11 3 -14 6 -6 3 7 2 16 -1 19 -3 4 -6 -2 -5 -13z"/>
<path d="M3382 830 c0 -14 2 -19 5 -12 2 6 2 18 0 25 -3 6 -5 1 -5 -13z"/>
<path d="M3321 794 c0 -11 3 -14 6 -6 3 7 2 16 -1 19 -3 4 -6 -2 -5 -13z"/>
<path d="M3331 744 c0 -11 3 -14 6 -6 3 7 2 16 -1 19 -3 4 -6 -2 -5 -13z"/>
<path d="M3341 690 c1 -8 5 -26 9 -40 l8 -25 1 25 c0 14 -4 32 -9 40 -9 13
-10 13 -9 0z"/>
<path d="M5690 418 c-91 -66 -174 -123 -184 -127 -11 -4 -15 -10 -10 -13 5 -3
124 -22 264 -43 140 -20 262 -40 270 -43 8 -3 -9 -9 -39 -14 -101 -16 -181
-82 -181 -149 0 -29 1 -29 60 -29 l60 0 0 30 c0 53 39 106 105 145 16 10 10
26 -70 170 -49 88 -93 167 -99 176 -10 14 -33 0 -176 -103z"/>
<path d="M6050 130 c-26 -26 -25 -46 2 -68 12 -9 32 -27 44 -40 18 -19 31 -23
69 -20 l46 3 -62 73 c-33 39 -65 72 -70 72 -5 0 -18 -9 -29 -20z"/>
</g>
</svg>
