<?xml version="1.0" standalone="no"?>
<!DOCTYPE svg PUBLIC "-//W3C//DTD SVG 20010904//EN"
 "http://www.w3.org/TR/2001/REC-SVG-20010904/DTD/svg10.dtd">
<svg version="1.0" xmlns="http://www.w3.org/2000/svg"
 width="394.000000pt" height="186.000000pt" viewBox="0 0 394.000000 186.000000"
 preserveAspectRatio="xMidYMid meet">

<g transform="translate(0.000000,186.000000) scale(0.100000,-0.100000)"
fill="#000000" stroke="none">
<path d="M2523 1811 c-151 -52 -279 -217 -305 -393 l-11 -70 -96 7 c-53 4
-100 11 -105 16 -15 13 -48 10 -70 -6 -16 -12 -53 -13 -210 -9 -171 5 -193 8
-208 25 -23 27 -92 26 -111 -2 -15 -20 -22 -21 -198 -18 -173 3 -182 2 -189
-16 -4 -11 -15 -87 -24 -170 -16 -144 -40 -260 -56 -270 -5 -3 -13 18 -20 45
-7 28 -15 52 -20 55 -8 5 -48 -134 -56 -193 -2 -20 -7 -48 -10 -62 -16 -79 9
-250 37 -250 5 0 9 4 9 9 0 5 9 13 20 16 17 5 18 10 9 27 -15 29 6 73 42 88
17 7 29 20 29 30 0 16 -22 132 -37 198 -5 21 -2 22 46 22 l51 0 1 158 c1 171
2 170 39 -47 11 -63 24 -117 29 -120 5 -3 11 -15 14 -26 4 -18 5 -18 6 3 1 20
6 23 40 20 22 -1 38 -5 35 -9 -3 -5 10 -5 28 -2 18 4 87 7 153 8 66 1 109 0
95 -2 -24 -4 -25 -7 -25 -73 0 -37 3 -72 8 -76 10 -11 9 -52 -3 -59 -5 -3 -9
-18 -9 -33 l1 -27 8 30 c8 33 11 32 14 -6 1 -19 -3 -26 -14 -24 -8 1 -29 -4
-47 -12 -39 -16 -133 -18 -133 -2 0 5 -4 8 -9 5 -15 -9 -19 16 -27 143 -4 67
-11 121 -15 121 -8 0 -3 -199 6 -243 2 -9 0 -15 -3 -13 -4 2 -20 -2 -36 -9
-29 -12 -29 -13 -7 -20 13 -4 29 -21 37 -38 l15 -32 -6 30 c-3 17 -13 36 -22
43 -9 6 -12 12 -6 12 7 0 15 -4 18 -10 3 -5 15 -10 25 -10 11 0 20 -9 23 -22
l4 -23 2 23 c1 15 7 22 21 22 18 0 20 -7 20 -60 0 -46 -4 -62 -16 -67 -9 -3
-20 0 -24 7 -6 10 -9 9 -12 -1 -4 -11 -9 -12 -26 -2 -16 10 -23 9 -31 -1 -6
-7 -7 -17 -3 -21 4 -5 1 -5 -6 -1 -11 7 -10 11 2 25 9 10 16 34 16 54 0 28 -6
40 -26 53 -23 16 -28 16 -57 2 -40 -19 -57 -6 -58 44 0 33 0 33 -16 11 l-15
-23 -30 25 c-34 29 -46 31 -76 9 -32 -22 -30 -69 5 -91 l27 -18 -33 -5 c-45
-7 -62 -33 -38 -57 12 -13 46 -21 110 -29 l92 -11 -127 -2 c-70 0 -162 -6
-204 -12 -57 -8 -79 -8 -82 0 -2 6 -9 8 -15 4 -18 -11 -56 -12 -62 -2 -4 5
-11 9 -17 9 -6 0 -5 -7 3 -17 13 -15 11 -16 -21 -9 -19 3 -37 11 -38 17 -3 8
-42 -26 -42 -37 0 -4 202 5 362 17 l136 9 74 -29 c40 -15 82 -32 93 -36 16 -7
11 -10 -25 -16 -101 -17 -161 -52 -108 -63 13 -3 104 -10 203 -16 99 -6 182
-15 185 -20 8 -12 1277 -19 1356 -8 135 20 429 49 469 47 79 -3 97 1 123 31
27 31 67 45 42 15 -20 -24 -4 -29 19 -6 26 26 36 26 47 1 9 -20 10 -20 47 7
42 29 37 55 -6 36 -21 -10 -92 -3 -101 9 -1 1 -1 24 2 51 3 36 8 47 21 47 9 0
22 5 29 12 17 17 15 85 -4 100 -8 7 -23 21 -32 31 -23 24 -59 22 -73 -5 -7
-12 -21 -29 -31 -38 -11 -8 -22 -33 -25 -57 -5 -36 -2 -43 20 -58 16 -10 34
-14 47 -10 19 6 21 3 18 -26 -3 -32 -4 -33 -57 -36 -40 -2 -60 -9 -74 -24 -14
-15 -22 -18 -30 -10 -28 28 -37 -1 -10 -31 15 -17 14 -18 -24 -18 -22 0 -43 3
-47 7 -13 13 -46 13 -46 -1 0 -12 -59 -26 -111 -26 -26 0 -24 23 5 51 14 13
22 27 20 31 -8 12 -51 -13 -64 -38 -7 -13 -17 -21 -22 -18 -5 3 -12 -3 -15
-15 -7 -28 -65 -29 -92 -2 -12 12 -27 17 -45 14 -21 -4 -26 -2 -26 16 0 12 6
21 15 21 17 0 20 25 5 35 -14 8 -50 -13 -50 -30 0 -7 -9 -16 -19 -20 -18 -5
-313 39 -349 53 -35 13 33 20 205 21 94 1 178 4 187 7 20 8 11 24 -15 24 -20
0 -26 15 -9 25 6 4 17 1 25 -5 11 -9 15 -9 15 -1 0 6 7 11 16 11 14 0 14 -2 3
-16 -12 -14 -11 -16 6 -13 24 5 32 38 13 50 -7 5 -20 6 -28 3 -35 -13 -70 -13
-70 1 0 11 8 13 30 8 45 -9 73 20 65 67 -8 45 -43 84 -61 69 -10 -8 -13 -5
-11 17 1 15 -4 29 -10 31 -7 3 -13 -1 -13 -9 0 -7 -13 -38 -28 -69 -24 -49
-26 -59 -15 -75 7 -10 13 -30 13 -45 0 -15 5 -31 10 -34 19 -12 10 -25 -17
-25 -20 0 -24 3 -14 9 21 13 1 20 -80 27 -41 4 -79 11 -85 16 -6 4 -20 5 -30
2 -16 -6 -16 -4 4 15 40 39 21 124 -24 107 -8 -3 -13 -10 -9 -16 3 -5 3 -25 0
-43 -6 -30 -9 -33 -35 -29 -23 3 -29 0 -33 -19 -4 -20 -4 -21 -6 -4 -1 18 -7
20 -40 17 -33 -3 -40 -1 -46 18 -8 25 -31 21 -28 -6 1 -17 -16 -35 -33 -34 -4
0 -6 81 -5 180 l2 181 -161 -3 -161 -3 -5 -184 c-4 -166 -10 -216 -20 -186 -3
6 -57 9 -146 7 -153 -4 -189 -4 -195 1 -1 2 -6 31 -9 65 l-7 61 29 4 29 4 -30
0 c-90 2 -108 4 -101 10 3 4 26 6 49 5 29 -2 38 1 28 7 -11 7 -9 10 10 13 16
2 25 11 27 25 3 18 -3 22 -30 26 l-33 4 33 1 c29 2 33 5 30 24 -2 16 -12 25
-33 29 l-30 7 33 1 c27 1 32 5 32 26 0 21 -5 25 -30 25 -28 0 -30 2 -30 38 0
65 -6 64 432 56 l390 -7 -6 -86 c-4 -47 -9 -115 -12 -151 l-5 -65 64 -3 c38
-2 68 1 72 8 8 13 48 13 62 -1 9 -9 13 -2 19 25 l6 37 51 -6 c47 -6 49 -6 44
14 -3 12 1 28 10 36 8 8 10 15 4 15 -6 0 -15 -10 -22 -21 -9 -17 -13 -19 -20
-8 -6 10 -9 11 -9 2 0 -8 -13 -13 -30 -13 -35 0 -35 1 -16 137 l13 93 -25 22
c-13 13 -33 36 -44 52 -20 27 -20 28 -2 18 120 -62 137 -67 234 -66 80 1 108
6 179 32 46 17 100 44 120 59 20 15 40 26 46 25 5 -2 7 0 2 4 -8 8 42 66 52
60 3 -2 12 2 19 10 8 8 8 14 2 14 -6 0 2 19 16 41 36 58 62 138 68 212 3 34 3
52 0 41 -6 -27 -83 -51 -96 -31 -5 8 -8 7 -8 -4 0 -11 -22 -23 -71 -39 -39
-12 -68 -24 -65 -27 4 -4 65 13 124 35 8 3 12 -11 14 -49 l1 -54 6 54 c6 51 8
54 44 68 21 9 40 14 42 12 9 -10 -18 -111 -46 -168 -30 -61 -49 -69 -44 -18 1
13 0 15 -2 5 -2 -10 -9 -18 -14 -18 -6 0 -3 -7 5 -16 17 -16 16 -21 -18 -67
-20 -27 -117 -96 -183 -130 -35 -18 -163 -34 -163 -21 -2 40 -13 130 -16 133
-2 2 -4 -28 -4 -67 0 -40 -2 -72 -4 -72 -48 0 -256 52 -256 65 0 1 -11 53 -25
115 -14 62 -24 115 -22 116 1 2 20 -1 42 -5 84 -18 105 -20 105 -12 0 5 -26
12 -57 16 -95 12 -97 14 -116 99 -9 42 -17 81 -17 85 0 6 15 5 36 0 19 -6 41
-8 47 -6 7 2 -11 10 -40 17 -50 13 -52 14 -60 59 -7 42 -11 46 -40 51 l-32 5
19 42 c10 23 37 62 61 88 48 52 169 131 232 150 23 8 33 14 22 14 -11 0 -43
-8 -72 -18z m-286 -418 c-3 -10 -5 -4 -5 12 0 17 2 24 5 18 2 -7 2 -21 0 -30z
m-655 -288 c-4 -58 -4 -105 0 -105 5 0 8 -9 8 -20 0 -19 -6 -20 -110 -19 -88
0 -110 3 -110 15 0 8 7 14 15 14 17 0 16 11 -6 123 -12 66 -12 67 16 67 19 0
26 7 31 28 4 15 20 60 37 99 l30 73 48 -85 49 -85 -8 -105z m464 168 c44 -95
45 -100 39 -167 -3 -37 -9 -74 -12 -82 -3 -9 2 -14 16 -14 14 0 21 -6 21 -20
0 -18 -7 -20 -60 -21 -126 -4 -150 -2 -170 11 -13 9 -13 12 3 24 18 14 18 17
1 82 -15 60 -15 68 -1 75 19 11 57 77 87 152 13 31 25 57 27 57 1 0 23 -44 49
-97z m-869 71 c-3 -3 -12 -4 -19 -1 -8 3 -5 6 6 6 11 1 17 -2 13 -5z m1030
-10 c-3 -3 -12 -4 -19 -1 -8 3 -5 6 6 6 11 1 17 -2 13 -5z m147 -330 c3 -8 2
-12 -4 -9 -6 3 -10 10 -10 16 0 14 7 11 14 -7z m-874 -243 c0 -11 -4 -23 -10
-26 -6 -4 -10 5 -10 19 0 14 5 26 10 26 6 0 10 -9 10 -19z m622 -28 c-40 -2
-103 -2 -140 0 -37 2 -4 3 73 3 77 0 107 -2 67 -3z m73 -33 c-4 -6 -57 -9
-143 -8 -99 1 -120 3 -77 7 114 12 227 12 220 1z m-245 -39 c0 -5 -6 -12 -12
-14 -7 -3 1 -6 19 -6 17 -1 34 5 36 12 3 7 6 5 6 -5 1 -14 -7 -18 -33 -18 -36
0 -52 12 -41 30 8 13 25 13 25 1z m150 -11 c0 -17 -6 -20 -42 -18 l-43 1 38 4
c20 2 37 9 37 15 0 6 -15 8 -35 6 -19 -2 -35 0 -35 4 0 4 18 8 40 8 33 0 40
-3 40 -20z m98 -2 c3 -13 -3 -18 -20 -17 -17 1 -18 3 -5 6 32 8 18 25 -18 21
-19 -2 -35 0 -35 5 0 4 17 7 37 5 27 -2 39 -8 41 -20z m-51 -14 c-3 -3 -12 -4
-19 -1 -8 3 -5 6 6 6 11 1 17 -2 13 -5z m1290 -65 c3 -11 11 -18 18 -15 18 7
35 -14 35 -44 0 -35 -18 -52 -41 -39 -34 18 -69 56 -69 76 0 40 48 59 57 22z
m-1309 4 c-38 -2 -98 -2 -135 0 -38 2 -7 3 67 3 74 0 105 -1 68 -3z m-618 -58
c0 -30 0 -58 0 -62 1 -5 -8 -9 -20 -11 -16 -3 -20 2 -21 25 l-2 28 -4 -27 c-4
-24 -8 -26 -51 -26 -26 1 -50 6 -54 12 -4 6 -8 35 -8 64 l0 52 80 0 80 0 0
-55z m1273 22 c6 -44 0 -50 -42 -42 -47 9 -53 16 -39 47 10 20 20 26 44 26 28
0 33 -4 37 -31z m-613 -8 c33 -9 -58 -9 -160 1 l-75 7 105 0 c58 0 116 -4 130
-8z m1212 -32 c2 -14 10 -22 22 -22 11 0 21 -6 24 -14 3 -10 0 -12 -11 -8 -10
4 -20 -1 -26 -11 -9 -15 -11 -15 -30 2 -16 15 -18 22 -10 33 9 9 9 13 0 13
-12 0 -15 32 -4 43 10 10 31 -12 35 -36z m-1254 -14 c-38 -2 -98 -2 -135 0
-38 2 -7 3 67 3 74 0 105 -1 68 -3z m-945 -70 c-7 -2 -19 -2 -25 0 -7 3 -2 5
12 5 14 0 19 -2 13 -5z m2147 -109 c4 -19 8 -25 13 -16 5 6 6 16 3 21 -7 11
18 33 27 24 11 -10 7 -37 -8 -56 -13 -18 -15 -18 -44 -1 -29 17 -40 42 -24 58
13 13 28 -1 33 -30z"/>
<path d="M1470 1176 c0 -14 5 -28 10 -31 6 -4 10 7 10 24 0 17 -4 31 -10 31
-5 0 -10 -11 -10 -24z"/>
<path d="M1510 1186 c0 -8 -3 -21 -6 -30 -4 -11 -1 -16 10 -16 11 0 16 9 16
30 0 17 -4 30 -10 30 -5 0 -10 -6 -10 -14z"/>
<path d="M1482 1110 c0 -14 2 -19 5 -12 2 6 2 18 0 25 -3 6 -5 1 -5 -13z"/>
<path d="M1503 1110 c1 -11 4 -20 8 -20 4 0 9 9 12 20 3 13 0 20 -8 20 -8 0
-13 -9 -12 -20z"/>
<path d="M1970 1170 c0 -27 3 -30 30 -30 27 0 30 3 30 30 0 27 -3 30 -30 30
-27 0 -30 -3 -30 -30z m33 0 c3 -11 1 -20 -4 -20 -5 0 -9 9 -9 20 0 11 2 20 4
20 2 0 6 -9 9 -20z"/>
<path d="M1970 1111 c0 -11 5 -23 10 -26 6 -4 10 5 10 19 0 14 -4 26 -10 26
-5 0 -10 -9 -10 -19z"/>
<path d="M2007 1123 c-6 -14 -2 -33 8 -33 6 -1 11 8 13 20 3 19 -13 29 -21 13z"/>
<path d="M2710 531 c0 -6 5 -13 10 -16 6 -3 10 1 10 9 0 9 -4 16 -10 16 -5 0
-10 -4 -10 -9z"/>
<path d="M2881 1797 c15 -12 119 -66 119 -62 0 6 -103 65 -114 65 -5 0 -7 -1
-5 -3z"/>
<path d="M2693 1685 c0 -33 2 -45 4 -27 2 18 2 45 0 60 -2 15 -4 0 -4 -33z"/>
<path d="M3010 1726 c0 -2 8 -10 18 -17 15 -13 16 -12 3 4 -13 16 -21 21 -21
13z"/>
<path d="M3050 1614 l-25 -15 25 7 c28 7 35 12 29 18 -2 2 -15 -2 -29 -10z"/>
<path d="M2690 1585 c0 -33 15 -33 16 0 1 14 -2 25 -7 25 -5 0 -9 -11 -9 -25z"/>
<path d="M2995 1590 c-3 -5 -2 -10 4 -10 5 0 13 5 16 10 3 6 2 10 -4 10 -5 0
-13 -4 -16 -10z"/>
<path d="M3146 1560 c4 -14 13 -38 20 -55 11 -24 13 -25 8 -5 -4 14 -13 39
-20 55 -11 24 -13 25 -8 5z"/>
<path d="M2893 1550 c-24 -11 -43 -22 -43 -25 0 -6 82 25 95 37 15 13 -6 8
-52 -12z"/>
<path d="M2690 1435 c0 -52 -3 -95 -6 -95 -3 0 -46 12 -95 26 -127 36 -133 25
-7 -14 116 -36 118 -38 118 -129 l0 -35 -47 7 c-27 3 -59 9 -73 12 -14 3 -22
2 -17 -2 4 -5 35 -13 70 -20 l62 -11 6 -39 c5 -35 6 -33 8 21 l1 60 50 18 c28
10 59 15 72 11 18 -5 20 -4 8 4 -13 10 -13 11 0 11 8 1 29 7 45 16 26 12 27
14 5 9 -14 -3 -60 -16 -102 -29 l-78 -24 0 112 0 113 40 18 c49 22 46 32 -4
11 l-36 -15 0 30 c0 16 -4 29 -10 29 -6 0 -10 -38 -10 -95z"/>
<path d="M2805 1510 c-3 -6 1 -7 9 -4 18 7 21 14 7 14 -6 0 -13 -4 -16 -10z"/>
<path d="M3148 1463 c7 -3 16 -2 19 1 4 3 -2 6 -13 5 -11 0 -14 -3 -6 -6z"/>
<path d="M2748 1273 c7 -3 16 -2 19 1 4 3 -2 6 -13 5 -11 0 -14 -3 -6 -6z"/>
<path d="M3408 1163 c7 -3 16 -2 19 1 4 3 -2 6 -13 5 -11 0 -14 -3 -6 -6z"/>
<path d="M3368 1153 c7 -3 16 -2 19 1 4 3 -2 6 -13 5 -11 0 -14 -3 -6 -6z"/>
<path d="M3155 1120 c-27 -7 -28 -8 -5 -8 14 0 34 3 45 8 25 11 2 11 -40 0z"/>
<path d="M2726 1109 c3 -5 13 -9 22 -9 9 -1 34 -7 56 -15 21 -7 34 -9 29 -4
-13 13 -115 40 -107 28z"/>
<path d="M2967 1039 c7 -7 15 -10 18 -7 3 3 -2 9 -12 12 -14 6 -15 5 -6 -5z"/>
<path d="M3090 1018 c2 -55 -9 -555 -11 -563 -2 -5 1 -12 6 -15 7 -3 11 99 13
293 2 163 1 297 -2 297 -3 0 -6 -6 -6 -12z"/>
<path d="M763 880 c0 -25 2 -35 4 -22 2 12 2 32 0 45 -2 12 -4 2 -4 -23z"/>
<path d="M1668 788 l-23 -23 54 -3 c63 -4 70 1 46 28 -24 26 -50 25 -77 -2z"/>
<path d="M1290 755 c0 -22 4 -25 40 -25 36 0 40 3 40 25 0 23 -4 25 -40 25
-36 0 -40 -2 -40 -25z"/>
<path d="M1380 755 c0 -21 5 -25 30 -25 25 0 30 4 30 25 0 21 -5 25 -30 25
-25 0 -30 -4 -30 -25z"/>
<path d="M1650 670 c0 -33 4 -60 10 -60 6 0 10 7 10 15 0 10 11 15 35 15 l35
0 0 -60 0 -60 -30 0 c-27 0 -30 3 -29 33 2 30 2 30 6 5 3 -20 10 -28 24 -28
16 0 19 7 19 50 0 43 -3 50 -20 50 -35 0 -60 -35 -60 -85 l0 -46 58 3 57 3 0
112 0 113 -57 0 -58 0 0 -60z m90 20 c0 -5 -2 -10 -4 -10 -3 0 -8 5 -11 10 -3
6 -1 10 4 10 6 0 11 -4 11 -10z m-56 -15 c3 -8 1 -15 -4 -15 -6 0 -10 7 -10
15 0 8 2 15 4 15 2 0 6 -7 10 -15z"/>
<path d="M1290 695 c0 -22 4 -25 40 -25 36 0 40 3 40 25 0 23 -4 25 -40 25
-36 0 -40 -2 -40 -25z"/>
<path d="M1380 695 c0 -21 5 -25 30 -25 25 0 30 4 30 25 0 21 -5 25 -30 25
-25 0 -30 -4 -30 -25z"/>
<path d="M1452 695 c0 -16 2 -22 5 -12 2 9 2 23 0 30 -3 6 -5 -1 -5 -18z"/>
<path d="M479 692 c-13 -10 -36 -23 -51 -30 -19 -8 -28 -19 -28 -35 0 -25 28
-57 50 -57 9 0 6 -8 -8 -23 -12 -13 -22 -27 -22 -32 0 -5 10 2 21 14 l22 23
21 -26 c19 -24 27 -26 70 -23 64 6 78 24 72 92 -7 70 -14 84 -45 91 -14 3 -34
9 -43 15 -24 13 -32 12 -59 -9z m51 -18 c0 -11 6 -14 20 -9 30 9 60 -4 60 -26
0 -11 -7 -22 -16 -26 -14 -5 -13 -9 7 -23 22 -17 22 -19 6 -44 -20 -30 -35
-33 -44 -9 -5 14 -8 13 -14 -5 -5 -12 -15 -22 -23 -22 -20 0 -50 46 -42 65 4
12 0 14 -18 9 -15 -3 -29 1 -40 11 -25 25 -16 50 17 50 19 -1 27 4 27 16 0 10
6 20 13 22 25 11 47 7 47 -9z"/>
<path d="M514 625 c-8 -20 4 -35 27 -35 20 0 26 24 9 35 -6 3 -7 -1 -4 -9 4
-11 0 -16 -11 -16 -12 0 -16 6 -12 20 6 23 -1 27 -9 5z"/>
<path d="M1300 635 c0 -22 4 -25 35 -25 31 0 35 3 35 25 0 22 -4 25 -35 25
-31 0 -35 -3 -35 -25z"/>
<path d="M1380 635 c0 -21 5 -25 30 -25 25 0 30 4 30 25 0 21 -5 25 -30 25
-25 0 -30 -4 -30 -25z"/>
<path d="M730 646 c0 -2 9 -6 20 -9 11 -3 18 -1 14 4 -5 9 -34 13 -34 5z"/>
<path d="M762 555 c-7 -8 -8 -15 -3 -15 5 0 12 -12 14 -27 2 -17 4 -11 4 15 0
23 -1 42 -1 42 -1 -1 -7 -7 -14 -15z"/>
<path d="M2360 519 c0 -5 7 -9 15 -9 8 0 15 -4 15 -10 0 -5 5 -10 10 -10 21 0
9 28 -15 32 -14 3 -25 1 -25 -3z"/>
<path d="M1271 494 c0 -11 3 -14 6 -6 3 7 2 16 -1 19 -3 4 -6 -2 -5 -13z"/>
<path d="M535 430 c-3 -5 -1 -10 4 -10 6 0 11 5 11 10 0 6 -2 10 -4 10 -3 0
-8 -4 -11 -10z"/>
<path d="M290 395 c0 -8 2 -15 4 -15 2 0 6 7 10 15 3 8 1 15 -4 15 -6 0 -10
-7 -10 -15z"/>
<path d="M206 365 c-6 -25 -8 -25 -76 -19 -39 4 -70 4 -70 1 0 -3 31 -12 68
-21 58 -13 78 -13 129 -3 48 10 58 15 47 24 -8 9 -14 9 -16 2 -2 -7 -17 0 -35
15 -38 32 -39 32 -47 1z"/>
<path d="M458 343 c7 -3 16 -2 19 1 4 3 -2 6 -13 5 -11 0 -14 -3 -6 -6z"/>
<path d="M979 164 c-6 -8 -23 -10 -45 -7 -27 4 -34 2 -32 -8 2 -10 -10 -15
-42 -17 -25 -2 -49 -7 -54 -12 -16 -16 42 -23 142 -16 53 3 161 8 240 12 78 4
142 11 142 15 0 17 -55 22 -166 15 -108 -6 -114 -5 -114 13 0 15 -7 19 -30 19
-17 -1 -35 -7 -41 -14z"/>
</g>
</svg>
