<?xml version="1.0" standalone="no"?>
<!DOCTYPE svg PUBLIC "-//W3C//DTD SVG 20010904//EN"
 "http://www.w3.org/TR/2001/REC-SVG-20010904/DTD/svg10.dtd">
<svg version="1.0" xmlns="http://www.w3.org/2000/svg"
 width="208.000000pt" height="60.000000pt" viewBox="0 0 208.000000 60.000000"
 preserveAspectRatio="xMidYMid meet">

<g transform="translate(0.000000,60.000000) scale(0.100000,-0.100000)"
fill="#000000" stroke="none">
<path d="M130 447 c0 -20 23 -37 38 -28 10 6 10 10 0 18 -28 21 -38 24 -38 10z"/>
<path d="M340 367 c0 -68 10 -87 48 -87 51 0 62 16 62 85 0 50 -3 65 -15 65
-10 0 -15 -15 -17 -57 -3 -50 -6 -58 -23 -58 -17 0 -20 8 -23 58 -2 42 -7 57
-17 57 -12 0 -15 -15 -15 -63z"/>
<path d="M470 413 c0 -7 7 -13 15 -13 12 0 15 -13 15 -60 0 -53 2 -60 20 -60
18 0 20 7 20 60 0 47 3 60 15 60 8 0 15 6 15 13 0 8 -17 12 -50 12 -33 0 -50
-4 -50 -12z"/>
<path d="M590 355 c0 -60 3 -75 15 -75 10 0 15 10 15 30 0 17 4 30 8 30 5 0
18 -13 30 -30 13 -17 32 -30 43 -30 21 0 20 1 -5 34 -14 19 -26 38 -26 41 0 3
11 21 25 39 23 31 23 32 4 32 -12 0 -30 -13 -41 -28 -25 -36 -38 -35 -38 2 0
20 -5 30 -15 30 -12 0 -15 -15 -15 -75z"/>
<path d="M756 358 c-15 -38 -26 -71 -26 -74 0 -11 31 -2 36 11 4 9 19 15 40
15 24 0 34 -5 34 -15 0 -8 9 -15 19 -15 18 0 17 4 -8 72 -21 57 -30 72 -48 73
-18 1 -26 -9 -47 -67z m58 16 c11 -29 7 -42 -12 -37 -14 3 -18 11 -14 29 5 27
17 31 26 8z"/>
<path d="M900 353 c0 -57 3 -73 14 -73 9 0 16 12 18 33 l3 32 18 -32 c11 -21
25 -33 38 -33 21 0 19 10 -9 42 -13 15 -12 19 2 33 33 33 14 60 -46 67 l-38 4
0 -73z m66 36 c3 -6 0 -15 -7 -20 -22 -14 -29 -11 -29 11 0 21 24 27 36 9z"/>
<path d="M1048 419 c-10 -5 -18 -21 -18 -34 0 -19 9 -28 35 -39 19 -8 35 -20
35 -25 0 -15 -37 -14 -42 1 -3 8 -9 8 -22 1 -17 -9 -17 -11 -1 -26 22 -22 68
-21 89 2 22 24 11 49 -30 66 -38 15 -45 35 -14 35 11 0 20 -4 20 -9 0 -5 10
-7 22 -3 l21 5 -22 19 c-26 20 -47 22 -73 7z"/>
<path d="M1160 353 c0 -58 3 -73 15 -73 10 0 15 10 15 31 0 28 2 30 33 27 28
-3 32 -6 29 -30 -3 -23 1 -28 18 -28 20 0 21 4 18 73 -2 56 -6 72 -18 72 -9 0
-15 -10 -15 -25 0 -21 -6 -26 -33 -28 -29 -3 -32 -1 -32 26 0 19 -5 29 -15 29
-12 0 -15 -15 -15 -74z"/>
<path d="M1375 395 c-13 -84 -11 -115 7 -115 15 0 18 9 18 50 0 28 4 50 8 50
5 0 14 -22 21 -50 7 -27 18 -50 25 -50 7 0 18 23 25 50 15 59 31 57 31 -6 0
-32 4 -44 15 -44 11 0 15 11 14 48 -2 73 -11 97 -36 98 -17 0 -25 -8 -34 -33
-12 -38 -25 -36 -34 6 -5 23 -11 29 -31 27 -19 -1 -25 -8 -29 -31z"/>
<path d="M1570 356 c0 -61 3 -76 15 -76 12 0 15 14 15 65 0 36 0 68 1 73 0 4
-7 8 -15 10 -13 3 -16 -9 -16 -72z"/>
<path d="M1640 353 c0 -58 3 -73 15 -73 11 0 15 12 15 45 0 25 4 45 8 45 4 0
18 -20 30 -45 15 -31 28 -45 42 -45 18 0 20 7 20 65 0 36 1 68 2 73 1 4 -6 8
-15 10 -12 3 -16 -7 -19 -45 l-3 -48 -27 44 c-17 28 -35 45 -47 46 -19 2 -21
-4 -21 -72z"/>
<path d="M1810 353 l0 -73 38 0 c55 0 82 23 82 69 0 52 -17 69 -72 73 l-48 3
0 -72z m78 35 c27 -27 7 -78 -30 -78 -15 0 -18 8 -18 45 0 37 3 45 18 45 10 0
23 -5 30 -12z"/>
<path d="M1966 415 c-25 -25 -16 -48 27 -68 20 -9 37 -21 37 -26 0 -16 -24
-19 -40 -5 -11 9 -20 10 -30 3 -13 -8 -12 -12 4 -24 24 -18 67 -20 84 -3 22
22 13 48 -23 69 -36 21 -46 39 -22 39 7 0 17 -4 23 -10 5 -5 15 -6 24 0 20 12
4 28 -36 36 -22 4 -36 1 -48 -11z"/>
<path d="M163 402 c-47 -5 -58 -24 -39 -63 9 -18 16 -33 16 -34 0 -1 -18 -1
-40 0 -22 1 -40 -2 -40 -8 0 -6 22 -8 60 -4 76 8 150 -2 157 -20 10 -25 -18
-33 -122 -33 -104 0 -125 -7 -125 -42 0 -27 32 -38 112 -37 123 2 136 17 16
18 -99 1 -108 3 -108 20 0 18 10 20 110 23 117 3 133 10 128 53 -2 15 -12 21
-41 23 -32 3 -37 6 -31 20 27 64 10 91 -53 84z"/>
<path d="M122 273 c27 -2 69 -2 96 0 26 2 4 3 -48 3 -52 0 -74 -1 -48 -3z"/>
<path d="M510 205 c0 -14 2 -25 4 -25 2 0 6 11 8 25 3 14 1 25 -3 25 -5 0 -9
-11 -9 -25z"/>
<path d="M561 223 c-1 -6 -4 -20 -7 -30 -5 -17 -5 -17 6 0 6 10 9 23 6 30 -3
9 -5 9 -5 0z"/>
<path d="M637 223 c-4 -3 -7 -15 -7 -26 0 -25 13 -14 15 13 2 22 1 23 -8 13z"/>
<path d="M690 215 c-10 -11 -10 -19 -2 -27 15 -15 44 -2 40 19 -4 23 -22 27
-38 8z m30 -10 c0 -8 -7 -15 -15 -15 -16 0 -20 12 -8 23 11 12 23 8 23 -8z"/>
<path d="M840 205 c0 -14 2 -25 4 -25 2 0 6 11 8 25 3 14 1 25 -3 25 -5 0 -9
-11 -9 -25z"/>
<path d="M889 228 c-8 -25 -3 -44 12 -44 16 0 17 2 4 16 -8 9 -12 20 -8 23 3
4 3 7 0 7 -4 0 -7 -1 -8 -2z"/>
<path d="M1000 205 c0 -14 2 -25 4 -25 2 0 6 11 8 25 3 14 1 25 -3 25 -5 0 -9
-11 -9 -25z"/>
<path d="M1050 220 c0 -5 6 -9 13 -7 7 1 11 -6 9 -18 -3 -16 -1 -17 9 -8 10
10 10 15 -1 28 -14 17 -30 20 -30 5z"/>
<path d="M1171 221 c-18 -12 -6 -41 16 -40 17 1 17 2 0 6 -19 5 -17 30 2 26 6
-2 11 2 11 7 0 12 -10 13 -29 1z"/>
<path d="M1231 203 c-10 -26 -10 -27 4 -9 8 11 15 23 15 28 0 15 -7 8 -19 -19z"/>
<path d="M1295 220 c-3 -5 -1 -10 4 -10 6 0 11 5 11 10 0 6 -2 10 -4 10 -3 0
-8 -4 -11 -10z"/>
<path d="M1337 223 c-10 -9 -9 -43 1 -43 4 0 8 11 8 25 0 28 0 28 -9 18z"/>
<path d="M1611 221 c-17 -11 -7 -41 13 -41 22 0 30 20 15 36 -9 8 -19 10 -28
5z m29 -22 c0 -5 -7 -9 -15 -9 -15 0 -20 12 -9 23 8 8 24 -1 24 -14z"/>
<path d="M1732 205 c-6 -14 -8 -25 -3 -25 8 0 23 41 17 47 -1 2 -8 -8 -14 -22z"/>
<path d="M1795 220 c-3 -5 -1 -10 4 -10 6 0 11 5 11 10 0 6 -2 10 -4 10 -3 0
-8 -4 -11 -10z"/>
<path d="M1839 228 c-7 -24 -7 -48 0 -48 5 0 8 8 7 18 -2 9 2 20 8 24 8 5 7 8
-1 8 -7 0 -13 -1 -14 -2z"/>
<path d="M586 204 c-4 -9 -4 -19 -1 -22 3 -3 5 1 5 9 0 12 2 11 10 -1 7 -12 9
-10 7 8 -2 26 -12 29 -21 6z"/>
<path d="M750 215 c0 -5 5 -17 10 -25 5 -8 10 -10 10 -5 0 6 -5 17 -10 25 -5
8 -10 11 -10 5z"/>
<path d="M780 213 c0 -15 19 -37 26 -31 3 4 -1 14 -10 23 -9 9 -16 13 -16 8z"/>
<path d="M1130 204 c0 -10 -5 -14 -16 -10 -8 3 -12 2 -9 -4 11 -18 35 -11 35
10 0 11 -2 20 -5 20 -3 0 -5 -7 -5 -16z"/>
<path d="M1442 200 c0 -14 2 -19 5 -12 2 6 2 18 0 25 -3 6 -5 1 -5 -13z"/>
<path d="M1473 198 c-2 -18 0 -20 7 -8 12 18 13 30 2 30 -4 0 -9 -10 -9 -22z"/>
<path d="M1540 212 c0 -4 9 -13 20 -20 11 -7 20 -9 20 -4 0 4 -9 13 -20 20
-11 7 -20 9 -20 4z"/>
<path d="M1670 215 c0 -5 5 -17 10 -25 5 -8 10 -10 10 -5 0 6 -5 17 -10 25 -5
8 -10 11 -10 5z"/>
<path d="M103 193 c26 -2 67 -2 90 0 23 2 2 3 -48 3 -50 0 -68 -1 -42 -3z"/>
</g>
</svg>
